#VRML V2.0 utf8
# 3D model generated by easyeda2kicad.py (https://github.com/uPesy/easyeda2kicad.py)

Shape{
    appearance Appearance {
        material  Material 	{
            diffuseColor 0.2235294117647059 0.2235294117647059 0.2235294117647059
            specularColor 0.11372549019607843 0.11372549019607843 0.11372549019607843
            ambientIntensity 0.2235
            transparency 0.0
            shininess 0.5
        }
    }
    geometry IndexedFaceSet {
        ccw TRUE
        solid FALSE
        coord DEF co Coordinate {
            point [
                0.2161 -0.336 0.2402, 0.2152 -0.3361 0.2402, 0.2242 -0.3361 0.2402, 0.2526 -0.2406 0.2402, 0.2533 -0.2408 0.2402, 0.2533 0.3937 0.2402, 0.1974 -0.2771 0.2402, 0.195 -0.2773 0.2402, 0.2073 -0.2773 0.2402, 0.1058 -0.2688 0.2402, 0.113 -0.2748 0.2402, 0.138 0.3937 0.2402, 0.0575 -0.2311 0.2402, 0.0707 -0.2358 0.2402, 0.0825 -0.2437 0.2402, 0.0912 -0.2537 0.2402, -0.1537 0.3937 0.2402, -0.1537 -0.2773 0.2402, -0.0393 -0.2722 0.2402, 0.0967 -0.2645 0.2402, 0.0979 -0.2649 0.2402, -0.033 -0.264 0.2402, -0.0312 -0.2623 0.2402, -0.0228 -0.2564 0.2402, 0.0088 -0.2456 0.2402, 0.015 -0.2403 0.2402, 0.0214 -0.2363 0.2402, 0.0336 -0.2316 0.2402, 0.0466 -0.23 0.2402, -0.0131 -0.2526 0.2402, -0.0026 -0.2513 0.2402, 0.0004 -0.2515 0.2402, 0.0034 -0.2519 0.2402, -0.0447 -0.2882 0.2402, -0.0435 -0.2817 0.2402, -0.0416 -0.2773 0.2402, -0.0261 -0.3298 0.2402, -0.0343 -0.3228 0.2402, -0.1537 -0.3361 0.2402, -0.0166 -0.3344 0.2402, -0.0403 -0.3142 0.2402, -0.044 -0.3044 0.2402, -0.1537 -0.2882 0.2402, -0.0453 -0.294 0.2402, -0.0453 -0.2916 0.2402, -0.0132 -0.3354 0.2402, -0.0129 -0.3361 0.2402, -0.0107 -0.3408 0.2402, -0.1537 -0.3508 0.2402, -0.0069 -0.3456 0.2402, -0.0018 -0.3496 0.2402, 0.0229 -0.3508 0.2402, 0.0178 -0.3527 0.2402, 0.138 -0.3937 0.2402, 0.0119 -0.3533 0.2402, 0.0104 -0.3533 0.2402, -0.1537 -0.3937 0.2402, 0.0042 -0.3522 0.2402, 0.001 -0.3508 0.2402, 0.0366 -0.3361 0.2402, 0.0365 -0.3362 0.2402, 0.138 -0.3508 0.2402, 0.0334 -0.3421 0.2402, 0.029 -0.347 0.2402, 0.0237 -0.3505 0.2402, 0.0703 -0.3205 0.2402, 0.0721 -0.3199 0.2402, 0.0751 -0.3048 0.2402, 0.1131 -0.3241 0.2402, 0.1059 -0.3301 0.2402, 0.138 -0.3361 0.2402, -0.0264 -0.3042 0.2402, -0.023 -0.3099 0.2402, -0.0097 -0.3117 0.2402, -0.0182 -0.3146 0.2402, -0.0129 -0.3178 0.2402, 0.0316 -0.3093 0.2402, 0.0669 -0.2909 0.2402, 0.0273 -0.3053 0.2402, 0.0217 -0.3023 0.2402, 0.1063 -0.2971 0.2402, 0.1051 -0.292 0.2402, 0.1031 -0.2882 0.2402, -0.0281 -0.2882 0.2402, 0.0686 -0.3217 0.2402, 0.1183 -0.3168 0.2402, 0.0741 -0.3196 0.2402, 0.0743 -0.3196 0.2402, 0.0751 -0.3198 0.2402, 0.1207 -0.2882 0.2402, 0.1216 -0.2904 0.2402, 0.138 -0.2882 0.2402, 0.1228 -0.2991 0.2402, 0.1216 -0.3084 0.2402, 0.0001 -0.3032 0.2402, -0.0053 -0.3068 0.2402, -0.0287 -0.2935 0.2402, -0.0284 -0.2978 0.2402, 0.0979 -0.3341 0.2402, 0.0891 -0.3359 0.2402, 0.0735 -0.3359 0.2402, 0.0722 -0.3357 0.2402, 0.0704 -0.3351 0.2402, 0.0687 -0.3339 0.2402, 0.0679 -0.3331 0.2402, 0.1011 -0.3132 0.2402, 0.104 -0.3091 0.2402, 0.1058 -0.3044 0.2402, 0.1065 -0.2993 0.2402, 0.006 -0.301 0.2402, 0.0119 -0.3004 0.2402, 0.0154 -0.3006 0.2402, 0.0659 -0.3278 0.2402, 0.0659 -0.327 0.2402, 0.0382 -0.3244 0.2402, 0.0664 -0.3249 0.2402, 0.0674 -0.3231 0.2402, 0.0756 -0.3199 0.2402, 0.0875 -0.3199 0.2402, 0.0922 -0.319 0.2402, 0.0668 -0.3315 0.2402, 0.0661 -0.3297 0.2402, 0.0381 -0.3297 0.2402, 0.0382 -0.327 0.2402, 0.0968 -0.3168 0.2402, 0.1007 -0.3137 0.2402, -0.0259 -0.2817 0.2402, -0.0281 -0.2876 0.2402, 0.0838 -0.2788 0.2402, 0.0859 -0.2788 0.2402, 0.1027 -0.2874 0.2402, 0.0996 -0.284 0.2402, 0.0955 -0.2811 0.2402, 0.0909 -0.2794 0.2402, 0.078 -0.2628 0.2402, 0.0721 -0.2557 0.2402, 0.0116 -0.2711 0.2402, 0.0716 -0.2553 0.2402, 0.0642 -0.2501 0.2402, 0.0156 -0.2627 0.2402, -0.023 -0.2773 0.2402, 0.0092 -0.2699 0.2402, 0.0835 -0.2773 0.2402, 0.0821 -0.2713 0.2402, 0.0033 -0.2678 0.2402, -0.0024 -0.2672 0.2402, -0.0051 -0.2673 0.2402, 0.0216 -0.2557 0.2402, 0.0559 -0.2469 0.2402, 0.0286 -0.2506 0.2402, 0.0469 -0.2458 0.2402, 0.0372 -0.2471 0.2402, -0.0116 -0.2688 0.2402, -0.0175 -0.272 0.2402, -0.0224 -0.2764 0.2402, 0.1184 -0.2823 0.2402, 0.138 -0.2773 0.2402, 0.1147 -0.2773 0.2402, 0.2929 -0.2669 0.2402, 0.2793 -0.2669 0.2402, 0.2967 -0.277 0.2402, 0.2793 -0.2773 0.2402, 0.3019 -0.277 0.2402, 0.3859 -0.2773 0.2402, 0.3859 0.3937 0.2402, 0.2878 -0.2399 0.2402, 0.2774 -0.2669 0.2402, 0.2739 -0.277 0.2402, 0.2676 -0.2773 0.2402, 0.2686 -0.277 0.2402, 0.2793 -0.249 0.2402, 0.2242 -0.2603 0.2402, 0.2142 -0.2603 0.2402, 0.2242 -0.2728 0.2402, 0.2142 -0.2728 0.2402, 0.2293 -0.2728 0.2402, 0.2293 -0.277 0.2402, 0.2328 -0.2773 0.2402, 0.2242 -0.2773 0.2402, 0.2275 -0.2603 0.2402, 0.2275 -0.2561 0.2402, 0.2285 -0.2442 0.2402, 0.2242 -0.2442 0.2402, 0.2242 -0.2561 0.2402, 0.2142 -0.2442 0.2402, 0.2142 -0.2561 0.2402, 0.2242 -0.277 0.2402, 0.2094 -0.277 0.2402, 0.2094 -0.2399 0.2402, 0.1982 -0.2397 0.2402, 0.202 -0.2408 0.2402, 0.2073 0.3937 0.2402, 0.2285 -0.2399 0.2402, 0.2328 0.3937 0.2402, 0.2242 -0.2399 0.2402, 0.2242 0.3937 0.2402, 0.202 -0.2458 0.2402, 0.2014 -0.2758 0.2402, 0.1942 -0.2733 0.2402, 0.1984 -0.2725 0.2402, 0.202 -0.2709 0.2402, 0.202 -0.2755 0.2402, 0.1769 -0.2483 0.2402, 0.1796 -0.2448 0.2402, 0.1759 0.3937 0.2402, 0.1804 -0.244 0.2402, 0.1839 -0.2415 0.2402, 0.1878 -0.24 0.2402, 0.1932 -0.2393 0.2402, 0.1934 -0.2393 0.2402, 0.1811 -0.267 0.2402, 0.1829 -0.2695 0.2402, 0.1836 -0.2702 0.2402, 0.186 -0.2719 0.2402, 0.1886 -0.2729 0.2402, 0.1924 -0.2734 0.2402, 0.1978 -0.2442 0.2402, 0.1827 -0.2483 0.2402, 0.2016 -0.2456 0.2402, 0.1809 -0.2509 0.2402, 0.1798 -0.2542 0.2402, 0.1933 -0.2436 0.2402, 0.1918 -0.2437 0.2402, 0.1832 -0.2478 0.2402, 0.1886 -0.2443 0.2402, 0.1857 -0.2457 0.2402, 0.1793 -0.2589 0.2402, 0.1793 -0.2603 0.2402, 0.1799 -0.264 0.2402, 0.1759 -0.2676 0.2402, 0.1749 -0.2651 0.2402, 0.1737 -0.2773 0.2402, 0.1742 -0.2592 0.2402, 0.1743 -0.2573 0.2402, 0.1751 -0.2524 0.2402, 0.1759 -0.2506 0.2402, 0.1855 -0.2767 0.2402, 0.182 -0.2751 0.2402, 0.1759 -0.2773 0.2402, 0.179 -0.2726 0.2402, 0.1786 -0.2722 0.2402, 0.1764 -0.269 0.2402, 0.1885 -0.2773 0.2402, 0.1759 -0.2882 0.2402, 0.1895 -0.2775 0.2402, 0.1917 -0.2776 0.2402, 0.2073 -0.2882 0.2402, -0.2634 -0.275 0.2402, -0.2631 -0.2773 0.2402, -0.4015 0.3937 0.2402, -0.3283 -0.2576 0.2402, -0.3202 -0.2514 0.2402, -0.3344 -0.2656 0.2402, -0.4015 -0.2773 0.2402, -0.3383 -0.275 0.2402, -0.3109 -0.2476 0.2402, -0.3008 -0.2462 0.2402, -0.2908 -0.2476 0.2402, -0.2814 -0.2514 0.2402, -0.2734 -0.2576 0.2402, -0.2672 -0.2656 0.2402, -0.4015 -0.2882 0.2402, -0.3396 -0.285 0.2402, -0.3386 -0.2773 0.2402, -0.262 -0.285 0.2402, -0.2625 -0.2882 0.2402, -0.2634 -0.2951 0.2402, -0.2672 -0.3044 0.2402, -0.2734 -0.3125 0.2402, -0.2814 -0.3186 0.2402, -0.2908 -0.3225 0.2402, -0.3283 -0.3125 0.2402, -0.3344 -0.3044 0.2402, -0.4015 -0.3361 0.2402, -0.3383 -0.2951 0.2402, -0.3392 -0.2882 0.2402, -0.3008 -0.3238 0.2402, -0.3109 -0.3225 0.2402, -0.3202 -0.3186 0.2402, 0.2664 -0.2603 0.2402, 0.2655 -0.2647 0.2402, 0.2637 -0.2685 0.2402, 0.2609 -0.2718 0.2402, 0.2533 -0.276 0.2402, 0.2533 -0.2773 0.2402, 0.2569 -0.2747 0.2402, 0.2605 -0.2723 0.2402, 0.2609 -0.2449 0.2402, 0.2622 -0.2461 0.2402, 0.2676 0.3937 0.2402, 0.2645 -0.2493 0.2402, 0.2659 -0.2528 0.2402, 0.2665 -0.258 0.2402, 0.2827 -0.2399 0.2402, 0.2793 0.3937 0.2402, 0.257 -0.2422 0.2402, 0.2526 -0.2763 0.2402, 0.2465 -0.277 0.2402, 0.2363 -0.277 0.2402, 0.2363 -0.2399 0.2402, 0.2469 -0.2399 0.2402, 0.1942 -0.3358 0.2402, 0.1885 -0.3361 0.2402, 0.1988 -0.3358 0.2402, 0.2073 -0.3361 0.2402, 0.1794 -0.3232 0.2402, 0.1801 -0.3157 0.2402, 0.1785 -0.3245 0.2402, 0.1779 -0.3262 0.2402, 0.1942 -0.3317 0.2402, 0.1941 -0.3317 0.2402, 0.1929 -0.3333 0.2402, 0.1828 -0.336 0.2402, 0.1811 -0.3353 0.2402, 0.1759 -0.3361 0.2402, 0.1784 -0.3326 0.2402, 0.1778 -0.331 0.2402, 0.1914 -0.3348 0.2402, 0.1904 -0.3354 0.2402, 0.1845 -0.3093 0.2402, 0.181 -0.3107 0.2402, 0.1801 -0.3112 0.2402, 0.1904 -0.3127 0.2402, 0.1888 -0.3125 0.2402, 0.1863 -0.3201 0.2402, 0.1798 -0.3344 0.2402, 0.1794 -0.3339 0.2402, 0.1808 -0.322 0.2402, 0.1828 -0.321 0.2402, 0.1834 -0.3137 0.2402, 0.1863 -0.3127 0.2402, 0.1955 -0.3104 0.2402, 0.1968 -0.3116 0.2402, 0.2054 -0.3147 0.2402, 0.1977 -0.3131 0.2402, 0.1985 -0.3152 0.2402, 0.1776 -0.3287 0.2402, 0.1776 -0.3282 0.2402, 0.1893 -0.3087 0.2402, 0.192 -0.309 0.2402, 0.194 -0.3096 0.2402, 0.1942 -0.319 0.2402, 0.194 -0.317 0.2402, 0.1935 -0.3153 0.2402, 0.193 -0.3143 0.2402, 0.2065 -0.3207 0.2402, 0.2058 -0.3196 0.2402, 0.1988 -0.3188 0.2402, 0.2053 -0.3182 0.2402, 0.2051 -0.3165 0.2402, 0.1923 -0.3136 0.2402, 0.1915 -0.3131 0.2402, 0.2072 -0.3215 0.2402, 0.2051 -0.3301 0.2402, 0.2073 -0.3215 0.2402, 0.2068 -0.3311 0.2402, 0.2073 -0.3313 0.2402, 0.1859 -0.3364 0.2402, 0.1849 -0.3364 0.2402, 0.1759 -0.3508 0.2402, 0.1834 -0.3361 0.2402, 0.2051 -0.3349 0.2402, 0.2073 -0.3356 0.2402, 0.2083 -0.336 0.2402, 0.2093 -0.3361 0.2402, 0.2123 -0.3364 0.2402, 0.2073 -0.3508 0.2402, 0.2217 -0.3099 0.2402, 0.2217 -0.3144 0.2402, 0.2081 -0.3108 0.2402, 0.2092 -0.3102 0.2402, 0.2059 -0.3132 0.2402, 0.2068 -0.312 0.2402, 0.2073 -0.3116 0.2402, 0.223 -0.3288 0.2402, 0.2227 -0.3306 0.2402, 0.2222 -0.3321 0.2402, 0.2213 -0.3333 0.2402, 0.2117 -0.3092 0.2402, 0.2155 -0.3087 0.2402, 0.2242 -0.2882 0.2402, 0.2187 -0.309 0.2402, 0.2214 -0.3242 0.2402, 0.2216 -0.3244 0.2402, 0.2224 -0.3256 0.2402, 0.2228 -0.327 0.2402, 0.223 -0.3286 0.2402, 0.22 -0.3343 0.2402, 0.2187 -0.3351 0.2402, 0.215 -0.3125 0.2402, 0.2136 -0.3126 0.2402, 0.2099 -0.3161 0.2402, 0.2124 -0.3129 0.2402, 0.2113 -0.3135 0.2402, 0.21 -0.3167 0.2402, 0.2102 -0.3174 0.2402, 0.2105 -0.318 0.2402, 0.2109 -0.3185 0.2402, 0.2126 -0.3196 0.2402, 0.2183 -0.3129 0.2402, 0.2155 -0.3208 0.2402, 0.2209 -0.3139 0.2402, 0.2169 -0.3214 0.2402, 0.2201 -0.3231 0.2402, 0.2106 -0.3141 0.2402, 0.2102 -0.3147 0.2402, 0.21 -0.3153 0.2402, 0.2097 -0.3323 0.2402, 0.2122 -0.3242 0.2402, 0.2094 -0.3229 0.2402, 0.2128 -0.3327 0.2402, 0.213 -0.3327 0.2402, 0.2152 -0.3255 0.2402, 0.2153 -0.3324 0.2402, 0.2182 -0.3291 0.2402, 0.2182 -0.3285 0.2402, 0.2165 -0.3319 0.2402, 0.217 -0.3317 0.2402, 0.2175 -0.3312 0.2402, 0.2179 -0.3306 0.2402, 0.2181 -0.33 0.2402, 0.218 -0.3278 0.2402, 0.2176 -0.3272 0.2402, 0.217 -0.3266 0.2402, 0.246 -0.3093 0.2402, 0.2508 -0.3093 0.2402, 0.2533 -0.2882 0.2402, 0.2375 -0.3292 0.2402, 0.2381 -0.3314 0.2402, 0.2382 -0.3314 0.2402, 0.2328 -0.2882 0.2402, 0.2328 -0.3158 0.2402, 0.2388 -0.3293 0.2402, 0.2384 -0.3305 0.2402, 0.2328 -0.3361 0.2402, 0.2328 -0.3283 0.2402, 0.2254 -0.3093 0.2402, 0.2306 -0.3093 0.2402, 0.2358 -0.3358 0.2402, 0.2356 -0.3361 0.2402, 0.2338 -0.3406 0.2402, 0.2242 -0.3508 0.2402, 0.2264 -0.3479 0.2402, 0.2264 -0.3438 0.2402, 0.2275 -0.3441 0.2402, 0.229 -0.3443 0.2402, 0.2328 -0.3475 0.2402, 0.2313 -0.348 0.2402, 0.2328 -0.3508 0.2402, 0.2294 -0.3483 0.2402, 0.2277 -0.3482 0.2402, 0.2299 -0.3442 0.2402, 0.2309 -0.3439 0.2402, 0.2318 -0.3434 0.2402, 0.2327 -0.3424 0.2402, 0.2328 -0.3422 0.2402, 0.2533 -0.3508 0.2402, 0.2348 -0.3462 0.2402, 0.2332 -0.3473 0.2402, 0.2403 -0.3361 0.2402, 0.2388 -0.3398 0.2402, 0.2367 -0.344 0.2402, 0.2676 -0.3191 0.2402, 0.2606 -0.3191 0.2402, 0.2676 -0.3316 0.2402, 0.2606 -0.3316 0.2402, 0.2758 -0.3316 0.2402, 0.2758 -0.3358 0.2402, 0.2793 -0.3361 0.2402, 0.2676 -0.3361 0.2402, 0.2793 -0.2882 0.2402, 0.2749 -0.2988 0.2402, 0.2749 -0.303 0.2402, 0.2739 -0.3191 0.2402, 0.2739 -0.3149 0.2402, 0.2676 -0.303 0.2402, 0.2676 -0.3149 0.2402, 0.2606 -0.303 0.2402, 0.2606 -0.3149 0.2402, 0.2676 -0.3358 0.2402, 0.2558 -0.3358 0.2402, 0.2533 -0.3361 0.2402, 0.2558 -0.2988 0.2402, 0.2676 -0.2988 0.2402, 0.2676 -0.2882 0.2402, 0.1737 0.3937 0.2402, 0.1727 -0.2728 0.2402, 0.1727 -0.277 0.2402, 0.1532 -0.277 0.2402, 0.1532 -0.2399 0.2402, 0.158 -0.2728 0.2402, 0.158 -0.2399 0.2402, 0.1737 -0.2882 0.2402, 0.2828 -0.3358 0.2402, 0.2828 -0.2988 0.2402, 0.293 -0.3358 0.2402, 0.3859 -0.3361 0.2402, 0.3859 -0.2882 0.2402, 0.3342 -0.2988 0.2402, 0.3484 -0.3358 0.2402, 0.3431 -0.3358 0.2402, 0.3291 -0.2988 0.2402, 0.3123 -0.3116 0.2402, 0.3129 -0.3168 0.2402, 0.3128 -0.3191 0.2402, 0.315 -0.3358 0.2402, 0.3119 -0.3235 0.2402, 0.3101 -0.3273 0.2402, 0.3074 -0.3306 0.2402, 0.299 -0.3351 0.2402, 0.3203 -0.3358 0.2402, 0.3239 -0.3257 0.2402, 0.3393 -0.3257 0.2402, 0.3069 -0.3311 0.2402, 0.3033 -0.3335 0.2402, 0.3074 -0.3037 0.2402, 0.3086 -0.3049 0.2402, 0.3109 -0.3081 0.2402, 0.2933 -0.2988 0.2402, 0.299 -0.2994 0.2402, 0.3035 -0.301 0.2402, 0.1737 -0.3361 0.2402, 0.1532 -0.3358 0.2402, 0.1731 -0.3358 0.2402, 0.1731 -0.3316 0.2402, 0.1723 -0.303 0.2402, 0.1532 -0.2988 0.2402, 0.1723 -0.2988 0.2402, 0.158 -0.3191 0.2402, 0.158 -0.3316 0.2402, 0.1712 -0.3191 0.2402, 0.1712 -0.3149 0.2402, 0.158 -0.3149 0.2402, 0.158 -0.303 0.2402, 0.2676 -0.3508 0.2402, 0.2793 -0.3508 0.2402, 0.3859 -0.3508 0.2402, 0.1737 -0.3508 0.2402, 0.1737 -0.3937 0.2402, 0.1759 -0.3937 0.2402, 0.2073 -0.3937 0.2402, 0.2242 -0.3937 0.2402, 0.2328 -0.3937 0.2402, 0.2533 -0.3937 0.2402, 0.2676 -0.3937 0.2402, 0.2793 -0.3937 0.2402, 0.3859 -0.3937 0.2402, -0.4015 -0.3508 0.2402, -0.4015 -0.3937 0.2402, -0.3424 0.2461 0.0039, -0.3326 0.2697 0.0039, 0.0709 0.2461 0.0039, -0.1948 0.2697 0.0039, -0.0767 -0.3937 0.0039, -0.1948 -0.3937 0.0039, -0.0767 -0.2697 0.0039, -0.1948 -0.2697 0.0039, 0.3859 -0.3937 0.0039, 0.317 -0.3937 0.0039, 0.317 -0.2697 0.0039, 0.3859 0.3937 0.0039, 0.3524 0.1476 0.0039, 0.3524 -0.1476 0.0039, -0.3326 -0.3937 0.0039, -0.4015 -0.3937 0.0039, -0.3326 -0.2697 0.0039, -0.4015 0.3937 0.0039, 0.1792 -0.3937 0.0039, 0.0611 -0.3937 0.0039, 0.1792 -0.2697 0.0039, 0.0611 -0.2697 0.0039, 0.0611 0.3937 0.0039, 0.1792 0.3937 0.0039, 0.0611 0.2697 0.0039, 0.1792 0.2697 0.0039, -0.2637 -0.2461 0.0039, -0.3424 -0.1673 0.0039, -0.3326 0.3937 0.0039, 0.1831 -0.1476 0.0039, 0.0709 -0.2461 0.0039, 0.1831 0.1476 0.0039, 0.317 0.3937 0.0039, 0.317 0.2697 0.0039, -0.0767 0.2697 0.0039, -0.0767 0.3937 0.0039, -0.1948 0.3937 0.0039, -0.1948 -0.3937 0.063, 0.0611 -0.3937 0.063, 0.1792 -0.3937 0.063, -0.0767 -0.3937 0.063, -0.3326 -0.3937 0.063, 0.317 -0.3937 0.063, 0.1792 0.3937 0.063, 0.0611 0.3937 0.063, 0.317 0.3937 0.063, -0.0767 0.3937 0.063, -0.3326 0.3937 0.063, -0.1948 0.3937 0.063
            ]
        }
        coordIndex [
            0,1,2,-1,3,4,5,-1,6,7,8,-1,9,10,11,-1,12,13,11,-1,11,13,14,-1,11,14,15,-1,16,17,18,-1,15,19,11,-1,11,19,20,-1,11,20,9,-1,18,21,16,-1,16,21,22,-1,16,22,23,-1,24,25,16,-1,25,26,16,-1,16,26,27,-1,16,27,11,-1,11,27,28,-1,11,28,12,-1,23,29,16,-1,16,29,30,-1,16,30,24,-1,24,30,31,-1,24,31,32,-1,33,34,17,-1,17,34,35,-1,17,35,18,-1,36,37,38,-1,36,38,39,-1,37,40,38,-1,38,40,41,-1,38,41,42,-1,42,41,43,-1,42,43,44,-1,45,39,46,-1,46,39,38,-1,46,38,47,-1,47,38,48,-1,47,48,49,-1,49,48,50,-1,51,52,53,-1,52,54,53,-1,53,54,55,-1,53,55,56,-1,56,55,57,-1,56,57,48,-1,48,57,58,-1,48,58,50,-1,59,60,61,-1,61,60,62,-1,62,63,61,-1,61,63,64,-1,61,64,51,-1,65,66,67,-1,68,69,70,-1,71,72,73,-1,73,72,74,-1,73,74,75,-1,76,77,78,-1,78,77,79,-1,80,81,77,-1,77,81,82,-1,77,82,83,-1,65,67,84,-1,68,70,85,-1,66,86,67,-1,67,86,87,-1,67,87,88,-1,89,90,91,-1,91,90,92,-1,91,92,70,-1,70,92,93,-1,70,93,85,-1,94,83,95,-1,95,83,96,-1,95,96,73,-1,73,96,97,-1,73,97,71,-1,69,98,70,-1,70,98,99,-1,70,99,59,-1,59,99,100,-1,59,100,101,-1,101,102,59,-1,59,102,103,-1,59,103,104,-1,105,106,67,-1,67,106,107,-1,67,107,77,-1,77,107,108,-1,77,108,80,-1,94,109,83,-1,83,109,110,-1,83,110,77,-1,77,110,111,-1,77,111,79,-1,112,113,114,-1,114,113,115,-1,114,115,67,-1,67,115,116,-1,67,116,84,-1,88,117,67,-1,67,117,118,-1,67,118,119,-1,104,120,59,-1,59,120,121,-1,59,121,122,-1,122,121,112,-1,122,112,123,-1,123,112,114,-1,119,124,67,-1,67,124,125,-1,67,125,105,-1,126,127,128,-1,127,83,128,-1,128,83,82,-1,128,82,129,-1,129,82,130,-1,130,131,129,-1,129,131,132,-1,129,132,133,-1,134,135,136,-1,135,137,136,-1,136,137,138,-1,136,138,139,-1,140,136,141,-1,126,128,140,-1,140,128,142,-1,140,142,136,-1,136,142,143,-1,136,143,134,-1,141,144,140,-1,140,144,145,-1,140,145,146,-1,139,138,147,-1,147,138,148,-1,147,148,149,-1,149,148,150,-1,149,150,151,-1,152,153,146,-1,146,153,154,-1,146,154,140,-1,89,91,155,-1,155,91,156,-1,155,156,157,-1,158,159,160,-1,160,159,161,-1,160,161,162,-1,163,164,165,-1,159,166,161,-1,161,166,167,-1,161,167,168,-1,168,167,169,-1,168,169,170,-1,171,172,173,-1,173,172,174,-1,175,176,177,-1,177,176,178,-1,171,173,179,-1,179,173,175,-1,179,175,180,-1,181,182,183,-1,183,182,184,-1,183,184,185,-1,176,186,178,-1,178,186,187,-1,178,187,8,-1,8,187,188,-1,189,190,191,-1,183,180,181,-1,181,180,175,-1,181,175,192,-1,192,175,193,-1,192,193,194,-1,194,193,195,-1,194,195,188,-1,188,195,191,-1,188,191,8,-1,8,191,190,-1,8,190,196,-1,6,8,197,-1,198,199,196,-1,196,199,200,-1,196,200,8,-1,8,200,201,-1,8,201,197,-1,202,203,204,-1,204,203,205,-1,204,205,206,-1,206,207,204,-1,204,207,208,-1,204,208,191,-1,191,208,209,-1,191,209,189,-1,210,211,196,-1,196,211,212,-1,196,212,213,-1,213,214,196,-1,196,214,215,-1,196,215,198,-1,216,217,218,-1,218,217,219,-1,218,219,220,-1,216,221,217,-1,217,221,222,-1,217,222,223,-1,223,222,224,-1,223,224,225,-1,220,226,218,-1,218,226,227,-1,218,227,196,-1,196,227,228,-1,196,228,210,-1,229,230,231,-1,231,230,232,-1,233,234,204,-1,204,234,235,-1,204,235,202,-1,236,237,238,-1,237,239,238,-1,238,239,240,-1,238,240,241,-1,236,238,242,-1,242,238,243,-1,242,243,244,-1,244,243,245,-1,245,243,246,-1,245,246,7,-1,247,248,17,-1,17,248,42,-1,17,42,33,-1,33,42,44,-1,249,250,251,-1,250,249,252,-1,252,249,253,-1,252,253,254,-1,251,255,249,-1,249,255,256,-1,249,256,16,-1,16,256,257,-1,257,258,16,-1,16,258,259,-1,16,259,17,-1,17,259,260,-1,17,260,247,-1,261,262,253,-1,253,262,263,-1,253,263,254,-1,248,264,42,-1,42,264,265,-1,42,265,38,-1,38,265,266,-1,38,266,267,-1,267,268,38,-1,38,268,269,-1,38,269,270,-1,271,272,273,-1,273,272,274,-1,273,274,261,-1,261,274,275,-1,261,275,262,-1,276,277,273,-1,273,277,278,-1,273,278,271,-1,279,280,168,-1,168,280,281,-1,168,281,282,-1,283,284,285,-1,285,284,168,-1,285,168,286,-1,286,168,282,-1,287,288,289,-1,288,290,289,-1,289,290,291,-1,289,291,292,-1,165,164,293,-1,293,164,294,-1,293,294,170,-1,170,294,289,-1,170,289,168,-1,168,289,292,-1,168,292,279,-1,5,4,289,-1,289,4,295,-1,289,295,287,-1,283,296,284,-1,284,296,297,-1,284,297,177,-1,177,297,298,-1,177,298,299,-1,175,177,193,-1,193,177,299,-1,193,299,5,-1,5,299,300,-1,5,300,3,-1,301,302,303,-1,303,302,304,-1,305,306,307,-1,307,306,308,-1,309,310,301,-1,301,310,311,-1,312,313,314,-1,314,315,316,-1,311,317,301,-1,301,317,318,-1,301,318,302,-1,319,243,320,-1,320,243,321,-1,322,323,324,-1,313,325,314,-1,314,325,326,-1,314,326,315,-1,305,327,306,-1,306,327,328,-1,306,328,329,-1,329,328,324,-1,329,324,330,-1,330,324,323,-1,331,332,333,-1,333,332,334,-1,333,334,335,-1,316,336,314,-1,314,336,337,-1,314,337,243,-1,243,337,308,-1,243,308,321,-1,321,308,306,-1,319,338,243,-1,243,338,339,-1,243,339,340,-1,341,342,324,-1,324,342,343,-1,324,343,344,-1,345,346,347,-1,347,346,348,-1,347,348,335,-1,335,348,349,-1,335,349,333,-1,344,350,324,-1,324,350,351,-1,324,351,322,-1,352,353,354,-1,354,353,355,-1,354,355,356,-1,357,358,359,-1,359,358,360,-1,352,345,353,-1,353,345,347,-1,353,347,361,-1,361,347,303,-1,361,303,362,-1,362,303,304,-1,362,304,363,-1,363,304,364,-1,365,364,366,-1,366,364,304,-1,366,304,359,-1,359,304,302,-1,359,302,357,-1,367,368,2,-1,369,370,246,-1,331,333,340,-1,340,333,371,-1,340,371,243,-1,243,371,372,-1,243,372,246,-1,246,372,373,-1,246,373,369,-1,374,375,2,-1,2,375,376,-1,2,376,377,-1,370,378,246,-1,246,378,379,-1,246,379,380,-1,380,379,381,-1,380,381,367,-1,368,382,383,-1,383,384,368,-1,368,384,385,-1,368,385,2,-1,2,385,386,-1,2,386,374,-1,377,387,2,-1,2,387,388,-1,2,388,0,-1,389,390,391,-1,391,390,392,-1,391,392,393,-1,391,394,389,-1,389,394,395,-1,389,395,396,-1,396,397,389,-1,389,397,398,-1,389,398,399,-1,399,398,400,-1,399,400,401,-1,401,400,402,-1,401,402,368,-1,368,402,403,-1,368,403,382,-1,404,405,393,-1,393,405,406,-1,393,406,391,-1,407,408,356,-1,356,408,409,-1,356,409,354,-1,407,410,408,-1,408,410,411,-1,408,411,412,-1,412,411,413,-1,412,414,415,-1,413,416,412,-1,412,416,417,-1,412,417,418,-1,418,419,412,-1,412,419,420,-1,412,420,414,-1,415,421,412,-1,412,421,422,-1,412,422,423,-1,424,425,426,-1,427,428,429,-1,426,430,424,-1,424,430,431,-1,424,431,432,-1,432,431,427,-1,432,427,433,-1,433,427,429,-1,434,435,2,-1,2,435,436,-1,367,2,380,-1,380,2,436,-1,380,436,430,-1,430,436,437,-1,430,437,431,-1,438,435,439,-1,439,435,434,-1,439,434,440,-1,441,442,443,-1,365,366,1,-1,1,366,441,-1,1,441,2,-1,2,441,443,-1,2,443,434,-1,434,443,444,-1,434,444,445,-1,446,447,448,-1,448,447,449,-1,448,449,441,-1,441,449,450,-1,441,450,442,-1,445,451,434,-1,434,451,452,-1,434,452,453,-1,453,454,434,-1,434,454,455,-1,434,455,440,-1,456,457,448,-1,448,457,458,-1,448,458,446,-1,459,460,456,-1,456,460,461,-1,456,461,457,-1,462,463,464,-1,464,463,465,-1,466,467,468,-1,468,467,469,-1,470,471,472,-1,462,464,473,-1,473,464,466,-1,473,466,474,-1,472,475,476,-1,476,475,477,-1,476,477,478,-1,467,479,469,-1,469,479,480,-1,469,480,481,-1,481,480,482,-1,471,470,483,-1,483,470,484,-1,483,484,482,-1,482,484,426,-1,482,426,481,-1,481,426,425,-1,481,425,459,-1,233,204,232,-1,232,204,485,-1,232,485,231,-1,231,485,486,-1,231,486,487,-1,156,488,489,-1,490,486,491,-1,491,486,485,-1,491,485,489,-1,489,485,11,-1,489,11,156,-1,156,11,10,-1,156,10,157,-1,7,246,8,-1,8,246,380,-1,8,380,178,-1,178,380,430,-1,178,430,177,-1,177,430,426,-1,177,426,284,-1,284,426,484,-1,284,484,168,-1,168,484,470,-1,168,470,161,-1,487,488,231,-1,231,488,156,-1,231,156,492,-1,492,156,91,-1,493,494,470,-1,495,493,468,-1,468,493,470,-1,468,470,466,-1,466,470,472,-1,466,472,474,-1,474,472,476,-1,496,497,498,-1,498,499,496,-1,496,499,500,-1,496,500,468,-1,165,162,163,-1,163,162,161,-1,163,161,497,-1,497,161,470,-1,497,470,498,-1,498,470,501,-1,502,503,501,-1,501,503,504,-1,501,504,505,-1,504,506,505,-1,505,506,507,-1,505,507,508,-1,509,495,505,-1,505,495,468,-1,505,468,510,-1,510,468,500,-1,510,500,511,-1,511,500,512,-1,508,513,505,-1,505,513,514,-1,505,514,509,-1,515,516,501,-1,501,516,517,-1,501,517,502,-1,494,518,470,-1,470,518,519,-1,470,519,501,-1,501,519,520,-1,501,520,515,-1,241,229,238,-1,238,229,231,-1,238,231,243,-1,243,231,492,-1,243,492,314,-1,314,492,521,-1,70,521,522,-1,522,521,523,-1,523,521,524,-1,524,521,492,-1,524,492,525,-1,70,522,91,-1,91,522,526,-1,91,526,492,-1,492,526,527,-1,492,527,525,-1,528,529,530,-1,530,529,524,-1,530,524,531,-1,531,524,525,-1,531,525,532,-1,532,525,533,-1,459,456,481,-1,481,456,534,-1,481,534,469,-1,469,534,535,-1,469,535,468,-1,468,535,536,-1,468,536,496,-1,59,61,70,-1,70,61,537,-1,70,537,521,-1,521,537,359,-1,521,359,314,-1,314,359,360,-1,314,360,312,-1,51,53,61,-1,61,53,538,-1,61,538,537,-1,537,538,539,-1,537,539,359,-1,359,539,540,-1,359,540,366,-1,366,540,541,-1,366,541,441,-1,441,541,542,-1,441,542,448,-1,448,542,543,-1,448,543,456,-1,456,543,544,-1,456,544,534,-1,534,544,545,-1,534,545,535,-1,535,545,546,-1,535,546,536,-1,270,276,38,-1,38,276,273,-1,38,273,48,-1,48,273,547,-1,48,547,56,-1,56,547,548,-1,549,550,551,-1,551,550,552,-1,553,554,555,-1,555,554,556,-1,557,558,559,-1,560,557,561,-1,561,557,562,-1,563,564,565,-1,565,564,566,-1,567,568,569,-1,569,568,570,-1,571,572,573,-1,573,572,574,-1,575,565,576,-1,576,565,566,-1,576,566,549,-1,549,566,577,-1,549,577,550,-1,578,579,580,-1,580,579,551,-1,557,559,562,-1,562,559,569,-1,562,569,578,-1,578,569,570,-1,578,570,579,-1,579,570,555,-1,579,555,575,-1,575,555,556,-1,575,556,565,-1,581,560,582,-1,582,560,561,-1,582,561,574,-1,574,561,580,-1,574,580,573,-1,573,580,551,-1,573,551,583,-1,583,551,552,-1,583,552,584,-1,584,552,585,-1,586,554,553,-1,548,564,563,-1,568,567,587,-1,587,567,588,-1,553,589,586,-1,586,589,548,-1,586,548,590,-1,590,548,563,-1,558,557,591,-1,591,557,546,-1,591,546,588,-1,588,546,548,-1,588,548,587,-1,587,548,589,-1,164,546,560,-1,560,546,557,-1,164,560,581,-1,572,571,592,-1,592,571,593,-1,581,594,164,-1,164,594,592,-1,164,592,249,-1,249,592,593,-1,249,593,595,-1,577,566,596,-1,596,566,249,-1,596,249,597,-1,597,249,595,-1,597,595,585,-1,585,595,584,-1,548,249,564,-1,564,249,566,-1,
        ]
    }
}
Shape{
    appearance Appearance {
        material  Material 	{
            diffuseColor 0.6666666666666666 0.6980392156862745 0.7686274509803922
            specularColor 0.3333333333333333 0.34901960784313724 0.3843137254901961
            ambientIntensity 0.6967
            transparency 0.0
            shininess 0.5
        }
    }
    geometry IndexedFaceSet {
        ccw TRUE
        solid FALSE
        coord DEF co Coordinate {
            point [
                0.317 0.3976 0.063, 0.1792 0.3976 0.063, 0.317 0.3937 0.063, 0.1792 0.3937 0.063, 0.1792 0.3937 0.0039, 0.1792 0.3976 0.0, 0.1792 0.2697 0.0039, 0.1792 0.2697 0.0, 0.317 0.2697 0.0, 0.317 0.2697 0.0039, 0.317 0.3937 0.0039, 0.317 0.3976 0.0, 0.0611 0.3976 0.063, -0.0767 0.3976 0.063, 0.0611 0.3937 0.063, -0.0767 0.3937 0.063, -0.0767 0.3937 0.0039, -0.0767 0.3976 0.0, -0.0767 0.2697 0.0039, -0.0767 0.2697 0.0, 0.0611 0.2697 0.0, 0.0611 0.2697 0.0039, 0.0611 0.3937 0.0039, 0.0611 0.3976 0.0, -0.1948 0.3976 0.063, -0.3326 0.3976 0.063, -0.1948 0.3937 0.063, -0.3326 0.3937 0.063, -0.3326 0.3937 0.0039, -0.3326 0.3976 0.0, -0.3326 0.2697 0.0039, -0.3326 0.2697 0.0, -0.1948 0.2697 0.0, -0.1948 0.2697 0.0039, -0.1948 0.3937 0.0039, -0.1948 0.3976 0.0, 0.1792 -0.3976 0.063, 0.317 -0.3976 0.063, 0.1792 -0.3937 0.063, 0.317 -0.3937 0.063, 0.1792 -0.2697 0.0039, 0.1792 -0.2697 0.0, 0.1792 -0.3937 0.0039, 0.1792 -0.3976 0.0, 0.317 -0.3937 0.0039, 0.317 -0.3976 0.0, 0.317 -0.2697 0.0039, 0.317 -0.2697 0.0, -0.0767 -0.3976 0.063, 0.0611 -0.3976 0.063, -0.0767 -0.3937 0.063, 0.0611 -0.3937 0.063, -0.0767 -0.2697 0.0039, -0.0767 -0.2697 0.0, -0.0767 -0.3937 0.0039, -0.0767 -0.3976 0.0, 0.0611 -0.3937 0.0039, 0.0611 -0.3976 0.0, 0.0611 -0.2697 0.0039, 0.0611 -0.2697 0.0, -0.3326 -0.3976 0.063, -0.1948 -0.3976 0.063, -0.3326 -0.3937 0.063, -0.1948 -0.3937 0.063, -0.3326 -0.2697 0.0039, -0.3326 -0.2697 0.0, -0.3326 -0.3937 0.0039, -0.3326 -0.3976 0.0, -0.1948 -0.3937 0.0039, -0.1948 -0.3976 0.0, -0.1948 -0.2697 0.0039, -0.1948 -0.2697 0.0, 0.3524 -0.1476 0.0, 0.3524 -0.1476 0.0039, 0.1831 -0.1476 0.0, 0.1831 -0.1476 0.0039, 0.3524 0.1476 0.0, 0.3524 0.1476 0.0039, 0.1831 0.1476 0.0, 0.1831 0.1476 0.0039, -0.3424 0.2461 0.0, -0.3424 0.2461 0.0039, 0.0709 0.2461 0.0, 0.0709 0.2461 0.0039, -0.3424 -0.1673 0.0039, -0.3424 -0.1673 0.0, -0.2637 -0.2461 0.0, 0.0709 -0.2461 0.0, -0.2637 -0.2461 0.0039, 0.0709 -0.2461 0.0039
            ]
        }
        coordIndex [
            0,1,2,-1,2,1,3,-1,3,1,4,-1,4,1,5,-1,4,5,6,-1,6,5,7,-1,7,8,6,-1,6,8,9,-1,9,8,10,-1,10,8,11,-1,10,11,2,-1,2,11,0,-1,5,1,11,-1,11,1,0,-1,11,8,5,-1,5,8,7,-1,12,13,14,-1,14,13,15,-1,15,13,16,-1,16,13,17,-1,16,17,18,-1,18,17,19,-1,19,20,18,-1,18,20,21,-1,21,20,22,-1,22,20,23,-1,22,23,14,-1,14,23,12,-1,17,13,23,-1,23,13,12,-1,23,20,17,-1,17,20,19,-1,24,25,26,-1,26,25,27,-1,27,25,28,-1,28,25,29,-1,28,29,30,-1,30,29,31,-1,31,32,30,-1,30,32,33,-1,33,32,34,-1,34,32,35,-1,34,35,26,-1,26,35,24,-1,29,25,35,-1,35,25,24,-1,35,32,29,-1,29,32,31,-1,36,37,38,-1,38,37,39,-1,40,41,42,-1,42,41,43,-1,42,43,38,-1,38,43,36,-1,39,37,44,-1,44,37,45,-1,44,45,46,-1,46,45,47,-1,46,47,40,-1,40,47,41,-1,45,37,43,-1,43,37,36,-1,47,45,41,-1,41,45,43,-1,48,49,50,-1,50,49,51,-1,52,53,54,-1,54,53,55,-1,54,55,50,-1,50,55,48,-1,51,49,56,-1,56,49,57,-1,56,57,58,-1,58,57,59,-1,58,59,52,-1,52,59,53,-1,57,49,55,-1,55,49,48,-1,59,57,53,-1,53,57,55,-1,60,61,62,-1,62,61,63,-1,64,65,66,-1,66,65,67,-1,66,67,62,-1,62,67,60,-1,63,61,68,-1,68,61,69,-1,68,69,70,-1,70,69,71,-1,70,71,64,-1,64,71,65,-1,69,61,67,-1,67,61,60,-1,71,69,65,-1,65,69,67,-1,72,73,74,-1,74,73,75,-1,76,77,72,-1,72,77,73,-1,78,79,76,-1,76,79,77,-1,74,75,78,-1,78,75,79,-1,72,74,76,-1,76,74,78,-1,80,81,82,-1,82,81,83,-1,84,81,85,-1,85,81,80,-1,86,87,88,-1,88,87,89,-1,82,83,87,-1,87,83,89,-1,85,80,86,-1,86,80,82,-1,86,82,87,-1,88,84,86,-1,86,84,85,-1,
        ]
    }
}
Shape{
    appearance Appearance {
        material  Material 	{
            diffuseColor 1.0 1.0 1.0
            specularColor 0.5019607843137255 0.5019607843137255 0.5019607843137255
            ambientIntensity 1.0
            transparency 0.0
            shininess 0.5
        }
    }
    geometry IndexedFaceSet {
        ccw TRUE
        solid FALSE
        coord DEF co Coordinate {
            point [
                -0.262 -0.285 0.2362, -0.262 -0.285 0.2402, -0.2634 -0.275 0.2362, -0.2634 -0.275 0.2402, -0.2672 -0.2656 0.2362, -0.2672 -0.2656 0.2402, -0.2734 -0.2576 0.2362, -0.2734 -0.2576 0.2402, -0.2814 -0.2514 0.2362, -0.2814 -0.2514 0.2402, -0.2908 -0.2476 0.2362, -0.2908 -0.2476 0.2402, -0.3008 -0.2462 0.2362, -0.3008 -0.2462 0.2402, -0.3109 -0.2476 0.2362, -0.3109 -0.2476 0.2402, -0.3202 -0.2514 0.2362, -0.3202 -0.2514 0.2402, -0.3283 -0.2576 0.2362, -0.3283 -0.2576 0.2402, -0.3344 -0.2656 0.2362, -0.3344 -0.2656 0.2402, -0.3383 -0.275 0.2362, -0.3383 -0.275 0.2402, -0.3396 -0.285 0.2362, -0.3396 -0.285 0.2402, -0.3383 -0.2951 0.2362, -0.3383 -0.2951 0.2402, -0.3344 -0.3044 0.2362, -0.3344 -0.3044 0.2402, -0.3283 -0.3125 0.2362, -0.3283 -0.3125 0.2402, -0.3202 -0.3186 0.2362, -0.3202 -0.3186 0.2402, -0.3109 -0.3225 0.2362, -0.3109 -0.3225 0.2402, -0.3008 -0.3238 0.2362, -0.3008 -0.3238 0.2402, -0.2908 -0.3225 0.2362, -0.2908 -0.3225 0.2402, -0.2814 -0.3186 0.2362, -0.2814 -0.3186 0.2402, -0.2734 -0.3125 0.2362, -0.2734 -0.3125 0.2402, -0.2672 -0.3044 0.2362, -0.2672 -0.3044 0.2402, -0.2634 -0.2951 0.2362, -0.2634 -0.2951 0.2402, -0.3008 -0.285 0.2362, 0.1727 -0.2728 0.2441, 0.1727 -0.277 0.2441, 0.1727 -0.2728 0.2402, 0.1727 -0.277 0.2402, 0.158 -0.2728 0.2441, 0.158 -0.2728 0.2402, 0.158 -0.2399 0.2441, 0.158 -0.2399 0.2402, 0.1532 -0.2399 0.2441, 0.1532 -0.2399 0.2402, 0.1532 -0.277 0.2441, 0.1532 -0.277 0.2402, 0.1917 -0.2776 0.2441, 0.1917 -0.2776 0.2402, 0.1974 -0.2771 0.2441, 0.195 -0.2773 0.2402, 0.1974 -0.2771 0.2402, 0.2014 -0.2758 0.2402, 0.2014 -0.2758 0.2441, 0.202 -0.2755 0.2402, 0.202 -0.2755 0.2441, 0.202 -0.2709 0.2441, 0.202 -0.2709 0.2402, 0.1984 -0.2725 0.2402, 0.1984 -0.2725 0.2441, 0.1942 -0.2733 0.2402, 0.1942 -0.2733 0.2441, 0.1924 -0.2734 0.2402, 0.1924 -0.2734 0.2441, 0.1886 -0.2729 0.2402, 0.1886 -0.2729 0.2441, 0.186 -0.2719 0.2402, 0.186 -0.2719 0.2441, 0.1836 -0.2702 0.2402, 0.1836 -0.2702 0.2441, 0.1829 -0.2695 0.2402, 0.1829 -0.2695 0.2441, 0.1811 -0.267 0.2402, 0.1811 -0.267 0.2441, 0.1799 -0.264 0.2402, 0.1799 -0.264 0.2441, 0.1793 -0.2603 0.2402, 0.1793 -0.2603 0.2441, 0.1793 -0.2589 0.2402, 0.1793 -0.2589 0.2441, 0.1798 -0.2542 0.2402, 0.1798 -0.2542 0.2441, 0.1809 -0.2509 0.2402, 0.1809 -0.2509 0.2441, 0.1827 -0.2483 0.2402, 0.1827 -0.2483 0.2441, 0.1832 -0.2478 0.2402, 0.1832 -0.2478 0.2441, 0.1857 -0.2457 0.2402, 0.1857 -0.2457 0.2441, 0.1886 -0.2443 0.2402, 0.1886 -0.2443 0.2441, 0.1918 -0.2437 0.2402, 0.1918 -0.2437 0.2441, 0.1933 -0.2436 0.2402, 0.1933 -0.2436 0.2441, 0.1978 -0.2442 0.2402, 0.1978 -0.2442 0.2441, 0.2016 -0.2456 0.2402, 0.2016 -0.2456 0.2441, 0.202 -0.2458 0.2402, 0.202 -0.2458 0.2441, 0.202 -0.2408 0.2441, 0.202 -0.2408 0.2402, 0.1982 -0.2397 0.2402, 0.1982 -0.2397 0.2441, 0.1934 -0.2393 0.2402, 0.1934 -0.2393 0.2441, 0.1932 -0.2393 0.2402, 0.1932 -0.2393 0.2441, 0.1878 -0.24 0.2402, 0.1878 -0.24 0.2441, 0.1839 -0.2415 0.2402, 0.1839 -0.2415 0.2441, 0.1804 -0.244 0.2402, 0.1804 -0.244 0.2441, 0.1796 -0.2448 0.2402, 0.1796 -0.2448 0.2441, 0.1769 -0.2483 0.2402, 0.1769 -0.2483 0.2441, 0.1759 -0.2506 0.2402, 0.1751 -0.2524 0.2441, 0.1751 -0.2524 0.2402, 0.1743 -0.2573 0.2402, 0.1743 -0.2573 0.2441, 0.1742 -0.2592 0.2402, 0.1742 -0.2592 0.2441, 0.1749 -0.2651 0.2402, 0.1749 -0.2651 0.2441, 0.1759 -0.2676 0.2402, 0.1764 -0.269 0.2441, 0.1764 -0.269 0.2402, 0.1786 -0.2722 0.2402, 0.1786 -0.2722 0.2441, 0.179 -0.2726 0.2402, 0.179 -0.2726 0.2441, 0.1895 -0.2775 0.2441, 0.182 -0.2751 0.2402, 0.182 -0.2751 0.2441, 0.1855 -0.2767 0.2402, 0.1855 -0.2767 0.2441, 0.1885 -0.2773 0.2402, 0.1895 -0.2775 0.2402, 0.2293 -0.2728 0.2441, 0.2293 -0.277 0.2441, 0.2293 -0.2728 0.2402, 0.2293 -0.277 0.2402, 0.2142 -0.2728 0.2402, 0.2142 -0.2728 0.2441, 0.2242 -0.2728 0.2402, 0.2142 -0.2603 0.2441, 0.2142 -0.2603 0.2402, 0.2275 -0.2603 0.2441, 0.2242 -0.2603 0.2402, 0.2275 -0.2603 0.2402, 0.2275 -0.2561 0.2441, 0.2275 -0.2561 0.2402, 0.2142 -0.2561 0.2402, 0.2142 -0.2561 0.2441, 0.2242 -0.2561 0.2402, 0.2142 -0.2442 0.2441, 0.2142 -0.2442 0.2402, 0.2285 -0.2442 0.2441, 0.2242 -0.2442 0.2402, 0.2285 -0.2442 0.2402, 0.2285 -0.2399 0.2441, 0.2285 -0.2399 0.2402, 0.2094 -0.2399 0.2402, 0.2094 -0.2399 0.2441, 0.2242 -0.2399 0.2402, 0.2094 -0.277 0.2441, 0.2094 -0.277 0.2402, 0.2242 -0.277 0.2402, 0.2587 -0.2489 0.2441, 0.2622 -0.2461 0.2441, 0.2574 -0.2477 0.2441, 0.2609 -0.2449 0.2441, 0.2547 -0.2459 0.2441, 0.257 -0.2422 0.2441, 0.2515 -0.2447 0.2441, 0.2526 -0.2406 0.2441, 0.2467 -0.2442 0.2441, 0.2469 -0.2399 0.2441, 0.2411 -0.2442 0.2441, 0.2363 -0.2399 0.2441, 0.2411 -0.2728 0.2441, 0.2363 -0.277 0.2441, 0.2465 -0.2728 0.2441, 0.2465 -0.277 0.2441, 0.2512 -0.2723 0.2441, 0.2526 -0.2763 0.2441, 0.2544 -0.2712 0.2441, 0.2569 -0.2747 0.2441, 0.2568 -0.2695 0.2441, 0.2605 -0.2723 0.2441, 0.2575 -0.2689 0.2441, 0.2609 -0.2718 0.2441, 0.2594 -0.2666 0.2441, 0.2637 -0.2685 0.2441, 0.2607 -0.2639 0.2441, 0.2655 -0.2647 0.2441, 0.2614 -0.2605 0.2441, 0.2664 -0.2603 0.2441, 0.2615 -0.2581 0.2441, 0.2665 -0.258 0.2441, 0.261 -0.2539 0.2441, 0.2659 -0.2528 0.2441, 0.26 -0.2511 0.2441, 0.2645 -0.2493 0.2441, 0.2465 -0.277 0.2402, 0.2363 -0.277 0.2402, 0.2526 -0.2763 0.2402, 0.2533 -0.276 0.2402, 0.2569 -0.2747 0.2402, 0.2605 -0.2723 0.2402, 0.2609 -0.2718 0.2402, 0.2637 -0.2685 0.2402, 0.2655 -0.2647 0.2402, 0.2664 -0.2603 0.2402, 0.2665 -0.258 0.2402, 0.2659 -0.2528 0.2402, 0.2645 -0.2493 0.2402, 0.2622 -0.2461 0.2402, 0.2609 -0.2449 0.2402, 0.2469 -0.2399 0.2402, 0.257 -0.2422 0.2402, 0.2533 -0.2408 0.2402, 0.2526 -0.2406 0.2402, 0.2363 -0.2399 0.2402, 0.2467 -0.2442 0.2402, 0.2411 -0.2442 0.2402, 0.2411 -0.2728 0.2402, 0.2465 -0.2728 0.2402, 0.2575 -0.2689 0.2402, 0.2568 -0.2695 0.2402, 0.2544 -0.2712 0.2402, 0.2512 -0.2723 0.2402, 0.2615 -0.2581 0.2402, 0.2614 -0.2605 0.2402, 0.2607 -0.2639 0.2402, 0.2594 -0.2666 0.2402, 0.2574 -0.2477 0.2402, 0.2587 -0.2489 0.2402, 0.26 -0.2511 0.2402, 0.261 -0.2539 0.2402, 0.2515 -0.2447 0.2402, 0.2547 -0.2459 0.2402
            ]
        }
        coordIndex [
            0,1,2,-1,2,1,3,-1,2,3,4,-1,4,3,5,-1,4,5,6,-1,6,5,7,-1,6,7,8,-1,8,7,9,-1,8,9,10,-1,10,9,11,-1,10,11,12,-1,12,11,13,-1,12,13,14,-1,14,13,15,-1,14,15,16,-1,16,15,17,-1,16,17,18,-1,18,17,19,-1,18,19,20,-1,20,19,21,-1,20,21,22,-1,22,21,23,-1,22,23,24,-1,24,23,25,-1,24,25,26,-1,26,25,27,-1,26,27,28,-1,28,27,29,-1,28,29,30,-1,30,29,31,-1,30,31,32,-1,32,31,33,-1,32,33,34,-1,34,33,35,-1,34,35,36,-1,36,35,37,-1,36,37,38,-1,38,37,39,-1,38,39,40,-1,40,39,41,-1,40,41,42,-1,42,41,43,-1,42,43,44,-1,44,43,45,-1,44,45,46,-1,46,45,47,-1,46,47,0,-1,0,47,1,-1,44,46,48,-1,48,46,0,-1,48,0,2,-1,38,40,48,-1,48,40,42,-1,48,42,44,-1,32,34,48,-1,48,34,36,-1,48,36,38,-1,26,28,48,-1,48,28,30,-1,48,30,32,-1,20,22,48,-1,48,22,24,-1,48,24,26,-1,14,16,48,-1,48,16,18,-1,48,18,20,-1,8,10,48,-1,48,10,12,-1,48,12,14,-1,2,4,48,-1,48,4,6,-1,48,6,8,-1,49,50,51,-1,51,50,52,-1,53,49,54,-1,54,49,51,-1,55,53,56,-1,56,53,54,-1,57,55,58,-1,58,55,56,-1,59,57,60,-1,60,57,58,-1,50,59,52,-1,52,59,60,-1,55,57,53,-1,53,57,59,-1,53,59,49,-1,49,59,50,-1,61,62,63,-1,63,62,64,-1,64,65,63,-1,63,65,66,-1,63,66,67,-1,67,66,68,-1,67,68,69,-1,70,69,71,-1,71,69,68,-1,70,71,72,-1,70,72,73,-1,73,72,74,-1,73,74,75,-1,75,74,76,-1,75,76,77,-1,77,76,78,-1,77,78,79,-1,79,78,80,-1,79,80,81,-1,81,80,82,-1,81,82,83,-1,83,82,84,-1,83,84,85,-1,85,84,86,-1,85,86,87,-1,87,86,88,-1,87,88,89,-1,89,88,90,-1,89,90,91,-1,91,90,92,-1,91,92,93,-1,93,92,94,-1,93,94,95,-1,95,94,96,-1,95,96,97,-1,97,96,98,-1,97,98,99,-1,99,98,100,-1,99,100,101,-1,101,100,102,-1,101,102,103,-1,103,102,104,-1,103,104,105,-1,105,104,106,-1,105,106,107,-1,107,106,108,-1,107,108,109,-1,109,108,110,-1,109,110,111,-1,111,110,112,-1,111,112,113,-1,113,112,114,-1,113,114,115,-1,116,115,117,-1,117,115,114,-1,116,117,118,-1,116,118,119,-1,119,118,120,-1,119,120,121,-1,121,120,122,-1,121,122,123,-1,123,122,124,-1,123,124,125,-1,125,124,126,-1,125,126,127,-1,127,126,128,-1,127,128,129,-1,129,128,130,-1,129,130,131,-1,131,130,132,-1,131,132,133,-1,133,132,134,-1,133,134,135,-1,134,136,135,-1,135,136,137,-1,135,137,138,-1,138,137,139,-1,138,139,140,-1,140,139,141,-1,140,141,142,-1,142,141,143,-1,142,143,144,-1,143,145,144,-1,144,145,146,-1,144,146,147,-1,147,146,148,-1,147,148,149,-1,62,61,150,-1,149,148,151,-1,149,151,152,-1,152,151,153,-1,152,153,154,-1,154,153,155,-1,154,155,150,-1,150,155,156,-1,150,156,62,-1,113,115,116,-1,95,97,133,-1,113,116,111,-1,111,116,119,-1,111,119,109,-1,109,119,121,-1,109,121,107,-1,107,121,123,-1,107,123,105,-1,105,123,125,-1,105,125,103,-1,69,70,67,-1,67,70,73,-1,67,73,63,-1,63,73,75,-1,63,75,61,-1,61,75,77,-1,61,77,150,-1,150,77,79,-1,150,79,154,-1,154,79,81,-1,154,81,152,-1,152,81,83,-1,152,83,149,-1,149,83,85,-1,149,85,147,-1,147,85,87,-1,147,87,144,-1,133,97,131,-1,125,127,103,-1,103,127,129,-1,103,129,101,-1,101,129,131,-1,101,131,99,-1,99,131,97,-1,140,93,138,-1,138,93,95,-1,138,95,135,-1,135,95,133,-1,144,87,142,-1,142,87,89,-1,142,89,140,-1,140,89,91,-1,140,91,93,-1,157,158,159,-1,159,158,160,-1,161,162,163,-1,163,162,157,-1,163,157,159,-1,164,162,165,-1,165,162,161,-1,164,165,166,-1,166,165,167,-1,166,167,168,-1,169,166,170,-1,170,166,168,-1,171,172,173,-1,173,172,169,-1,173,169,170,-1,174,172,175,-1,175,172,171,-1,174,175,176,-1,176,175,177,-1,176,177,178,-1,179,176,180,-1,180,176,178,-1,181,182,183,-1,183,182,179,-1,183,179,180,-1,184,182,185,-1,185,182,181,-1,184,185,158,-1,158,185,186,-1,158,186,160,-1,184,158,157,-1,157,162,184,-1,184,162,164,-1,184,164,182,-1,176,179,174,-1,174,179,182,-1,174,182,172,-1,172,182,164,-1,172,164,169,-1,169,164,166,-1,187,188,189,-1,189,188,190,-1,189,190,191,-1,191,190,192,-1,191,192,193,-1,193,192,194,-1,193,194,195,-1,195,194,196,-1,195,196,197,-1,197,196,198,-1,197,198,199,-1,199,198,200,-1,199,200,201,-1,201,200,202,-1,201,202,203,-1,203,202,204,-1,203,204,205,-1,205,204,206,-1,205,206,207,-1,207,206,208,-1,207,208,209,-1,209,208,210,-1,209,210,211,-1,211,210,212,-1,211,212,213,-1,213,212,214,-1,213,214,215,-1,215,214,216,-1,215,216,217,-1,217,216,218,-1,217,218,219,-1,219,218,220,-1,219,220,221,-1,221,220,222,-1,221,222,187,-1,187,222,188,-1,202,200,223,-1,223,200,224,-1,202,223,225,-1,202,225,204,-1,204,225,226,-1,204,226,206,-1,226,227,206,-1,206,227,228,-1,206,228,208,-1,208,228,229,-1,208,229,210,-1,210,229,230,-1,210,230,212,-1,212,230,231,-1,212,231,214,-1,214,231,232,-1,214,232,216,-1,216,232,233,-1,216,233,218,-1,218,233,234,-1,218,234,220,-1,220,234,235,-1,220,235,222,-1,222,235,236,-1,222,236,188,-1,188,236,237,-1,188,237,190,-1,238,196,194,-1,190,237,239,-1,190,239,192,-1,192,239,240,-1,192,240,194,-1,194,240,241,-1,194,241,238,-1,198,196,242,-1,242,196,238,-1,200,198,224,-1,224,198,242,-1,195,197,243,-1,243,197,244,-1,197,199,244,-1,244,199,245,-1,199,201,245,-1,245,201,246,-1,209,247,248,-1,209,248,207,-1,207,248,249,-1,207,249,205,-1,205,249,250,-1,205,250,203,-1,203,250,246,-1,203,246,201,-1,217,251,252,-1,217,252,215,-1,215,252,253,-1,215,253,213,-1,213,253,254,-1,213,254,211,-1,211,254,247,-1,211,247,209,-1,189,255,256,-1,189,256,187,-1,187,256,257,-1,187,257,221,-1,221,257,258,-1,221,258,219,-1,219,258,251,-1,219,251,217,-1,195,243,259,-1,195,259,193,-1,193,259,260,-1,193,260,191,-1,191,260,255,-1,191,255,189,-1,
        ]
    }
}
Shape{
    appearance Appearance {
        material  Material 	{
            diffuseColor 0.2235294117647059 0.2235294117647059 0.2235294117647059
            specularColor 0.11372549019607843 0.11372549019607843 0.11372549019607843
            ambientIntensity 0.2235
            transparency 0.0
            shininess 0.5
        }
    }
    geometry IndexedFaceSet {
        ccw TRUE
        solid FALSE
        coord DEF co Coordinate {
            point [
                0.2411 -0.2442 0.2402, 0.2411 -0.2728 0.2402, 0.2467 -0.2442 0.2402, 0.2465 -0.2728 0.2402, 0.2512 -0.2723 0.2402, 0.2544 -0.2712 0.2402, 0.2568 -0.2695 0.2402, 0.2575 -0.2689 0.2402, 0.2594 -0.2666 0.2402, 0.2607 -0.2639 0.2402, 0.2614 -0.2605 0.2402, 0.2615 -0.2581 0.2402, 0.261 -0.2539 0.2402, 0.26 -0.2511 0.2402, 0.2587 -0.2489 0.2402, 0.2574 -0.2477 0.2402, 0.2515 -0.2447 0.2402, 0.2547 -0.2459 0.2402
            ]
        }
        coordIndex [
            0,1,2,-1,2,1,3,-1,2,3,4,-1,4,5,2,-1,2,5,6,-1,2,6,7,-1,7,8,2,-1,2,8,9,-1,2,9,10,-1,10,11,2,-1,2,11,12,-1,2,12,13,-1,13,14,2,-1,2,14,15,-1,2,15,16,-1,16,15,17,-1,
        ]
    }
}
Shape{
    appearance Appearance {
        material  Material 	{
            diffuseColor 1.0 1.0 1.0
            specularColor 0.5019607843137255 0.5019607843137255 0.5019607843137255
            ambientIntensity 1.0
            transparency 0.0
            shininess 0.5
        }
    }
    geometry IndexedFaceSet {
        ccw TRUE
        solid FALSE
        coord DEF co Coordinate {
            point [
                0.279 -0.2627 0.2441, 0.2774 -0.2669 0.2441, 0.2914 -0.2627 0.2441, 0.2929 -0.2669 0.2441, 0.2845 -0.2473 0.2441, 0.2827 -0.2399 0.2441, 0.2686 -0.277 0.2441, 0.2739 -0.277 0.2441, 0.2848 -0.2462 0.2441, 0.2851 -0.2447 0.2441, 0.2878 -0.2399 0.2441, 0.2852 -0.2447 0.2441, 0.2855 -0.2463 0.2441, 0.2858 -0.2473 0.2441, 0.3019 -0.277 0.2441, 0.2967 -0.277 0.2441, 0.2878 -0.2399 0.2402, 0.3019 -0.277 0.2402, 0.2827 -0.2399 0.2402, 0.2686 -0.277 0.2402, 0.2793 -0.249 0.2402, 0.2739 -0.277 0.2402, 0.2774 -0.2669 0.2402, 0.2929 -0.2669 0.2402, 0.2793 -0.2669 0.2402, 0.2967 -0.277 0.2402, 0.279 -0.2627 0.2402, 0.2914 -0.2627 0.2402, 0.2858 -0.2473 0.2402, 0.2852 -0.2447 0.2402, 0.2855 -0.2463 0.2402, 0.2851 -0.2447 0.2402, 0.2845 -0.2473 0.2402, 0.2848 -0.2462 0.2402
            ]
        }
        coordIndex [
            0,1,2,-1,2,1,3,-1,4,5,0,-1,0,5,6,-1,0,6,1,-1,1,6,7,-1,4,8,5,-1,5,8,9,-1,5,9,10,-1,10,9,11,-1,10,11,12,-1,12,13,10,-1,10,13,2,-1,10,2,14,-1,14,2,3,-1,14,3,15,-1,10,14,16,-1,16,14,17,-1,5,10,18,-1,18,10,16,-1,19,6,20,-1,20,6,5,-1,20,5,18,-1,7,6,21,-1,21,6,19,-1,1,7,22,-1,22,7,21,-1,23,3,24,-1,24,3,1,-1,24,1,22,-1,15,3,25,-1,25,3,23,-1,14,15,17,-1,17,15,25,-1,0,2,26,-1,26,2,27,-1,2,13,27,-1,27,13,28,-1,11,29,30,-1,11,30,12,-1,12,30,28,-1,12,28,13,-1,11,9,29,-1,29,9,31,-1,4,32,33,-1,4,33,8,-1,8,33,31,-1,8,31,9,-1,4,0,32,-1,32,0,26,-1,
        ]
    }
}
Shape{
    appearance Appearance {
        material  Material 	{
            diffuseColor 0.2235294117647059 0.2235294117647059 0.2235294117647059
            specularColor 0.11372549019607843 0.11372549019607843 0.11372549019607843
            ambientIntensity 0.2235
            transparency 0.0
            shininess 0.5
        }
    }
    geometry IndexedFaceSet {
        ccw TRUE
        solid FALSE
        coord DEF co Coordinate {
            point [
                0.2852 -0.2447 0.2402, 0.2851 -0.2447 0.2402, 0.2855 -0.2463 0.2402, 0.2848 -0.2462 0.2402, 0.2858 -0.2473 0.2402, 0.2845 -0.2473 0.2402, 0.2914 -0.2627 0.2402, 0.279 -0.2627 0.2402
            ]
        }
        coordIndex [
            0,1,2,-1,2,1,3,-1,2,3,4,-1,4,3,5,-1,4,5,6,-1,6,5,7,-1,
        ]
    }
}
Shape{
    appearance Appearance {
        material  Material 	{
            diffuseColor 1.0 1.0 1.0
            specularColor 0.5019607843137255 0.5019607843137255 0.5019607843137255
            ambientIntensity 1.0
            transparency 0.0
            shininess 0.5
        }
    }
    geometry IndexedFaceSet {
        ccw TRUE
        solid FALSE
        coord DEF co Coordinate {
            point [
                0.1731 -0.3316 0.2441, 0.1731 -0.3358 0.2441, 0.1731 -0.3316 0.2402, 0.1731 -0.3358 0.2402, 0.158 -0.3316 0.2441, 0.158 -0.3316 0.2402, 0.158 -0.3191 0.2441, 0.158 -0.3191 0.2402, 0.1712 -0.3191 0.2441, 0.1712 -0.3191 0.2402, 0.1712 -0.3149 0.2441, 0.1712 -0.3149 0.2402, 0.158 -0.3149 0.2441, 0.158 -0.3149 0.2402, 0.158 -0.303 0.2441, 0.158 -0.303 0.2402, 0.1723 -0.303 0.2441, 0.1723 -0.303 0.2402, 0.1723 -0.2988 0.2441, 0.1723 -0.2988 0.2402, 0.1532 -0.2988 0.2441, 0.1532 -0.2988 0.2402, 0.1532 -0.3358 0.2441, 0.1532 -0.3358 0.2402, 0.1942 -0.3358 0.2441, 0.1988 -0.3358 0.2441, 0.1942 -0.3317 0.2441, 0.1988 -0.3188 0.2441, 0.1942 -0.319 0.2441, 0.1841 -0.3245 0.2441, 0.1852 -0.324 0.2441, 0.188 -0.3234 0.2441, 0.1942 -0.3225 0.2441, 0.1942 -0.3251 0.2441, 0.1941 -0.3317 0.2441, 0.1915 -0.3311 0.2441, 0.1929 -0.3333 0.2441, 0.1902 -0.332 0.2441, 0.1942 -0.3257 0.2441, 0.1938 -0.3276 0.2441, 0.1931 -0.3292 0.2441, 0.1922 -0.3305 0.2441, 0.1832 -0.331 0.2441, 0.1798 -0.3344 0.2441, 0.1836 -0.3314 0.2441, 0.1811 -0.3353 0.2441, 0.1845 -0.3321 0.2441, 0.1828 -0.336 0.2441, 0.1856 -0.3325 0.2441, 0.1849 -0.3364 0.2441, 0.1871 -0.3326 0.2441, 0.194 -0.317 0.2441, 0.1985 -0.3152 0.2441, 0.1935 -0.3153 0.2441, 0.1977 -0.3131 0.2441, 0.193 -0.3143 0.2441, 0.1968 -0.3116 0.2441, 0.1923 -0.3136 0.2441, 0.1955 -0.3104 0.2441, 0.1915 -0.3131 0.2441, 0.194 -0.3096 0.2441, 0.1904 -0.3127 0.2441, 0.192 -0.309 0.2441, 0.1888 -0.3125 0.2441, 0.1893 -0.3087 0.2441, 0.1863 -0.3127 0.2441, 0.1845 -0.3093 0.2441, 0.1834 -0.3137 0.2441, 0.181 -0.3107 0.2441, 0.1801 -0.3157 0.2441, 0.1801 -0.3112 0.2441, 0.1859 -0.3364 0.2441, 0.1885 -0.3361 0.2441, 0.1888 -0.3325 0.2441, 0.1904 -0.3354 0.2441, 0.1914 -0.3348 0.2441, 0.1823 -0.3276 0.2441, 0.1776 -0.3282 0.2441, 0.1823 -0.3284 0.2441, 0.1776 -0.3287 0.2441, 0.1824 -0.3294 0.2441, 0.1778 -0.331 0.2441, 0.1827 -0.3303 0.2441, 0.1784 -0.3326 0.2441, 0.1794 -0.3339 0.2441, 0.1863 -0.3201 0.2441, 0.1828 -0.321 0.2441, 0.1835 -0.325 0.2441, 0.1808 -0.322 0.2441, 0.1829 -0.3257 0.2441, 0.1794 -0.3232 0.2441, 0.1825 -0.3266 0.2441, 0.1785 -0.3245 0.2441, 0.1779 -0.3262 0.2441, 0.1893 -0.3087 0.2402, 0.1845 -0.3093 0.2402, 0.181 -0.3107 0.2402, 0.1801 -0.3112 0.2402, 0.1801 -0.3157 0.2402, 0.1834 -0.3137 0.2402, 0.1863 -0.3127 0.2402, 0.1888 -0.3125 0.2402, 0.1904 -0.3127 0.2402, 0.1915 -0.3131 0.2402, 0.1923 -0.3136 0.2402, 0.193 -0.3143 0.2402, 0.1935 -0.3153 0.2402, 0.194 -0.317 0.2402, 0.1942 -0.319 0.2402, 0.1863 -0.3201 0.2402, 0.1828 -0.321 0.2402, 0.1808 -0.322 0.2402, 0.1794 -0.3232 0.2402, 0.1785 -0.3245 0.2402, 0.1779 -0.3262 0.2402, 0.1776 -0.3282 0.2402, 0.1776 -0.3287 0.2402, 0.1778 -0.331 0.2402, 0.1784 -0.3326 0.2402, 0.1794 -0.3339 0.2402, 0.1798 -0.3344 0.2402, 0.1859 -0.3364 0.2402, 0.1811 -0.3353 0.2402, 0.1828 -0.336 0.2402, 0.1834 -0.3361 0.2402, 0.1849 -0.3364 0.2402, 0.1885 -0.3361 0.2402, 0.1904 -0.3354 0.2402, 0.1914 -0.3348 0.2402, 0.1929 -0.3333 0.2402, 0.1941 -0.3317 0.2402, 0.1942 -0.3317 0.2402, 0.1942 -0.3358 0.2402, 0.1988 -0.3358 0.2402, 0.1988 -0.3188 0.2402, 0.1985 -0.3152 0.2402, 0.1977 -0.3131 0.2402, 0.1968 -0.3116 0.2402, 0.1955 -0.3104 0.2402, 0.194 -0.3096 0.2402, 0.192 -0.309 0.2402, 0.1835 -0.325 0.2402, 0.1841 -0.3245 0.2402, 0.1852 -0.324 0.2402, 0.188 -0.3234 0.2402, 0.1823 -0.3284 0.2402, 0.1823 -0.3276 0.2402, 0.1825 -0.3266 0.2402, 0.1829 -0.3257 0.2402, 0.1836 -0.3314 0.2402, 0.1832 -0.331 0.2402, 0.1827 -0.3303 0.2402, 0.1824 -0.3294 0.2402, 0.1871 -0.3326 0.2402, 0.1856 -0.3325 0.2402, 0.1845 -0.3321 0.2402, 0.1922 -0.3305 0.2402, 0.1915 -0.3311 0.2402, 0.1902 -0.332 0.2402, 0.1888 -0.3325 0.2402, 0.1942 -0.3251 0.2402, 0.1942 -0.3257 0.2402, 0.1938 -0.3276 0.2402, 0.1931 -0.3292 0.2402, 0.1942 -0.3225 0.2402
            ]
        }
        coordIndex [
            0,1,2,-1,2,1,3,-1,4,0,5,-1,5,0,2,-1,6,4,7,-1,7,4,5,-1,8,6,9,-1,9,6,7,-1,10,8,11,-1,11,8,9,-1,12,10,13,-1,13,10,11,-1,14,12,15,-1,15,12,13,-1,16,14,17,-1,17,14,15,-1,18,16,19,-1,19,16,17,-1,20,18,21,-1,21,18,19,-1,22,20,23,-1,23,20,21,-1,1,22,3,-1,3,22,23,-1,22,1,0,-1,0,4,22,-1,22,4,6,-1,22,6,20,-1,16,18,14,-1,14,18,20,-1,14,20,12,-1,12,20,6,-1,12,6,10,-1,10,6,8,-1,24,25,26,-1,26,25,27,-1,28,29,30,-1,31,32,27,-1,27,32,33,-1,34,35,36,-1,36,35,37,-1,33,38,27,-1,27,38,39,-1,27,39,26,-1,26,39,40,-1,26,40,34,-1,34,40,41,-1,34,41,35,-1,42,43,44,-1,44,43,45,-1,44,45,46,-1,46,45,47,-1,46,47,48,-1,48,47,49,-1,48,49,50,-1,30,31,28,-1,28,31,27,-1,28,27,51,-1,51,27,52,-1,51,52,53,-1,53,52,54,-1,53,54,55,-1,55,54,56,-1,55,56,57,-1,57,56,58,-1,57,58,59,-1,59,58,60,-1,59,60,61,-1,61,60,62,-1,61,62,63,-1,63,62,64,-1,63,64,65,-1,65,64,66,-1,65,66,67,-1,67,66,68,-1,67,68,69,-1,69,68,70,-1,49,71,50,-1,50,71,72,-1,50,72,73,-1,73,72,74,-1,73,74,37,-1,37,74,75,-1,37,75,36,-1,76,77,78,-1,78,77,79,-1,78,79,80,-1,80,79,81,-1,80,81,82,-1,82,81,83,-1,82,83,42,-1,42,83,84,-1,42,84,43,-1,28,85,29,-1,29,85,86,-1,29,86,87,-1,87,86,88,-1,87,88,89,-1,89,88,90,-1,89,90,91,-1,91,90,92,-1,91,92,76,-1,76,92,93,-1,76,93,77,-1,64,94,95,-1,64,95,66,-1,66,95,96,-1,66,96,68,-1,68,96,97,-1,68,97,70,-1,69,70,98,-1,98,70,97,-1,69,98,99,-1,69,99,67,-1,67,99,100,-1,67,100,65,-1,65,100,101,-1,65,101,63,-1,63,101,102,-1,63,102,61,-1,61,102,103,-1,61,103,59,-1,59,103,104,-1,59,104,57,-1,57,104,105,-1,57,105,55,-1,55,105,106,-1,55,106,53,-1,53,106,107,-1,53,107,51,-1,51,107,108,-1,51,108,28,-1,85,28,109,-1,109,28,108,-1,85,109,110,-1,85,110,86,-1,86,110,111,-1,86,111,88,-1,88,111,112,-1,88,112,90,-1,90,112,113,-1,90,113,92,-1,92,113,114,-1,92,114,93,-1,93,114,115,-1,93,115,77,-1,77,115,116,-1,77,116,79,-1,79,116,117,-1,79,117,81,-1,81,117,118,-1,81,118,83,-1,83,118,119,-1,83,119,84,-1,84,119,120,-1,84,120,43,-1,121,71,49,-1,43,120,122,-1,43,122,45,-1,45,122,123,-1,45,123,47,-1,47,123,124,-1,47,124,49,-1,49,124,125,-1,49,125,121,-1,71,121,126,-1,71,126,72,-1,72,126,127,-1,72,127,74,-1,74,127,128,-1,74,128,75,-1,75,128,129,-1,75,129,36,-1,36,129,130,-1,36,130,34,-1,26,34,131,-1,131,34,130,-1,24,26,132,-1,132,26,131,-1,25,24,133,-1,133,24,132,-1,27,25,134,-1,134,25,133,-1,27,134,135,-1,27,135,52,-1,52,135,136,-1,52,136,54,-1,54,136,137,-1,54,137,56,-1,56,137,138,-1,56,138,58,-1,58,138,139,-1,58,139,60,-1,60,139,140,-1,60,140,62,-1,62,140,94,-1,62,94,64,-1,87,141,142,-1,87,142,29,-1,29,142,143,-1,29,143,30,-1,30,143,144,-1,30,144,31,-1,78,145,146,-1,78,146,76,-1,76,146,147,-1,76,147,91,-1,91,147,148,-1,91,148,89,-1,89,148,141,-1,89,141,87,-1,44,149,150,-1,44,150,42,-1,42,150,151,-1,42,151,82,-1,82,151,152,-1,82,152,80,-1,80,152,145,-1,80,145,78,-1,50,153,154,-1,50,154,48,-1,48,154,155,-1,48,155,46,-1,46,155,149,-1,46,149,44,-1,41,156,157,-1,41,157,35,-1,35,157,158,-1,35,158,37,-1,37,158,159,-1,37,159,73,-1,73,159,153,-1,73,153,50,-1,33,160,161,-1,33,161,38,-1,38,161,162,-1,38,162,39,-1,39,162,163,-1,39,163,40,-1,40,163,156,-1,40,156,41,-1,33,32,160,-1,160,32,164,-1,32,31,164,-1,164,31,144,-1,
        ]
    }
}
Shape{
    appearance Appearance {
        material  Material 	{
            diffuseColor 0.2235294117647059 0.2235294117647059 0.2235294117647059
            specularColor 0.11372549019607843 0.11372549019607843 0.11372549019607843
            ambientIntensity 0.2235
            transparency 0.0
            shininess 0.5
        }
    }
    geometry IndexedFaceSet {
        ccw TRUE
        solid FALSE
        coord DEF co Coordinate {
            point [
                0.1922 -0.3305 0.2402, 0.1931 -0.3292 0.2402, 0.1823 -0.3276 0.2402, 0.1942 -0.3251 0.2402, 0.1942 -0.3225 0.2402, 0.188 -0.3234 0.2402, 0.1825 -0.3266 0.2402, 0.1852 -0.324 0.2402, 0.1841 -0.3245 0.2402, 0.1835 -0.325 0.2402, 0.1829 -0.3257 0.2402, 0.1938 -0.3276 0.2402, 0.1942 -0.3257 0.2402, 0.1823 -0.3284 0.2402, 0.1824 -0.3294 0.2402, 0.1827 -0.3303 0.2402, 0.1856 -0.3325 0.2402, 0.1871 -0.3326 0.2402, 0.1915 -0.3311 0.2402, 0.1888 -0.3325 0.2402, 0.1902 -0.332 0.2402, 0.1832 -0.331 0.2402, 0.1836 -0.3314 0.2402, 0.1845 -0.3321 0.2402
            ]
        }
        coordIndex [
            0,1,2,-1,3,4,5,-1,2,1,6,-1,5,7,3,-1,3,7,8,-1,3,8,9,-1,6,1,10,-1,10,1,11,-1,10,11,9,-1,9,11,12,-1,9,12,3,-1,2,13,0,-1,0,13,14,-1,0,14,15,-1,16,17,18,-1,18,17,19,-1,18,19,20,-1,15,21,0,-1,0,21,22,-1,0,22,18,-1,18,22,23,-1,18,23,16,-1,
        ]
    }
}
Shape{
    appearance Appearance {
        material  Material 	{
            diffuseColor 1.0 1.0 1.0
            specularColor 0.5019607843137255 0.5019607843137255 0.5019607843137255
            ambientIntensity 1.0
            transparency 0.0
            shininess 0.5
        }
    }
    geometry IndexedFaceSet {
        ccw TRUE
        solid FALSE
        coord DEF co Coordinate {
            point [
                0.2051 -0.3301 0.2402, 0.2051 -0.3301 0.2441, 0.2068 -0.3311 0.2441, 0.2128 -0.3327 0.2441, 0.2128 -0.3327 0.2402, 0.2097 -0.3323 0.2402, 0.2097 -0.3323 0.2441, 0.2073 -0.3313 0.2402, 0.2068 -0.3311 0.2402, 0.2051 -0.3349 0.2441, 0.2051 -0.3349 0.2402, 0.2073 -0.3356 0.2402, 0.2083 -0.336 0.2441, 0.2123 -0.3364 0.2402, 0.2123 -0.3364 0.2441, 0.2093 -0.3361 0.2402, 0.2083 -0.336 0.2402, 0.2152 -0.3361 0.2402, 0.2161 -0.336 0.2441, 0.2161 -0.336 0.2402, 0.2187 -0.3351 0.2402, 0.2187 -0.3351 0.2441, 0.22 -0.3343 0.2402, 0.22 -0.3343 0.2441, 0.2213 -0.3333 0.2402, 0.2213 -0.3333 0.2441, 0.2222 -0.3321 0.2402, 0.2222 -0.3321 0.2441, 0.2227 -0.3306 0.2402, 0.2227 -0.3306 0.2441, 0.223 -0.3288 0.2402, 0.223 -0.3288 0.2441, 0.223 -0.3286 0.2402, 0.223 -0.3286 0.2441, 0.2228 -0.327 0.2402, 0.2228 -0.327 0.2441, 0.2224 -0.3256 0.2402, 0.2224 -0.3256 0.2441, 0.2216 -0.3244 0.2402, 0.2216 -0.3244 0.2441, 0.2214 -0.3242 0.2402, 0.2214 -0.3242 0.2441, 0.2201 -0.3231 0.2402, 0.2201 -0.3231 0.2441, 0.2169 -0.3214 0.2402, 0.2169 -0.3214 0.2441, 0.2155 -0.3208 0.2402, 0.2155 -0.3208 0.2441, 0.2126 -0.3196 0.2402, 0.2126 -0.3196 0.2441, 0.2109 -0.3185 0.2402, 0.2109 -0.3185 0.2441, 0.2105 -0.318 0.2402, 0.2105 -0.318 0.2441, 0.2102 -0.3174 0.2402, 0.2102 -0.3174 0.2441, 0.21 -0.3167 0.2402, 0.21 -0.3167 0.2441, 0.2099 -0.3161 0.2402, 0.2099 -0.3161 0.2441, 0.21 -0.3153 0.2402, 0.21 -0.3153 0.2441, 0.2102 -0.3147 0.2402, 0.2102 -0.3147 0.2441, 0.2106 -0.3141 0.2402, 0.2106 -0.3141 0.2441, 0.2113 -0.3135 0.2402, 0.2113 -0.3135 0.2441, 0.2124 -0.3129 0.2402, 0.2124 -0.3129 0.2441, 0.2136 -0.3126 0.2402, 0.2136 -0.3126 0.2441, 0.215 -0.3125 0.2402, 0.215 -0.3125 0.2441, 0.2183 -0.3129 0.2402, 0.2183 -0.3129 0.2441, 0.2209 -0.3139 0.2402, 0.2209 -0.3139 0.2441, 0.2217 -0.3144 0.2402, 0.2217 -0.3144 0.2441, 0.2217 -0.3099 0.2441, 0.2217 -0.3099 0.2402, 0.2187 -0.309 0.2402, 0.2187 -0.309 0.2441, 0.2155 -0.3087 0.2402, 0.2155 -0.3087 0.2441, 0.2117 -0.3092 0.2402, 0.2117 -0.3092 0.2441, 0.2092 -0.3102 0.2402, 0.2092 -0.3102 0.2441, 0.2081 -0.3108 0.2402, 0.2081 -0.3108 0.2441, 0.2073 -0.3116 0.2402, 0.2068 -0.312 0.2441, 0.2068 -0.312 0.2402, 0.2059 -0.3132 0.2402, 0.2059 -0.3132 0.2441, 0.2054 -0.3147 0.2402, 0.2054 -0.3147 0.2441, 0.2051 -0.3165 0.2402, 0.2051 -0.3165 0.2441, 0.2053 -0.3182 0.2402, 0.2053 -0.3182 0.2441, 0.2058 -0.3196 0.2402, 0.2058 -0.3196 0.2441, 0.2065 -0.3207 0.2402, 0.2065 -0.3207 0.2441, 0.2122 -0.3242 0.2402, 0.2122 -0.3242 0.2441, 0.2094 -0.3229 0.2441, 0.2072 -0.3215 0.2402, 0.2072 -0.3215 0.2441, 0.2073 -0.3215 0.2402, 0.2094 -0.3229 0.2402, 0.2152 -0.3255 0.2402, 0.2152 -0.3255 0.2441, 0.217 -0.3266 0.2402, 0.217 -0.3266 0.2441, 0.2176 -0.3272 0.2402, 0.2176 -0.3272 0.2441, 0.218 -0.3278 0.2402, 0.218 -0.3278 0.2441, 0.2182 -0.3285 0.2402, 0.2182 -0.3285 0.2441, 0.2182 -0.3291 0.2402, 0.2182 -0.3291 0.2441, 0.2181 -0.33 0.2402, 0.2181 -0.33 0.2441, 0.2179 -0.3306 0.2402, 0.2179 -0.3306 0.2441, 0.2175 -0.3312 0.2402, 0.2175 -0.3312 0.2441, 0.217 -0.3317 0.2402, 0.217 -0.3317 0.2441, 0.2165 -0.3319 0.2402, 0.2165 -0.3319 0.2441, 0.2153 -0.3324 0.2402, 0.2153 -0.3324 0.2441, 0.213 -0.3327 0.2402, 0.213 -0.3327 0.2441, 0.246 -0.3093 0.2441, 0.2508 -0.3093 0.2441, 0.246 -0.3093 0.2402, 0.2508 -0.3093 0.2402, 0.2388 -0.3293 0.2441, 0.2388 -0.3293 0.2402, 0.2384 -0.3305 0.2402, 0.2384 -0.3305 0.2441, 0.2382 -0.3314 0.2402, 0.2382 -0.3314 0.2441, 0.2381 -0.3314 0.2441, 0.2381 -0.3314 0.2402, 0.2375 -0.3292 0.2441, 0.2375 -0.3292 0.2402, 0.2306 -0.3093 0.2441, 0.2328 -0.3158 0.2402, 0.2306 -0.3093 0.2402, 0.2254 -0.3093 0.2441, 0.2254 -0.3093 0.2402, 0.2358 -0.3358 0.2441, 0.2328 -0.3283 0.2402, 0.2358 -0.3358 0.2402, 0.2338 -0.3406 0.2402, 0.2338 -0.3406 0.2441, 0.2356 -0.3361 0.2402, 0.2328 -0.3422 0.2402, 0.2327 -0.3424 0.2441, 0.2327 -0.3424 0.2402, 0.2318 -0.3434 0.2402, 0.2318 -0.3434 0.2441, 0.2309 -0.3439 0.2402, 0.2309 -0.3439 0.2441, 0.2299 -0.3442 0.2402, 0.2299 -0.3442 0.2441, 0.229 -0.3443 0.2402, 0.229 -0.3443 0.2441, 0.2275 -0.3441 0.2402, 0.2275 -0.3441 0.2441, 0.2264 -0.3438 0.2402, 0.2264 -0.3438 0.2441, 0.2264 -0.3479 0.2441, 0.2264 -0.3479 0.2402, 0.2277 -0.3482 0.2402, 0.2277 -0.3482 0.2441, 0.2294 -0.3483 0.2402, 0.2294 -0.3483 0.2441, 0.2313 -0.348 0.2402, 0.2313 -0.348 0.2441, 0.2328 -0.3475 0.2402, 0.2332 -0.3473 0.2441, 0.2332 -0.3473 0.2402, 0.2348 -0.3462 0.2402, 0.2348 -0.3462 0.2441, 0.2367 -0.344 0.2402, 0.2367 -0.344 0.2441, 0.2388 -0.3398 0.2402, 0.2388 -0.3398 0.2441, 0.2403 -0.3361 0.2402, 0.2758 -0.3316 0.2441, 0.2758 -0.3358 0.2441, 0.2758 -0.3316 0.2402, 0.2758 -0.3358 0.2402, 0.2606 -0.3316 0.2441, 0.2676 -0.3316 0.2402, 0.2606 -0.3316 0.2402, 0.2606 -0.3191 0.2441, 0.2606 -0.3191 0.2402, 0.2739 -0.3191 0.2441, 0.2676 -0.3191 0.2402, 0.2739 -0.3191 0.2402, 0.2739 -0.3149 0.2441, 0.2739 -0.3149 0.2402, 0.2606 -0.3149 0.2402, 0.2606 -0.3149 0.2441, 0.2676 -0.3149 0.2402, 0.2606 -0.303 0.2441, 0.2606 -0.303 0.2402, 0.2749 -0.303 0.2402, 0.2749 -0.303 0.2441, 0.2676 -0.303 0.2402, 0.2749 -0.2988 0.2441, 0.2749 -0.2988 0.2402, 0.2558 -0.2988 0.2402, 0.2558 -0.2988 0.2441, 0.2676 -0.2988 0.2402, 0.2558 -0.3358 0.2441, 0.2558 -0.3358 0.2402, 0.2676 -0.3358 0.2402, 0.2929 -0.3316 0.2441, 0.293 -0.3358 0.2441, 0.2976 -0.3311 0.2441, 0.299 -0.3351 0.2441, 0.3008 -0.33 0.2441, 0.3033 -0.3335 0.2441, 0.3033 -0.3284 0.2441, 0.3069 -0.3311 0.2441, 0.304 -0.3277 0.2441, 0.3074 -0.3306 0.2441, 0.3058 -0.3254 0.2441, 0.3101 -0.3273 0.2441, 0.3071 -0.3227 0.2441, 0.3119 -0.3235 0.2441, 0.3078 -0.3193 0.2441, 0.3128 -0.3191 0.2441, 0.3079 -0.3169 0.2441, 0.3129 -0.3168 0.2441, 0.3075 -0.3127 0.2441, 0.3123 -0.3116 0.2441, 0.3065 -0.3099 0.2441, 0.3109 -0.3081 0.2441, 0.3051 -0.3077 0.2441, 0.3086 -0.3049 0.2441, 0.3039 -0.3065 0.2441, 0.3074 -0.3037 0.2441, 0.3012 -0.3047 0.2441, 0.3035 -0.301 0.2441, 0.2979 -0.3035 0.2441, 0.299 -0.2994 0.2441, 0.2932 -0.303 0.2441, 0.2933 -0.2988 0.2441, 0.2876 -0.303 0.2441, 0.2828 -0.2988 0.2441, 0.2876 -0.3316 0.2441, 0.2828 -0.3358 0.2441, 0.293 -0.3358 0.2402, 0.2828 -0.3358 0.2402, 0.299 -0.3351 0.2402, 0.3033 -0.3335 0.2402, 0.3069 -0.3311 0.2402, 0.3074 -0.3306 0.2402, 0.3101 -0.3273 0.2402, 0.3119 -0.3235 0.2402, 0.3128 -0.3191 0.2402, 0.3129 -0.3168 0.2402, 0.3123 -0.3116 0.2402, 0.3109 -0.3081 0.2402, 0.3086 -0.3049 0.2402, 0.3074 -0.3037 0.2402, 0.3035 -0.301 0.2402, 0.299 -0.2994 0.2402, 0.2933 -0.2988 0.2402, 0.2828 -0.2988 0.2402, 0.2932 -0.303 0.2402, 0.2876 -0.303 0.2402, 0.2876 -0.3316 0.2402, 0.2929 -0.3316 0.2402, 0.304 -0.3277 0.2402, 0.3033 -0.3284 0.2402, 0.3008 -0.33 0.2402, 0.2976 -0.3311 0.2402, 0.3079 -0.3169 0.2402, 0.3078 -0.3193 0.2402, 0.3071 -0.3227 0.2402, 0.3058 -0.3254 0.2402, 0.3039 -0.3065 0.2402, 0.3051 -0.3077 0.2402, 0.3065 -0.3099 0.2402, 0.3075 -0.3127 0.2402, 0.2979 -0.3035 0.2402, 0.3012 -0.3047 0.2402
            ]
        }
        coordIndex [
            0,1,2,-1,3,4,5,-1,3,5,6,-1,6,5,7,-1,6,7,2,-1,2,7,8,-1,2,8,0,-1,9,1,10,-1,10,1,0,-1,10,11,9,-1,9,11,12,-1,13,14,15,-1,15,14,12,-1,15,12,16,-1,16,12,11,-1,13,17,14,-1,14,17,18,-1,17,19,18,-1,18,19,20,-1,18,20,21,-1,21,20,22,-1,21,22,23,-1,23,22,24,-1,23,24,25,-1,25,24,26,-1,25,26,27,-1,27,26,28,-1,27,28,29,-1,29,28,30,-1,29,30,31,-1,31,30,32,-1,31,32,33,-1,33,32,34,-1,33,34,35,-1,35,34,36,-1,35,36,37,-1,37,36,38,-1,37,38,39,-1,39,38,40,-1,39,40,41,-1,41,40,42,-1,41,42,43,-1,43,42,44,-1,43,44,45,-1,45,44,46,-1,45,46,47,-1,47,46,48,-1,47,48,49,-1,49,48,50,-1,49,50,51,-1,51,50,52,-1,51,52,53,-1,53,52,54,-1,53,54,55,-1,55,54,56,-1,55,56,57,-1,57,56,58,-1,57,58,59,-1,59,58,60,-1,59,60,61,-1,61,60,62,-1,61,62,63,-1,63,62,64,-1,63,64,65,-1,65,64,66,-1,65,66,67,-1,67,66,68,-1,67,68,69,-1,69,68,70,-1,69,70,71,-1,71,70,72,-1,71,72,73,-1,73,72,74,-1,73,74,75,-1,75,74,76,-1,75,76,77,-1,77,76,78,-1,77,78,79,-1,80,79,81,-1,81,79,78,-1,80,81,82,-1,80,82,83,-1,83,82,84,-1,83,84,85,-1,85,84,86,-1,85,86,87,-1,87,86,88,-1,87,88,89,-1,89,88,90,-1,89,90,91,-1,90,92,91,-1,91,92,93,-1,92,94,93,-1,93,94,95,-1,93,95,96,-1,96,95,97,-1,96,97,98,-1,98,97,99,-1,98,99,100,-1,100,99,101,-1,100,101,102,-1,102,101,103,-1,102,103,104,-1,104,103,105,-1,104,105,106,-1,107,108,109,-1,106,105,110,-1,106,110,111,-1,111,110,112,-1,111,112,109,-1,109,112,113,-1,109,113,107,-1,108,107,114,-1,108,114,115,-1,115,114,116,-1,115,116,117,-1,117,116,118,-1,117,118,119,-1,119,118,120,-1,119,120,121,-1,121,120,122,-1,121,122,123,-1,123,122,124,-1,123,124,125,-1,125,124,126,-1,125,126,127,-1,127,126,128,-1,127,128,129,-1,129,128,130,-1,129,130,131,-1,131,130,132,-1,131,132,133,-1,133,132,134,-1,133,134,135,-1,135,134,136,-1,135,136,137,-1,137,136,138,-1,137,138,139,-1,139,138,4,-1,139,4,3,-1,65,67,89,-1,89,67,87,-1,121,39,119,-1,119,39,41,-1,119,41,117,-1,117,41,43,-1,117,43,115,-1,43,45,115,-1,115,45,47,-1,115,47,108,-1,108,47,49,-1,21,23,131,-1,131,23,25,-1,131,25,129,-1,129,25,27,-1,129,27,127,-1,127,27,29,-1,127,29,125,-1,14,3,12,-1,12,3,6,-1,12,6,9,-1,9,6,2,-1,9,2,1,-1,67,69,87,-1,87,69,71,-1,87,71,85,-1,85,71,73,-1,85,73,83,-1,83,73,75,-1,83,75,80,-1,80,75,77,-1,80,77,79,-1,29,31,125,-1,125,31,33,-1,125,33,123,-1,123,33,35,-1,123,35,121,-1,121,35,37,-1,121,37,39,-1,131,133,21,-1,21,133,135,-1,21,135,18,-1,18,135,137,-1,18,137,14,-1,14,137,139,-1,14,139,3,-1,89,91,65,-1,65,91,93,-1,65,93,63,-1,63,93,96,-1,63,96,61,-1,61,96,98,-1,61,98,59,-1,59,98,100,-1,59,100,57,-1,57,100,102,-1,57,102,55,-1,55,102,104,-1,55,104,53,-1,53,104,106,-1,53,106,51,-1,51,106,111,-1,51,111,49,-1,49,111,109,-1,49,109,108,-1,140,141,142,-1,142,141,143,-1,144,140,145,-1,145,140,142,-1,144,145,146,-1,144,146,147,-1,147,146,148,-1,147,148,149,-1,150,149,151,-1,151,149,148,-1,152,150,153,-1,153,150,151,-1,152,153,154,-1,154,153,155,-1,154,155,156,-1,157,154,158,-1,158,154,156,-1,157,158,159,-1,159,158,160,-1,159,160,161,-1,162,163,164,-1,164,163,159,-1,164,159,161,-1,162,165,163,-1,163,165,166,-1,165,167,166,-1,166,167,168,-1,166,168,169,-1,169,168,170,-1,169,170,171,-1,171,170,172,-1,171,172,173,-1,173,172,174,-1,173,174,175,-1,175,174,176,-1,175,176,177,-1,177,176,178,-1,177,178,179,-1,180,179,181,-1,181,179,178,-1,180,181,182,-1,180,182,183,-1,183,182,184,-1,183,184,185,-1,185,184,186,-1,185,186,187,-1,187,186,188,-1,187,188,189,-1,188,190,189,-1,189,190,191,-1,189,191,192,-1,192,191,193,-1,192,193,194,-1,194,193,195,-1,194,195,196,-1,143,141,197,-1,197,141,196,-1,197,196,195,-1,147,149,196,-1,141,140,196,-1,196,140,144,-1,196,144,147,-1,154,157,152,-1,152,157,159,-1,152,159,150,-1,149,150,196,-1,196,150,159,-1,196,159,194,-1,159,163,194,-1,194,163,166,-1,194,166,192,-1,192,166,169,-1,192,169,189,-1,189,169,171,-1,189,171,187,-1,187,171,173,-1,187,173,185,-1,185,173,175,-1,185,175,183,-1,183,175,177,-1,183,177,180,-1,180,177,179,-1,198,199,200,-1,200,199,201,-1,198,200,202,-1,202,200,203,-1,202,203,204,-1,205,202,206,-1,206,202,204,-1,205,206,207,-1,207,206,208,-1,207,208,209,-1,210,207,211,-1,211,207,209,-1,212,213,214,-1,214,213,210,-1,214,210,211,-1,215,213,216,-1,216,213,212,-1,217,218,219,-1,219,218,215,-1,219,215,216,-1,220,218,221,-1,221,218,217,-1,222,223,224,-1,224,223,220,-1,224,220,221,-1,225,223,226,-1,226,223,222,-1,225,226,199,-1,199,226,227,-1,199,227,201,-1,225,199,198,-1,198,202,225,-1,225,202,205,-1,225,205,223,-1,218,220,215,-1,215,220,223,-1,215,223,213,-1,213,223,205,-1,213,205,210,-1,210,205,207,-1,228,229,230,-1,230,229,231,-1,230,231,232,-1,232,231,233,-1,232,233,234,-1,234,233,235,-1,234,235,236,-1,236,235,237,-1,236,237,238,-1,238,237,239,-1,238,239,240,-1,240,239,241,-1,240,241,242,-1,242,241,243,-1,242,243,244,-1,244,243,245,-1,244,245,246,-1,246,245,247,-1,246,247,248,-1,248,247,249,-1,248,249,250,-1,250,249,251,-1,250,251,252,-1,252,251,253,-1,252,253,254,-1,254,253,255,-1,254,255,256,-1,256,255,257,-1,256,257,258,-1,258,257,259,-1,258,259,260,-1,260,259,261,-1,260,261,262,-1,262,261,263,-1,262,263,228,-1,228,263,229,-1,229,263,264,-1,264,263,265,-1,229,264,266,-1,229,266,231,-1,231,266,267,-1,231,267,233,-1,233,267,268,-1,233,268,235,-1,235,268,269,-1,235,269,237,-1,237,269,270,-1,237,270,239,-1,239,270,271,-1,239,271,241,-1,241,271,272,-1,241,272,243,-1,243,272,273,-1,243,273,245,-1,245,273,274,-1,245,274,247,-1,247,274,275,-1,247,275,249,-1,249,275,276,-1,249,276,251,-1,251,276,277,-1,251,277,253,-1,253,277,278,-1,253,278,255,-1,255,278,279,-1,255,279,257,-1,257,279,280,-1,257,280,259,-1,261,259,281,-1,281,259,280,-1,263,261,265,-1,265,261,281,-1,258,260,282,-1,282,260,283,-1,260,262,283,-1,283,262,284,-1,262,228,284,-1,284,228,285,-1,236,286,287,-1,236,287,234,-1,234,287,288,-1,234,288,232,-1,232,288,289,-1,232,289,230,-1,230,289,285,-1,230,285,228,-1,244,290,291,-1,244,291,242,-1,242,291,292,-1,242,292,240,-1,240,292,293,-1,240,293,238,-1,238,293,286,-1,238,286,236,-1,252,294,295,-1,252,295,250,-1,250,295,296,-1,250,296,248,-1,248,296,297,-1,248,297,246,-1,246,297,290,-1,246,290,244,-1,258,282,298,-1,258,298,256,-1,256,298,299,-1,256,299,254,-1,254,299,294,-1,254,294,252,-1,
        ]
    }
}
Shape{
    appearance Appearance {
        material  Material 	{
            diffuseColor 0.2235294117647059 0.2235294117647059 0.2235294117647059
            specularColor 0.11372549019607843 0.11372549019607843 0.11372549019607843
            ambientIntensity 0.2235
            transparency 0.0
            shininess 0.5
        }
    }
    geometry IndexedFaceSet {
        ccw TRUE
        solid FALSE
        coord DEF co Coordinate {
            point [
                0.2876 -0.303 0.2402, 0.2876 -0.3316 0.2402, 0.2932 -0.303 0.2402, 0.2929 -0.3316 0.2402, 0.2976 -0.3311 0.2402, 0.3008 -0.33 0.2402, 0.3033 -0.3284 0.2402, 0.304 -0.3277 0.2402, 0.3058 -0.3254 0.2402, 0.3071 -0.3227 0.2402, 0.3078 -0.3193 0.2402, 0.3079 -0.3169 0.2402, 0.3075 -0.3127 0.2402, 0.3065 -0.3099 0.2402, 0.3051 -0.3077 0.2402, 0.3039 -0.3065 0.2402, 0.2979 -0.3035 0.2402, 0.3012 -0.3047 0.2402
            ]
        }
        coordIndex [
            0,1,2,-1,2,1,3,-1,2,3,4,-1,4,5,2,-1,2,5,6,-1,2,6,7,-1,7,8,2,-1,2,8,9,-1,2,9,10,-1,10,11,2,-1,2,11,12,-1,2,12,13,-1,13,14,2,-1,2,14,15,-1,2,15,16,-1,16,15,17,-1,
        ]
    }
}
Shape{
    appearance Appearance {
        material  Material 	{
            diffuseColor 1.0 1.0 1.0
            specularColor 0.5019607843137255 0.5019607843137255 0.5019607843137255
            ambientIntensity 1.0
            transparency 0.0
            shininess 0.5
        }
    }
    geometry IndexedFaceSet {
        ccw TRUE
        solid FALSE
        coord DEF co Coordinate {
            point [
                0.3254 -0.3215 0.2441, 0.3239 -0.3257 0.2441, 0.3378 -0.3215 0.2441, 0.3393 -0.3257 0.2441, 0.3309 -0.3061 0.2441, 0.3291 -0.2988 0.2441, 0.315 -0.3358 0.2441, 0.3203 -0.3358 0.2441, 0.3312 -0.305 0.2441, 0.3315 -0.3035 0.2441, 0.3342 -0.2988 0.2441, 0.3316 -0.3035 0.2441, 0.3319 -0.3051 0.2441, 0.3322 -0.3061 0.2441, 0.3484 -0.3358 0.2441, 0.3431 -0.3358 0.2441, 0.3342 -0.2988 0.2402, 0.3484 -0.3358 0.2402, 0.3291 -0.2988 0.2402, 0.315 -0.3358 0.2402, 0.3203 -0.3358 0.2402, 0.3239 -0.3257 0.2402, 0.3393 -0.3257 0.2402, 0.3431 -0.3358 0.2402, 0.3254 -0.3215 0.2402, 0.3378 -0.3215 0.2402, 0.3322 -0.3061 0.2402, 0.3316 -0.3035 0.2402, 0.3319 -0.3051 0.2402, 0.3315 -0.3035 0.2402, 0.3309 -0.3061 0.2402, 0.3312 -0.305 0.2402
            ]
        }
        coordIndex [
            0,1,2,-1,2,1,3,-1,4,5,0,-1,0,5,6,-1,0,6,1,-1,1,6,7,-1,4,8,5,-1,5,8,9,-1,5,9,10,-1,10,9,11,-1,10,11,12,-1,12,13,10,-1,10,13,2,-1,10,2,14,-1,14,2,3,-1,14,3,15,-1,10,14,16,-1,16,14,17,-1,5,10,18,-1,18,10,16,-1,6,5,19,-1,19,5,18,-1,7,6,20,-1,20,6,19,-1,1,7,21,-1,21,7,20,-1,3,1,22,-1,22,1,21,-1,15,3,23,-1,23,3,22,-1,14,15,17,-1,17,15,23,-1,0,2,24,-1,24,2,25,-1,2,13,25,-1,25,13,26,-1,11,27,28,-1,11,28,12,-1,12,28,26,-1,12,26,13,-1,11,9,27,-1,27,9,29,-1,4,30,31,-1,4,31,8,-1,8,31,29,-1,8,29,9,-1,4,0,30,-1,30,0,24,-1,
        ]
    }
}
Shape{
    appearance Appearance {
        material  Material 	{
            diffuseColor 0.2235294117647059 0.2235294117647059 0.2235294117647059
            specularColor 0.11372549019607843 0.11372549019607843 0.11372549019607843
            ambientIntensity 0.2235
            transparency 0.0
            shininess 0.5
        }
    }
    geometry IndexedFaceSet {
        ccw TRUE
        solid FALSE
        coord DEF co Coordinate {
            point [
                0.3316 -0.3035 0.2402, 0.3315 -0.3035 0.2402, 0.3319 -0.3051 0.2402, 0.3312 -0.305 0.2402, 0.3322 -0.3061 0.2402, 0.3309 -0.3061 0.2402, 0.3378 -0.3215 0.2402, 0.3254 -0.3215 0.2402
            ]
        }
        coordIndex [
            0,1,2,-1,2,1,3,-1,2,3,4,-1,4,3,5,-1,4,5,6,-1,6,5,7,-1,
        ]
    }
}
Shape{
    appearance Appearance {
        material  Material 	{
            diffuseColor 1.0 1.0 1.0
            specularColor 0.5019607843137255 0.5019607843137255 0.5019607843137255
            ambientIntensity 1.0
            transparency 0.0
            shininess 0.5
        }
    }
    geometry IndexedFaceSet {
        ccw TRUE
        solid FALSE
        coord DEF co Coordinate {
            point [
                -0.0107 -0.3408 0.2441, -0.0069 -0.3456 0.2441, -0.0129 -0.3178 0.2441, -0.0175 -0.272 0.2441, -0.0116 -0.2688 0.2441, -0.0131 -0.2526 0.2441, 0.0034 -0.2519 0.2441, 0.0116 -0.2711 0.2441, 0.0156 -0.2627 0.2441, 0.0382 -0.327 0.2441, 0.0382 -0.3244 0.2441, 0.0159 -0.3179 0.2441, 0.0134 -0.3171 0.2441, -0.0026 -0.2513 0.2441, 0.0198 -0.3211 0.2441, 0.021 -0.3232 0.2441, 0.0381 -0.3297 0.2441, 0.0751 -0.3048 0.2441, 0.0669 -0.2909 0.2441, 0.0316 -0.3093 0.2441, 0.0116 -0.317 0.2441, 0.0091 -0.3173 0.2441, 0.006 -0.301 0.2441, 0.0068 -0.3182 0.2441, 0.0001 -0.3032 0.2441, 0.0047 -0.3196 0.2441, -0.0053 -0.3068 0.2441, 0.0034 -0.321 0.2441, -0.0097 -0.3117 0.2441, 0.0021 -0.3232 0.2441, 0.0014 -0.3257 0.2441, 0.0217 -0.3023 0.2441, 0.0154 -0.3006 0.2441, 0.0119 -0.3004 0.2441, 0.018 -0.3193 0.2441, 0.0047 -0.3349 0.2441, 0.0068 -0.3363 0.2441, -0.0018 -0.3496 0.2441, 0.0092 -0.3372 0.2441, 0.0838 -0.2788 0.2441, 0.0859 -0.2788 0.2441, 0.0967 -0.2645 0.2441, 0.0909 -0.2794 0.2441, 0.0979 -0.2649 0.2441, 0.0955 -0.2811 0.2441, 0.1058 -0.2688 0.2441, 0.113 -0.2748 0.2441, 0.0088 -0.2456 0.2441, 0.0216 -0.2557 0.2441, 0.015 -0.2403 0.2441, 0.0286 -0.2506 0.2441, 0.0214 -0.2363 0.2441, -0.0182 -0.3146 0.2441, -0.0166 -0.3344 0.2441, -0.0132 -0.3354 0.2441, -0.0051 -0.2673 0.2441, -0.0024 -0.2672 0.2441, 0.0004 -0.2515 0.2441, 0.0033 -0.2678 0.2441, 0.0092 -0.2699 0.2441, 0.0273 -0.3053 0.2441, 0.0996 -0.284 0.2441, 0.1027 -0.2874 0.2441, 0.1184 -0.2823 0.2441, 0.1051 -0.292 0.2441, 0.1216 -0.2904 0.2441, 0.1228 -0.2991 0.2441, 0.1063 -0.2971 0.2441, 0.1065 -0.2993 0.2441, 0.1216 -0.3084 0.2441, 0.1058 -0.3044 0.2441, 0.1183 -0.3168 0.2441, 0.104 -0.3091 0.2441, 0.1131 -0.3241 0.2441, -0.0228 -0.2564 0.2441, -0.0312 -0.2623 0.2441, -0.0224 -0.2764 0.2441, -0.033 -0.264 0.2441, -0.0259 -0.2817 0.2441, -0.0393 -0.2722 0.2441, -0.0281 -0.2876 0.2441, 0.003 -0.3329 0.2441, 0.0019 -0.3307 0.2441, 0.0014 -0.3283 0.2441, 0.1011 -0.3132 0.2441, 0.1007 -0.3137 0.2441, 0.1059 -0.3301 0.2441, 0.0968 -0.3168 0.2441, 0.0979 -0.3341 0.2441, 0.0922 -0.319 0.2441, 0.0891 -0.3359 0.2441, 0.0875 -0.3199 0.2441, 0.0735 -0.3359 0.2441, 0.0756 -0.3199 0.2441, 0.0722 -0.3357 0.2441, 0.0825 -0.2437 0.2441, 0.0721 -0.2557 0.2441, 0.0912 -0.2537 0.2441, 0.078 -0.2628 0.2441, 0.0821 -0.2713 0.2441, 0.0217 -0.3256 0.2441, 0.0218 -0.3281 0.2441, 0.0365 -0.3362 0.2441, 0.0213 -0.3307 0.2441, 0.0334 -0.3421 0.2441, 0.0201 -0.333 0.2441, 0.029 -0.347 0.2441, 0.0184 -0.3349 0.2441, 0.0237 -0.3505 0.2441, 0.0164 -0.3363 0.2441, 0.0178 -0.3527 0.2441, 0.0141 -0.3372 0.2441, 0.0119 -0.3533 0.2441, 0.0116 -0.3375 0.2441, 0.0104 -0.3533 0.2441, 0.0042 -0.3522 0.2441, 0.0336 -0.2316 0.2441, 0.0372 -0.2471 0.2441, 0.0466 -0.23 0.2441, 0.0469 -0.2458 0.2441, 0.0575 -0.2311 0.2441, 0.0559 -0.2469 0.2441, 0.0707 -0.2358 0.2441, 0.0642 -0.2501 0.2441, 0.0716 -0.2553 0.2441, -0.0435 -0.2817 0.2441, -0.0453 -0.2916 0.2441, -0.0287 -0.2935 0.2441, -0.0453 -0.294 0.2441, -0.0284 -0.2978 0.2441, -0.044 -0.3044 0.2441, -0.0264 -0.3042 0.2441, -0.0403 -0.3142 0.2441, -0.023 -0.3099 0.2441, -0.0343 -0.3228 0.2441, -0.0261 -0.3298 0.2441, 0.0743 -0.3196 0.2441, 0.0679 -0.3331 0.2441, 0.0687 -0.3339 0.2441, 0.0659 -0.3278 0.2441, 0.0661 -0.3297 0.2441, 0.0668 -0.3315 0.2441, 0.0751 -0.3198 0.2441, 0.0704 -0.3351 0.2441, 0.0721 -0.3199 0.2441, 0.0703 -0.3205 0.2441, 0.0659 -0.327 0.2441, 0.0686 -0.3217 0.2441, 0.0674 -0.3231 0.2441, 0.0664 -0.3249 0.2441, 0.0741 -0.3196 0.2441, 0.1147 -0.2773 0.2402, 0.1184 -0.2823 0.2402, 0.1207 -0.2882 0.2402, 0.1216 -0.2904 0.2402, 0.1228 -0.2991 0.2402, 0.113 -0.2748 0.2402, 0.1058 -0.2688 0.2402, 0.0979 -0.2649 0.2402, 0.0967 -0.2645 0.2402, 0.0912 -0.2537 0.2402, 0.0825 -0.2437 0.2402, 0.0707 -0.2358 0.2402, 0.0575 -0.2311 0.2402, 0.0466 -0.23 0.2402, 0.0336 -0.2316 0.2402, 0.0214 -0.2363 0.2402, 0.015 -0.2403 0.2402, 0.0088 -0.2456 0.2402, 0.0034 -0.2519 0.2402, 0.0004 -0.2515 0.2402, -0.0026 -0.2513 0.2402, -0.0131 -0.2526 0.2402, -0.0228 -0.2564 0.2402, -0.0312 -0.2623 0.2402, -0.033 -0.264 0.2402, -0.0393 -0.2722 0.2402, -0.0416 -0.2773 0.2402, -0.0435 -0.2817 0.2402, -0.0447 -0.2882 0.2402, -0.0453 -0.2916 0.2402, -0.0453 -0.294 0.2402, -0.044 -0.3044 0.2402, -0.0403 -0.3142 0.2402, -0.0343 -0.3228 0.2402, -0.0261 -0.3298 0.2402, -0.0166 -0.3344 0.2402, -0.0132 -0.3354 0.2402, -0.0129 -0.3361 0.2402, -0.0107 -0.3408 0.2402, -0.0069 -0.3456 0.2402, -0.0018 -0.3496 0.2402, 0.001 -0.3508 0.2402, 0.0042 -0.3522 0.2402, 0.0104 -0.3533 0.2402, 0.0119 -0.3533 0.2402, 0.0382 -0.327 0.2402, 0.0178 -0.3527 0.2402, 0.0229 -0.3508 0.2402, 0.0237 -0.3505 0.2402, 0.029 -0.347 0.2402, 0.0334 -0.3421 0.2402, 0.0365 -0.3362 0.2402, 0.0366 -0.3361 0.2402, 0.0381 -0.3297 0.2402, 0.0382 -0.3244 0.2402, 0.0751 -0.3048 0.2402, 0.0669 -0.2909 0.2402, 0.0316 -0.3093 0.2402, 0.0273 -0.3053 0.2402, 0.0217 -0.3023 0.2402, 0.0154 -0.3006 0.2402, 0.0119 -0.3004 0.2402, 0.006 -0.301 0.2402, 0.0001 -0.3032 0.2402, -0.0053 -0.3068 0.2402, -0.0097 -0.3117 0.2402, -0.0129 -0.3178 0.2402, -0.0182 -0.3146 0.2402, -0.023 -0.3099 0.2402, -0.0264 -0.3042 0.2402, -0.0284 -0.2978 0.2402, -0.0287 -0.2935 0.2402, -0.0281 -0.2882 0.2402, -0.0281 -0.2876 0.2402, -0.0259 -0.2817 0.2402, -0.023 -0.2773 0.2402, -0.0224 -0.2764 0.2402, -0.0175 -0.272 0.2402, -0.0116 -0.2688 0.2402, -0.0051 -0.2673 0.2402, -0.0024 -0.2672 0.2402, 0.0033 -0.2678 0.2402, 0.0092 -0.2699 0.2402, 0.0116 -0.2711 0.2402, 0.0156 -0.2627 0.2402, 0.0216 -0.2557 0.2402, 0.0286 -0.2506 0.2402, 0.0372 -0.2471 0.2402, 0.0469 -0.2458 0.2402, 0.0838 -0.2788 0.2402, 0.0835 -0.2773 0.2402, 0.0821 -0.2713 0.2402, 0.078 -0.2628 0.2402, 0.0721 -0.2557 0.2402, 0.0716 -0.2553 0.2402, 0.0642 -0.2501 0.2402, 0.0559 -0.2469 0.2402, 0.0859 -0.2788 0.2402, 0.0909 -0.2794 0.2402, 0.0955 -0.2811 0.2402, 0.0996 -0.284 0.2402, 0.1027 -0.2874 0.2402, 0.1031 -0.2882 0.2402, 0.1051 -0.292 0.2402, 0.1063 -0.2971 0.2402, 0.1065 -0.2993 0.2402, 0.1058 -0.3044 0.2402, 0.104 -0.3091 0.2402, 0.1011 -0.3132 0.2402, 0.1007 -0.3137 0.2402, 0.0968 -0.3168 0.2402, 0.0922 -0.319 0.2402, 0.0875 -0.3199 0.2402, 0.0756 -0.3199 0.2402, 0.0751 -0.3198 0.2402, 0.0743 -0.3196 0.2402, 0.0741 -0.3196 0.2402, 0.0721 -0.3199 0.2402, 0.0703 -0.3205 0.2402, 0.0686 -0.3217 0.2402, 0.0674 -0.3231 0.2402, 0.0664 -0.3249 0.2402, 0.0659 -0.327 0.2402, 0.0659 -0.3278 0.2402, 0.0661 -0.3297 0.2402, 0.0668 -0.3315 0.2402, 0.0679 -0.3331 0.2402, 0.0687 -0.3339 0.2402, 0.0704 -0.3351 0.2402, 0.0722 -0.3357 0.2402, 0.0735 -0.3359 0.2402, 0.0891 -0.3359 0.2402, 0.0979 -0.3341 0.2402, 0.1059 -0.3301 0.2402, 0.1131 -0.3241 0.2402, 0.1183 -0.3168 0.2402, 0.1216 -0.3084 0.2402, 0.0116 -0.317 0.2402, 0.0134 -0.3171 0.2402, 0.0159 -0.3179 0.2402, 0.018 -0.3193 0.2402, 0.0198 -0.3211 0.2402, 0.021 -0.3232 0.2402, 0.0217 -0.3256 0.2402, 0.0218 -0.3281 0.2402, 0.0213 -0.3307 0.2402, 0.0201 -0.333 0.2402, 0.0184 -0.3349 0.2402, 0.0164 -0.3363 0.2402, 0.0141 -0.3372 0.2402, 0.0116 -0.3375 0.2402, 0.0092 -0.3372 0.2402, 0.0068 -0.3363 0.2402, 0.0047 -0.3349 0.2402, 0.003 -0.3329 0.2402, 0.0019 -0.3307 0.2402, 0.0014 -0.3283 0.2402, 0.0014 -0.3257 0.2402, 0.0021 -0.3232 0.2402, 0.0034 -0.321 0.2402, 0.0047 -0.3196 0.2402, 0.0068 -0.3182 0.2402, 0.0091 -0.3173 0.2402
            ]
        }
        coordIndex [
            0,1,2,-1,3,4,5,-1,6,7,8,-1,9,10,11,-1,11,10,12,-1,5,4,13,-1,14,15,16,-1,17,18,10,-1,10,18,19,-1,10,19,12,-1,12,19,20,-1,21,22,23,-1,23,22,24,-1,23,24,25,-1,25,24,26,-1,25,26,27,-1,27,26,28,-1,27,28,29,-1,29,28,2,-1,29,2,30,-1,31,32,21,-1,21,32,33,-1,21,33,22,-1,9,11,16,-1,16,11,34,-1,16,34,14,-1,35,1,36,-1,36,1,37,-1,36,37,38,-1,39,40,41,-1,41,40,42,-1,41,42,43,-1,43,42,44,-1,43,44,45,-1,45,44,46,-1,6,8,47,-1,47,8,48,-1,47,48,49,-1,49,48,50,-1,49,50,51,-1,52,53,2,-1,2,53,54,-1,2,54,0,-1,4,55,13,-1,13,55,56,-1,13,56,57,-1,57,56,58,-1,57,58,6,-1,6,58,59,-1,6,59,7,-1,20,19,21,-1,21,19,60,-1,21,60,31,-1,44,61,46,-1,46,61,62,-1,46,62,63,-1,63,62,64,-1,63,64,65,-1,65,64,66,-1,64,67,66,-1,66,67,68,-1,66,68,69,-1,69,68,70,-1,69,70,71,-1,71,70,72,-1,71,72,73,-1,5,74,3,-1,3,74,75,-1,3,75,76,-1,76,75,77,-1,76,77,78,-1,78,77,79,-1,78,79,80,-1,35,81,1,-1,1,81,82,-1,1,82,2,-1,2,82,83,-1,2,83,30,-1,72,84,73,-1,73,84,85,-1,73,85,86,-1,86,85,87,-1,86,87,88,-1,88,87,89,-1,88,89,90,-1,90,89,91,-1,90,91,92,-1,92,91,93,-1,92,93,94,-1,95,96,97,-1,97,96,98,-1,97,98,41,-1,41,98,99,-1,41,99,39,-1,15,100,16,-1,16,100,101,-1,16,101,102,-1,102,101,103,-1,102,103,104,-1,104,103,105,-1,104,105,106,-1,106,105,107,-1,106,107,108,-1,108,107,109,-1,108,109,110,-1,110,109,111,-1,110,111,112,-1,112,111,113,-1,112,113,114,-1,114,113,38,-1,114,38,115,-1,115,38,37,-1,51,50,116,-1,116,50,117,-1,116,117,118,-1,118,117,119,-1,118,119,120,-1,120,119,121,-1,120,121,122,-1,122,121,123,-1,122,123,95,-1,95,123,124,-1,95,124,96,-1,79,125,80,-1,80,125,126,-1,80,126,127,-1,127,126,128,-1,127,128,129,-1,129,128,130,-1,129,130,131,-1,131,130,132,-1,131,132,133,-1,133,132,134,-1,133,134,52,-1,52,134,135,-1,52,135,53,-1,136,137,138,-1,139,140,136,-1,136,140,141,-1,136,141,137,-1,93,142,94,-1,94,142,136,-1,94,136,143,-1,143,136,138,-1,144,145,146,-1,145,147,146,-1,146,147,148,-1,146,148,149,-1,139,136,146,-1,146,136,150,-1,146,150,144,-1,151,46,152,-1,152,46,63,-1,152,63,153,-1,153,63,65,-1,153,65,154,-1,154,65,66,-1,154,66,155,-1,151,156,46,-1,46,156,157,-1,46,157,45,-1,45,157,158,-1,45,158,43,-1,43,158,159,-1,43,159,41,-1,41,159,160,-1,41,160,97,-1,97,160,161,-1,97,161,95,-1,95,161,162,-1,95,162,122,-1,122,162,163,-1,122,163,120,-1,120,163,164,-1,120,164,118,-1,118,164,165,-1,118,165,116,-1,116,165,166,-1,116,166,51,-1,51,166,167,-1,51,167,49,-1,49,167,168,-1,49,168,47,-1,47,168,169,-1,47,169,6,-1,6,169,170,-1,6,170,57,-1,57,170,171,-1,57,171,13,-1,13,171,172,-1,13,172,5,-1,5,172,173,-1,5,173,74,-1,74,173,174,-1,74,174,75,-1,75,174,175,-1,75,175,77,-1,125,79,176,-1,176,79,77,-1,176,77,175,-1,176,177,125,-1,125,177,178,-1,125,178,126,-1,126,178,179,-1,179,180,126,-1,126,180,181,-1,126,181,128,-1,128,181,182,-1,128,182,130,-1,130,182,183,-1,130,183,132,-1,132,183,184,-1,132,184,134,-1,134,184,185,-1,134,185,135,-1,135,185,186,-1,135,186,53,-1,53,186,187,-1,53,187,54,-1,54,187,188,-1,54,188,0,-1,188,189,0,-1,0,189,190,-1,0,190,1,-1,1,190,191,-1,1,191,37,-1,37,191,192,-1,37,192,115,-1,192,193,115,-1,115,193,194,-1,115,194,114,-1,114,194,195,-1,114,195,112,-1,196,9,16,-1,112,195,197,-1,112,197,110,-1,110,197,198,-1,110,198,108,-1,198,199,108,-1,108,199,200,-1,108,200,106,-1,106,200,201,-1,106,201,104,-1,104,201,202,-1,104,202,102,-1,102,202,203,-1,102,203,16,-1,16,203,204,-1,16,204,196,-1,10,9,205,-1,205,9,196,-1,17,10,206,-1,206,10,205,-1,18,17,207,-1,207,17,206,-1,19,18,208,-1,208,18,207,-1,19,208,209,-1,19,209,60,-1,60,209,210,-1,60,210,31,-1,31,210,211,-1,31,211,32,-1,32,211,212,-1,32,212,33,-1,33,212,213,-1,33,213,22,-1,22,213,214,-1,22,214,24,-1,24,214,215,-1,24,215,26,-1,26,215,216,-1,26,216,28,-1,28,216,217,-1,28,217,2,-1,2,217,218,-1,2,218,52,-1,52,218,219,-1,52,219,133,-1,133,219,220,-1,133,220,131,-1,131,220,221,-1,131,221,129,-1,129,221,222,-1,129,222,127,-1,222,223,127,-1,127,223,80,-1,223,224,80,-1,80,224,225,-1,80,225,78,-1,78,225,226,-1,78,226,76,-1,226,227,76,-1,76,227,228,-1,76,228,3,-1,3,228,229,-1,3,229,4,-1,4,229,230,-1,4,230,55,-1,55,230,231,-1,55,231,56,-1,56,231,232,-1,56,232,58,-1,58,232,233,-1,58,233,59,-1,59,233,234,-1,59,234,7,-1,7,234,235,-1,7,235,8,-1,8,235,236,-1,8,236,48,-1,48,236,237,-1,48,237,50,-1,50,237,238,-1,50,238,117,-1,117,238,239,-1,117,239,119,-1,240,39,241,-1,241,39,99,-1,241,99,242,-1,242,99,98,-1,242,98,243,-1,243,98,96,-1,243,96,244,-1,244,96,124,-1,244,124,245,-1,245,124,123,-1,245,123,246,-1,246,123,121,-1,246,121,247,-1,247,121,119,-1,247,119,239,-1,40,39,248,-1,248,39,240,-1,40,248,249,-1,40,249,42,-1,42,249,250,-1,42,250,44,-1,44,250,251,-1,44,251,61,-1,61,251,252,-1,61,252,62,-1,62,252,253,-1,62,253,64,-1,253,254,64,-1,64,254,255,-1,64,255,67,-1,67,255,256,-1,67,256,68,-1,68,256,257,-1,68,257,70,-1,70,257,258,-1,70,258,72,-1,72,258,259,-1,72,259,84,-1,84,259,260,-1,84,260,85,-1,85,260,261,-1,85,261,87,-1,87,261,262,-1,87,262,89,-1,89,262,263,-1,89,263,91,-1,93,91,264,-1,264,91,263,-1,93,264,265,-1,93,265,142,-1,142,265,266,-1,142,266,136,-1,136,266,267,-1,136,267,150,-1,150,267,268,-1,150,268,144,-1,144,268,269,-1,144,269,145,-1,145,269,270,-1,145,270,147,-1,147,270,271,-1,147,271,148,-1,148,271,272,-1,148,272,149,-1,149,272,273,-1,149,273,146,-1,146,273,274,-1,146,274,139,-1,139,274,275,-1,139,275,140,-1,140,275,276,-1,140,276,141,-1,141,276,277,-1,141,277,137,-1,137,277,278,-1,137,278,138,-1,138,278,279,-1,138,279,143,-1,143,279,280,-1,143,280,94,-1,94,280,281,-1,94,281,92,-1,90,92,282,-1,282,92,281,-1,90,282,283,-1,90,283,88,-1,88,283,284,-1,88,284,86,-1,86,284,285,-1,86,285,73,-1,73,285,286,-1,73,286,71,-1,71,286,287,-1,71,287,69,-1,69,287,155,-1,69,155,66,-1,20,288,289,-1,20,289,12,-1,12,289,290,-1,12,290,11,-1,11,290,291,-1,11,291,34,-1,34,291,292,-1,34,292,14,-1,14,292,293,-1,14,293,15,-1,15,293,294,-1,15,294,100,-1,100,294,295,-1,100,295,101,-1,101,295,296,-1,101,296,103,-1,103,296,297,-1,103,297,105,-1,105,297,298,-1,105,298,107,-1,107,298,299,-1,107,299,109,-1,109,299,300,-1,109,300,111,-1,111,300,301,-1,111,301,113,-1,113,301,302,-1,113,302,38,-1,38,302,303,-1,38,303,36,-1,36,303,304,-1,36,304,35,-1,35,304,305,-1,35,305,81,-1,81,305,306,-1,81,306,82,-1,82,306,307,-1,82,307,83,-1,83,307,308,-1,83,308,30,-1,30,308,309,-1,30,309,29,-1,29,309,310,-1,29,310,27,-1,27,310,311,-1,27,311,25,-1,25,311,312,-1,25,312,23,-1,23,312,313,-1,23,313,21,-1,21,313,288,-1,21,288,20,-1,
        ]
    }
}
Shape{
    appearance Appearance {
        material  Material 	{
            diffuseColor 0.2235294117647059 0.2235294117647059 0.2235294117647059
            specularColor 0.11372549019607843 0.11372549019607843 0.11372549019607843
            ambientIntensity 0.2235
            transparency 0.0
            shininess 0.5
        }
    }
    geometry IndexedFaceSet {
        ccw TRUE
        solid FALSE
        coord DEF co Coordinate {
            point [
                0.0116 -0.3375 0.2402, 0.0047 -0.3196 0.2402, 0.0034 -0.321 0.2402, 0.0116 -0.317 0.2402, 0.0134 -0.3171 0.2402, 0.0141 -0.3372 0.2402, 0.0091 -0.3173 0.2402, 0.0068 -0.3182 0.2402, 0.0184 -0.3349 0.2402, 0.0198 -0.3211 0.2402, 0.018 -0.3193 0.2402, 0.0019 -0.3307 0.2402, 0.003 -0.3329 0.2402, 0.0047 -0.3349 0.2402, 0.0164 -0.3363 0.2402, 0.0159 -0.3179 0.2402, 0.0021 -0.3232 0.2402, 0.0014 -0.3257 0.2402, 0.0014 -0.3283 0.2402, 0.0068 -0.3363 0.2402, 0.0092 -0.3372 0.2402, 0.0213 -0.3307 0.2402, 0.0218 -0.3281 0.2402, 0.0201 -0.333 0.2402, 0.0217 -0.3256 0.2402, 0.021 -0.3232 0.2402
            ]
        }
        coordIndex [
            0,1,2,-1,3,0,4,-1,4,0,5,-1,3,6,0,-1,0,6,7,-1,0,7,1,-1,8,9,10,-1,11,12,2,-1,2,12,13,-1,5,14,4,-1,4,14,8,-1,4,8,15,-1,15,8,10,-1,16,17,2,-1,2,17,18,-1,2,18,11,-1,13,19,2,-1,2,19,20,-1,2,20,0,-1,21,22,23,-1,23,22,24,-1,23,24,8,-1,8,24,25,-1,8,25,9,-1,
        ]
    }
}