#VRML V2.0 utf8
# 3D model generated by easyeda2kicad.py (https://github.com/uPesy/easyeda2kicad.py)

Shape{
    appearance Appearance {
        material  Material 	{
            diffuseColor 0.7529411764705882 0.7529411764705882 0.7529411764705882
            specularColor 0.3764705882352941 0.3764705882352941 0.3764705882352941
            ambientIntensity 0.7529
            transparency 0.0
            shininess 0.5
        }
    }
    geometry IndexedFaceSet {
        ccw TRUE
        solid FALSE
        coord DEF co Coordinate {
            point [
                0.122 0.0986 0.0, 0.2008 0.0986 0.0, 0.122 -0.0982 0.0, 0.2008 -0.0982 0.0, 0.122 0.0986 0.0039, 0.122 -0.0982 0.0039, 0.1969 0.0986 0.0039, 0.1969 -0.0982 0.0039, 0.1969 0.0986 0.0827, 0.1969 -0.0982 0.0827, 0.1417 0.0986 0.0827, 0.1417 -0.0982 0.0827, 0.1417 0.0986 0.0866, 0.1417 -0.0982 0.0866, 0.2008 0.0986 0.0866, 0.2008 -0.0982 0.0866, -0.2008 0.0986 0.0, -0.122 0.0986 0.0, -0.2008 -0.0982 0.0, -0.122 -0.0982 0.0, -0.122 0.0986 0.0039, -0.122 -0.0982 0.0039, -0.1969 0.0986 0.0039, -0.1969 -0.0982 0.0039, -0.1969 0.0986 0.0827, -0.1969 -0.0982 0.0827, -0.1417 0.0986 0.0827, -0.1417 -0.0982 0.0827, -0.1417 0.0986 0.0866, -0.1417 -0.0982 0.0866, -0.2008 0.0986 0.0866, -0.2008 -0.0982 0.0866
            ]
        }
        coordIndex [
            0,1,2,-1,2,1,3,-1,4,0,5,-1,5,0,2,-1,6,4,7,-1,7,4,5,-1,8,6,9,-1,9,6,7,-1,10,8,11,-1,11,8,9,-1,12,10,13,-1,13,10,11,-1,14,12,15,-1,15,12,13,-1,1,14,3,-1,3,14,15,-1,10,12,8,-1,8,12,14,-1,8,14,6,-1,6,14,1,-1,6,1,4,-1,4,1,0,-1,5,2,7,-1,7,2,3,-1,7,3,9,-1,9,3,15,-1,9,15,11,-1,11,15,13,-1,16,17,18,-1,18,17,19,-1,17,20,19,-1,19,20,21,-1,20,22,21,-1,21,22,23,-1,22,24,23,-1,23,24,25,-1,24,26,25,-1,25,26,27,-1,26,28,27,-1,27,28,29,-1,28,30,29,-1,29,30,31,-1,30,16,31,-1,31,16,18,-1,20,17,22,-1,22,17,16,-1,22,16,24,-1,24,16,30,-1,24,30,26,-1,26,30,28,-1,27,29,25,-1,25,29,31,-1,25,31,23,-1,23,31,18,-1,23,18,21,-1,21,18,19,-1,
        ]
    }
}
Shape{
    appearance Appearance {
        material  Material 	{
            diffuseColor 0.0 0.5019607843137255 0.0
            specularColor 0.0 0.25098039215686274 0.0
            ambientIntensity 0.2947
            transparency 0.0
            shininess 0.5
        }
    }
    geometry IndexedFaceSet {
        ccw TRUE
        solid FALSE
        coord DEF co Coordinate {
            point [
                0.1324 0.0986 0.1811, 0.1324 -0.0982 0.1811, 0.1324 0.0986 0.0827, 0.1324 -0.0982 0.0827, -0.1324 0.0986 0.1811, -0.1324 0.0986 0.0827, -0.1324 -0.0982 0.1811, -0.1324 -0.0982 0.0827
            ]
        }
        coordIndex [
            0,1,2,-1,2,1,3,-1,4,0,5,-1,5,0,2,-1,6,4,7,-1,7,4,5,-1,1,6,3,-1,3,6,7,-1,4,6,0,-1,0,6,1,-1,7,5,3,-1,3,5,2,-1,
        ]
    }
}
Shape{
    appearance Appearance {
        material  Material 	{
            diffuseColor 1.0 1.0 1.0
            specularColor 0.5019607843137255 0.5019607843137255 0.5019607843137255
            ambientIntensity 1.0
            transparency 0.0
            shininess 0.5
        }
    }
    geometry IndexedFaceSet {
        ccw TRUE
        solid FALSE
        coord DEF co Coordinate {
            point [
                0.1969 0.0986 0.0039, 0.1969 -0.0982 0.0039, 0.019 -0.0273 0.0039, -0.1969 -0.0982 0.0039, -0.0248 0.0002 0.0039, -0.1969 0.0986 0.0039, 0.019 0.0277 0.0039, 0.1969 0.0986 0.0827, 0.1969 -0.0982 0.0827, -0.1969 0.0986 0.0827, -0.1969 -0.0982 0.0827
            ]
        }
        coordIndex [
            0,1,2,-1,2,1,3,-1,2,3,4,-1,4,3,5,-1,4,5,6,-1,6,5,0,-1,6,0,2,-1,7,8,0,-1,0,8,1,-1,9,7,5,-1,5,7,0,-1,10,9,3,-1,3,9,5,-1,8,10,1,-1,1,10,3,-1,9,10,7,-1,7,10,8,-1,
        ]
    }
}
Shape{
    appearance Appearance {
        material  Material 	{
            diffuseColor 0.0 0.5019607843137255 0.0
            specularColor 0.0 0.25098039215686274 0.0
            ambientIntensity 0.2947
            transparency 0.0
            shininess 0.5
        }
    }
    geometry IndexedFaceSet {
        ccw TRUE
        solid FALSE
        coord DEF co Coordinate {
            point [
                0.019 0.0277 0.0035, -0.0248 0.0002 0.0035, 0.019 0.0277 0.0039, -0.0248 0.0002 0.0039, 0.019 -0.0273 0.0035, 0.019 -0.0273 0.0039
            ]
        }
        coordIndex [
            0,1,2,-1,2,1,3,-1,4,0,5,-1,5,0,2,-1,1,4,3,-1,3,4,5,-1,0,4,1,-1,
        ]
    }
}
Shape{
    appearance Appearance {
        material  Material 	{
            diffuseColor 0.0 0.0 0.0
            specularColor 0.0 0.0 0.0
            ambientIntensity 0.0
            transparency 0.0
            shininess 0.5
        }
    }
    geometry IndexedFaceSet {
        ccw TRUE
        solid FALSE
        coord DEF co Coordinate {
            point [
                0.0121 -0.0986 0.0477, 0.0121 -0.0986 0.0462, 0.0121 -0.0982 0.0477, 0.0121 -0.0982 0.0462, 0.0068 -0.0986 0.0477, 0.0068 -0.0982 0.0477, 0.0068 -0.0986 0.0596, 0.0068 -0.0982 0.0596, 0.005 -0.0986 0.0596, 0.005 -0.0982 0.0596, 0.005 -0.0986 0.0462, 0.005 -0.0982 0.0462, 0.0189 -0.0986 0.046, 0.0189 -0.0982 0.046, 0.0197 -0.0982 0.046, 0.0197 -0.0986 0.046, 0.0205 -0.0982 0.0461, 0.0205 -0.0986 0.0461, 0.0212 -0.0982 0.0462, 0.0212 -0.0986 0.0462, 0.0218 -0.0982 0.0464, 0.0218 -0.0986 0.0464, 0.0224 -0.0982 0.0466, 0.0224 -0.0986 0.0466, 0.0226 -0.0982 0.0468, 0.0226 -0.0986 0.0468, 0.0226 -0.0986 0.0484, 0.0226 -0.0982 0.0484, 0.0221 -0.0982 0.0481, 0.0221 -0.0986 0.0481, 0.0216 -0.0982 0.0479, 0.0216 -0.0986 0.0479, 0.021 -0.0982 0.0477, 0.021 -0.0986 0.0477, 0.0204 -0.0982 0.0476, 0.0204 -0.0986 0.0476, 0.0198 -0.0982 0.0475, 0.0198 -0.0986 0.0475, 0.0192 -0.0982 0.0475, 0.0192 -0.0986 0.0475, 0.0186 -0.0982 0.0475, 0.0186 -0.0986 0.0475, 0.0181 -0.0982 0.0476, 0.0181 -0.0986 0.0476, 0.0175 -0.0982 0.0478, 0.0175 -0.0986 0.0478, 0.0171 -0.0982 0.0479, 0.0171 -0.0986 0.0479, 0.0167 -0.0982 0.0482, 0.0167 -0.0986 0.0482, 0.0162 -0.0982 0.0485, 0.0162 -0.0986 0.0485, 0.0159 -0.0982 0.0488, 0.0159 -0.0986 0.0488, 0.0157 -0.0982 0.0489, 0.0157 -0.0986 0.0489, 0.0154 -0.0982 0.0493, 0.0154 -0.0986 0.0493, 0.0151 -0.0982 0.0497, 0.0151 -0.0986 0.0497, 0.0149 -0.0982 0.0502, 0.0149 -0.0986 0.0502, 0.0147 -0.0982 0.0507, 0.0147 -0.0986 0.0507, 0.0146 -0.0982 0.0512, 0.0146 -0.0986 0.0512, 0.0145 -0.0982 0.0518, 0.0145 -0.0986 0.0518, 0.0144 -0.0982 0.0525, 0.0144 -0.0986 0.0525, 0.0144 -0.0982 0.0527, 0.0144 -0.0986 0.0527, 0.0145 -0.0982 0.0534, 0.0145 -0.0986 0.0534, 0.0145 -0.0982 0.0541, 0.0145 -0.0986 0.0541, 0.0147 -0.0982 0.0547, 0.0147 -0.0986 0.0547, 0.0149 -0.0982 0.0552, 0.0149 -0.0986 0.0552, 0.0151 -0.0982 0.0557, 0.0151 -0.0986 0.0557, 0.0154 -0.0982 0.0561, 0.0154 -0.0986 0.0561, 0.0157 -0.0982 0.0566, 0.0157 -0.0986 0.0566, 0.0158 -0.0982 0.0567, 0.0158 -0.0986 0.0567, 0.0162 -0.0982 0.0571, 0.0162 -0.0986 0.0571, 0.0166 -0.0982 0.0574, 0.0166 -0.0986 0.0574, 0.0171 -0.0982 0.0577, 0.0171 -0.0986 0.0577, 0.0175 -0.0982 0.0579, 0.0175 -0.0986 0.0579, 0.018 -0.0982 0.058, 0.018 -0.0986 0.058, 0.0185 -0.0982 0.0582, 0.0185 -0.0986 0.0582, 0.0191 -0.0982 0.0582, 0.0191 -0.0986 0.0582, 0.0195 -0.0982 0.0582, 0.0195 -0.0986 0.0582, 0.0201 -0.0982 0.0582, 0.0201 -0.0986 0.0582, 0.0207 -0.0982 0.0581, 0.0207 -0.0986 0.0581, 0.0213 -0.0982 0.058, 0.0213 -0.0986 0.058, 0.0219 -0.0982 0.0578, 0.0219 -0.0986 0.0578, 0.0224 -0.0982 0.0575, 0.0224 -0.0986 0.0575, 0.0226 -0.0982 0.0574, 0.0226 -0.0986 0.0574, 0.0226 -0.0986 0.0592, 0.0226 -0.0982 0.0592, 0.0221 -0.0982 0.0594, 0.0221 -0.0986 0.0594, 0.0215 -0.0982 0.0596, 0.0215 -0.0986 0.0596, 0.0209 -0.0982 0.0597, 0.0209 -0.0986 0.0597, 0.0202 -0.0982 0.0598, 0.0202 -0.0986 0.0598, 0.0195 -0.0982 0.0598, 0.0195 -0.0986 0.0598, 0.0188 -0.0982 0.0598, 0.0188 -0.0986 0.0598, 0.0181 -0.0982 0.0597, 0.0181 -0.0986 0.0597, 0.0175 -0.0982 0.0595, 0.0175 -0.0986 0.0595, 0.0169 -0.0982 0.0593, 0.0169 -0.0986 0.0593, 0.0163 -0.0982 0.0591, 0.0163 -0.0986 0.0591, 0.0158 -0.0982 0.0588, 0.0158 -0.0986 0.0588, 0.0153 -0.0982 0.0585, 0.0153 -0.0986 0.0585, 0.0149 -0.0982 0.0581, 0.0149 -0.0986 0.0581, 0.0146 -0.0982 0.0578, 0.0146 -0.0986 0.0578, 0.0141 -0.0982 0.0574, 0.0141 -0.0986 0.0574, 0.0138 -0.0982 0.0569, 0.0138 -0.0986 0.0569, 0.0135 -0.0982 0.0564, 0.0135 -0.0986 0.0564, 0.0132 -0.0982 0.0558, 0.0132 -0.0986 0.0558, 0.013 -0.0982 0.0552, 0.013 -0.0986 0.0552, 0.0128 -0.0982 0.0546, 0.0128 -0.0986 0.0546, 0.0127 -0.0982 0.054, 0.0127 -0.0986 0.054, 0.0126 -0.0982 0.0533, 0.0126 -0.0986 0.0533, 0.0126 -0.0982 0.0526, 0.0126 -0.0986 0.0526, 0.0127 -0.0982 0.0519, 0.0127 -0.0986 0.0519, 0.0127 -0.0982 0.0512, 0.0127 -0.0986 0.0512, 0.0129 -0.0982 0.0505, 0.0129 -0.0986 0.0505, 0.0131 -0.0982 0.0499, 0.0131 -0.0986 0.0499, 0.0133 -0.0982 0.0494, 0.0133 -0.0986 0.0494, 0.0136 -0.0982 0.0488, 0.0136 -0.0986 0.0488, 0.0139 -0.0982 0.0483, 0.0139 -0.0986 0.0483, 0.0142 -0.0982 0.0479, 0.0142 -0.0986 0.0479, 0.0143 -0.0982 0.0478, 0.0143 -0.0986 0.0478, 0.0148 -0.0982 0.0474, 0.0148 -0.0986 0.0474, 0.0152 -0.0982 0.0471, 0.0152 -0.0986 0.0471, 0.0157 -0.0982 0.0468, 0.0157 -0.0986 0.0468, 0.0162 -0.0982 0.0465, 0.0162 -0.0986 0.0465, 0.0167 -0.0982 0.0463, 0.0167 -0.0986 0.0463, 0.0173 -0.0982 0.0462, 0.0173 -0.0986 0.0462, 0.0179 -0.0982 0.046, 0.0179 -0.0986 0.046, 0.0185 -0.0982 0.046, 0.0185 -0.0986 0.046, 0.0325 -0.0986 0.0477, 0.0325 -0.0986 0.0462, 0.0325 -0.0982 0.0477, 0.0325 -0.0982 0.0462, 0.027 -0.0986 0.0477, 0.027 -0.0982 0.0477, 0.027 -0.0986 0.0522, 0.027 -0.0982 0.0522, 0.0318 -0.0986 0.0522, 0.0318 -0.0982 0.0522, 0.0318 -0.0986 0.0537, 0.0318 -0.0982 0.0537, 0.027 -0.0986 0.0537, 0.027 -0.0982 0.0537, 0.027 -0.0986 0.058, 0.027 -0.0982 0.058, 0.0322 -0.0986 0.058, 0.0322 -0.0982 0.058, 0.0322 -0.0986 0.0596, 0.0322 -0.0982 0.0596, 0.0253 -0.0986 0.0596, 0.0253 -0.0982 0.0596, 0.0253 -0.0986 0.0462, 0.0253 -0.0982 0.0462, 0.0411 -0.0986 0.0482, 0.0421 -0.0986 0.0469, 0.0416 -0.0986 0.0484, 0.0426 -0.0986 0.0472, 0.0421 -0.0986 0.0487, 0.0431 -0.0986 0.0475, 0.0425 -0.0986 0.049, 0.0436 -0.0986 0.0479, 0.0426 -0.0986 0.0491, 0.0438 -0.0986 0.0481, 0.043 -0.0986 0.0495, 0.0443 -0.0986 0.0485, 0.0432 -0.0986 0.0499, 0.0446 -0.0986 0.049, 0.0435 -0.0986 0.0503, 0.045 -0.0986 0.0495, 0.0437 -0.0986 0.0508, 0.0439 -0.0986 0.0543, 0.0456 -0.0986 0.055, 0.0438 -0.0986 0.0548, 0.0454 -0.0986 0.0556, 0.0436 -0.0986 0.0553, 0.0452 -0.0986 0.0561, 0.0434 -0.0986 0.0558, 0.0449 -0.0986 0.0566, 0.0431 -0.0986 0.0562, 0.0446 -0.0986 0.057, 0.0442 -0.0986 0.0575, 0.0428 -0.0986 0.0565, 0.0438 -0.0986 0.0578, 0.0426 -0.0986 0.0568, 0.0433 -0.0986 0.0582, 0.0422 -0.0986 0.0571, 0.0428 -0.0986 0.0585, 0.0417 -0.0986 0.0574, 0.0423 -0.0986 0.0588, 0.0412 -0.0986 0.0576, 0.0417 -0.0986 0.0591, 0.0407 -0.0986 0.0578, 0.0411 -0.0986 0.0593, 0.0402 -0.0986 0.0579, 0.0404 -0.0986 0.0594, 0.0395 -0.0986 0.058, 0.0398 -0.0986 0.0595, 0.0389 -0.0986 0.058, 0.039 -0.0986 0.0596, 0.0387 -0.0986 0.058, 0.0388 -0.0986 0.0596, 0.0367 -0.0986 0.058, 0.035 -0.0986 0.0596, 0.0367 -0.0986 0.0477, 0.035 -0.0986 0.0462, 0.0387 -0.0986 0.0477, 0.0387 -0.0986 0.0462, 0.0394 -0.0986 0.0478, 0.0394 -0.0986 0.0462, 0.04 -0.0986 0.0478, 0.0402 -0.0986 0.0463, 0.0406 -0.0986 0.048, 0.0408 -0.0986 0.0465, 0.0415 -0.0986 0.0466, 0.0452 -0.0986 0.05, 0.0455 -0.0986 0.0505, 0.0439 -0.0986 0.0513, 0.0456 -0.0986 0.0511, 0.044 -0.0986 0.0519, 0.0458 -0.0986 0.0517, 0.044 -0.0986 0.0525, 0.0458 -0.0986 0.0524, 0.044 -0.0986 0.053, 0.0459 -0.0986 0.0531, 0.044 -0.0986 0.0537, 0.0458 -0.0986 0.0537, 0.0457 -0.0986 0.0544, 0.0422 -0.0982 0.0571, 0.0433 -0.0982 0.0582, 0.0426 -0.0982 0.0568, 0.0438 -0.0982 0.0578, 0.0428 -0.0982 0.0565, 0.0442 -0.0982 0.0575, 0.0431 -0.0982 0.0562, 0.0446 -0.0982 0.057, 0.0434 -0.0982 0.0558, 0.0449 -0.0982 0.0566, 0.0436 -0.0982 0.0553, 0.0452 -0.0982 0.0561, 0.0438 -0.0982 0.0548, 0.0416 -0.0982 0.0484, 0.0421 -0.0982 0.0469, 0.0411 -0.0982 0.0482, 0.0415 -0.0982 0.0466, 0.0406 -0.0982 0.048, 0.0408 -0.0982 0.0465, 0.04 -0.0982 0.0478, 0.0402 -0.0982 0.0463, 0.0394 -0.0982 0.0478, 0.0394 -0.0982 0.0462, 0.0387 -0.0982 0.0477, 0.0387 -0.0982 0.0462, 0.0367 -0.0982 0.0477, 0.035 -0.0982 0.0462, 0.0367 -0.0982 0.058, 0.035 -0.0982 0.0596, 0.0387 -0.0982 0.058, 0.0388 -0.0982 0.0596, 0.0389 -0.0982 0.058, 0.039 -0.0982 0.0596, 0.0395 -0.0982 0.058, 0.0398 -0.0982 0.0595, 0.0402 -0.0982 0.0579, 0.0404 -0.0982 0.0594, 0.0407 -0.0982 0.0578, 0.0411 -0.0982 0.0593, 0.0412 -0.0982 0.0576, 0.0417 -0.0982 0.0591, 0.0417 -0.0982 0.0574, 0.0423 -0.0982 0.0588, 0.0428 -0.0982 0.0585, 0.0439 -0.0982 0.0513, 0.0455 -0.0982 0.0505, 0.0437 -0.0982 0.0508, 0.0452 -0.0982 0.05, 0.0435 -0.0982 0.0503, 0.045 -0.0982 0.0495, 0.0432 -0.0982 0.0499, 0.0446 -0.0982 0.049, 0.043 -0.0982 0.0495, 0.0443 -0.0982 0.0485, 0.0426 -0.0982 0.0491, 0.0438 -0.0982 0.0481, 0.0425 -0.0982 0.049, 0.0436 -0.0982 0.0479, 0.0421 -0.0982 0.0487, 0.0431 -0.0982 0.0475, 0.0426 -0.0982 0.0472, 0.0454 -0.0982 0.0556, 0.0456 -0.0982 0.055, 0.0439 -0.0982 0.0543, 0.0457 -0.0982 0.0544, 0.044 -0.0982 0.0537, 0.0458 -0.0982 0.0537, 0.044 -0.0982 0.053, 0.0459 -0.0982 0.0531, 0.044 -0.0982 0.0525, 0.0458 -0.0982 0.0524, 0.044 -0.0982 0.0519, 0.0458 -0.0982 0.0517, 0.0456 -0.0982 0.0511, 0.0503 -0.0986 0.0514, 0.0498 -0.0986 0.0499, 0.0548 -0.0986 0.0514, 0.0553 -0.0986 0.0499, 0.0523 -0.0986 0.0569, 0.0517 -0.0986 0.0596, 0.0466 -0.0986 0.0462, 0.0485 -0.0986 0.0462, 0.0524 -0.0986 0.0573, 0.0525 -0.0986 0.0578, 0.0535 -0.0986 0.0596, 0.0526 -0.0986 0.0578, 0.0527 -0.0986 0.0573, 0.0528 -0.0986 0.0569, 0.0586 -0.0986 0.0462, 0.0567 -0.0986 0.0462, 0.0548 -0.0982 0.0514, 0.0528 -0.0982 0.0569, 0.0535 -0.0982 0.0596, 0.0527 -0.0982 0.0573, 0.0526 -0.0982 0.0578, 0.0517 -0.0982 0.0596, 0.0525 -0.0982 0.0578, 0.0524 -0.0982 0.0573, 0.0523 -0.0982 0.0569, 0.0503 -0.0982 0.0514, 0.0466 -0.0982 0.0462, 0.0586 -0.0982 0.0462, 0.0567 -0.0982 0.0462, 0.0553 -0.0982 0.0499, 0.0485 -0.0982 0.0462, 0.0498 -0.0982 0.0499, 0.0122 -0.0986 0.0266, 0.0122 -0.0986 0.025, 0.0122 -0.0982 0.0266, 0.0122 -0.0982 0.025, 0.0068 -0.0986 0.0266, 0.0068 -0.0982 0.0266, 0.0068 -0.0986 0.031, 0.0068 -0.0982 0.031, 0.0115 -0.0986 0.031, 0.0115 -0.0982 0.031, 0.0115 -0.0986 0.0326, 0.0115 -0.0982 0.0326, 0.0068 -0.0986 0.0326, 0.0068 -0.0982 0.0326, 0.0068 -0.0986 0.0368, 0.0068 -0.0982 0.0368, 0.0119 -0.0986 0.0368, 0.0119 -0.0982 0.0368, 0.0119 -0.0986 0.0384, 0.0119 -0.0982 0.0384, 0.005 -0.0986 0.0384, 0.005 -0.0982 0.0384, 0.005 -0.0986 0.025, 0.005 -0.0982 0.025, 0.0198 -0.0986 0.025, 0.0215 -0.0986 0.025, 0.0198 -0.0986 0.0265, 0.0215 -0.0986 0.0312, 0.0185 -0.0986 0.0333, 0.0188 -0.0986 0.0333, 0.0195 -0.0986 0.0346, 0.0155 -0.0986 0.0303, 0.0152 -0.0986 0.0301, 0.0161 -0.0986 0.0291, 0.016 -0.0986 0.0289, 0.0198 -0.0986 0.0345, 0.019 -0.0986 0.0331, 0.0201 -0.0986 0.0343, 0.0192 -0.0986 0.033, 0.0204 -0.0986 0.0341, 0.0149 -0.0986 0.0299, 0.0146 -0.0986 0.0297, 0.0158 -0.0986 0.0288, 0.0206 -0.0986 0.0339, 0.0194 -0.0986 0.0328, 0.0208 -0.0986 0.0336, 0.0146 -0.0986 0.0297, 0.0144 -0.0986 0.0294, 0.0157 -0.0986 0.0285, 0.0142 -0.0986 0.0292, 0.0156 -0.0986 0.0283, 0.016 -0.0986 0.0305, 0.0164 -0.0986 0.0292, 0.0165 -0.0986 0.0306, 0.0167 -0.0986 0.0293, 0.017 -0.0986 0.0307, 0.0158 -0.0986 0.0268, 0.0157 -0.0986 0.027, 0.0143 -0.0986 0.0259, 0.0155 -0.0986 0.0275, 0.0139 -0.0986 0.0268, 0.0156 -0.0986 0.0272, 0.014 -0.0986 0.0265, 0.0141 -0.0986 0.0262, 0.0195 -0.0986 0.0275, 0.0198 -0.0986 0.0265, 0.0193 -0.0986 0.0272, 0.0197 -0.0986 0.0264, 0.0176 -0.0986 0.0262, 0.018 -0.0986 0.025, 0.018 -0.0986 0.0263, 0.0184 -0.0986 0.0251, 0.0183 -0.0986 0.0264, 0.0187 -0.0986 0.0253, 0.0185 -0.0986 0.0265, 0.0198 -0.0986 0.0288, 0.0198 -0.0986 0.0285, 0.0197 -0.0986 0.0281, 0.0196 -0.0986 0.0278, 0.021 -0.0986 0.0334, 0.0195 -0.0986 0.0325, 0.0212 -0.0986 0.033, 0.0196 -0.0986 0.0323, 0.0213 -0.0986 0.0326, 0.0197 -0.0986 0.032, 0.0214 -0.0986 0.0322, 0.0198 -0.0986 0.0298, 0.0198 -0.0986 0.0311, 0.0176 -0.0986 0.0295, 0.0171 -0.0986 0.0294, 0.0189 -0.0986 0.0255, 0.0192 -0.0986 0.0258, 0.0188 -0.0986 0.0267, 0.0195 -0.0986 0.0261, 0.019 -0.0986 0.0269, 0.0191 -0.0986 0.027, 0.0215 -0.0986 0.0317, 0.0198 -0.0986 0.0316, 0.0198 -0.0986 0.0312, 0.016 -0.0986 0.0266, 0.0152 -0.0986 0.0252, 0.0162 -0.0986 0.0265, 0.0155 -0.0986 0.025, 0.0164 -0.0986 0.0263, 0.0158 -0.0986 0.0249, 0.0167 -0.0986 0.0263, 0.0145 -0.0986 0.0257, 0.0146 -0.0986 0.0256, 0.0149 -0.0986 0.0254, 0.0141 -0.0986 0.0289, 0.0139 -0.0986 0.0286, 0.0155 -0.0986 0.028, 0.0139 -0.0986 0.0282, 0.0155 -0.0986 0.0277, 0.0198 -0.0986 0.0289, 0.0191 -0.0986 0.0347, 0.0187 -0.0986 0.0348, 0.0182 -0.0986 0.0334, 0.0182 -0.0986 0.0348, 0.0179 -0.0986 0.0334, 0.018 -0.0986 0.0348, 0.0177 -0.0986 0.0334, 0.0175 -0.0986 0.0348, 0.0173 -0.0986 0.0334, 0.0169 -0.0986 0.0347, 0.0168 -0.0986 0.0333, 0.0164 -0.0986 0.0346, 0.0164 -0.0986 0.0332, 0.0159 -0.0986 0.0345, 0.016 -0.0986 0.033, 0.0155 -0.0986 0.0343, 0.0156 -0.0986 0.0328, 0.015 -0.0986 0.0341, 0.0152 -0.0986 0.0326, 0.0148 -0.0986 0.0339, 0.0148 -0.0986 0.0323, 0.0162 -0.0986 0.0249, 0.0166 -0.0986 0.0248, 0.017 -0.0986 0.0262, 0.0168 -0.0986 0.0248, 0.0173 -0.0986 0.0262, 0.0173 -0.0986 0.0248, 0.0177 -0.0986 0.0249, 0.0138 -0.0986 0.0278, 0.0138 -0.0986 0.0276, 0.0138 -0.0986 0.0272, 0.0152 -0.0982 0.0326, 0.0148 -0.0982 0.0323, 0.0148 -0.0982 0.0339, 0.0201 -0.0982 0.0343, 0.0192 -0.0982 0.033, 0.019 -0.0982 0.0331, 0.0197 -0.0982 0.0281, 0.0198 -0.0982 0.0285, 0.0215 -0.0982 0.0312, 0.0204 -0.0982 0.0341, 0.0206 -0.0982 0.0339, 0.0194 -0.0982 0.0328, 0.0208 -0.0982 0.0336, 0.0195 -0.0982 0.0325, 0.021 -0.0982 0.0334, 0.0196 -0.0982 0.0323, 0.0182 -0.0982 0.0334, 0.0187 -0.0982 0.0348, 0.0185 -0.0982 0.0333, 0.0191 -0.0982 0.0347, 0.0188 -0.0982 0.0333, 0.0195 -0.0982 0.0346, 0.0198 -0.0982 0.0345, 0.0196 -0.0982 0.0278, 0.0198 -0.0982 0.0265, 0.0198 -0.0982 0.025, 0.0215 -0.0982 0.025, 0.016 -0.0982 0.0289, 0.0158 -0.0982 0.0288, 0.0146 -0.0982 0.0297, 0.0158 -0.0982 0.0268, 0.0143 -0.0982 0.0259, 0.0157 -0.0982 0.027, 0.0141 -0.0982 0.0262, 0.0156 -0.0982 0.0272, 0.0149 -0.0982 0.0299, 0.0152 -0.0982 0.0301, 0.0161 -0.0982 0.0291, 0.0155 -0.0982 0.0303, 0.0164 -0.0982 0.0292, 0.016 -0.0982 0.0305, 0.0167 -0.0982 0.0293, 0.0165 -0.0982 0.0306, 0.0171 -0.0982 0.0294, 0.017 -0.0982 0.0307, 0.0157 -0.0982 0.0285, 0.0144 -0.0982 0.0294, 0.0146 -0.0982 0.0297, 0.0198 -0.0982 0.0298, 0.0215 -0.0982 0.0317, 0.0198 -0.0982 0.0289, 0.0198 -0.0982 0.0288, 0.014 -0.0982 0.0265, 0.0139 -0.0982 0.0268, 0.0155 -0.0982 0.0275, 0.016 -0.0982 0.0266, 0.0146 -0.0982 0.0256, 0.0145 -0.0982 0.0257, 0.0162 -0.0982 0.0265, 0.0152 -0.0982 0.0252, 0.0149 -0.0982 0.0254, 0.0212 -0.0982 0.033, 0.0213 -0.0982 0.0326, 0.0197 -0.0982 0.032, 0.0214 -0.0982 0.0322, 0.0198 -0.0982 0.0316, 0.0198 -0.0982 0.0312, 0.0198 -0.0982 0.0311, 0.0176 -0.0982 0.0295, 0.0155 -0.0982 0.028, 0.0139 -0.0982 0.0286, 0.0156 -0.0982 0.0283, 0.0141 -0.0982 0.0289, 0.0142 -0.0982 0.0292, 0.0138 -0.0982 0.0272, 0.0138 -0.0982 0.0276, 0.0155 -0.0982 0.0277, 0.0138 -0.0982 0.0278, 0.0139 -0.0982 0.0282, 0.0156 -0.0982 0.0328, 0.015 -0.0982 0.0341, 0.016 -0.0982 0.033, 0.0155 -0.0982 0.0343, 0.0164 -0.0982 0.0332, 0.0159 -0.0982 0.0345, 0.0168 -0.0982 0.0333, 0.0164 -0.0982 0.0346, 0.0173 -0.0982 0.0334, 0.0169 -0.0982 0.0347, 0.0177 -0.0982 0.0334, 0.0175 -0.0982 0.0348, 0.0179 -0.0982 0.0334, 0.018 -0.0982 0.0348, 0.0182 -0.0982 0.0348, 0.0197 -0.0982 0.0264, 0.0195 -0.0982 0.0261, 0.0188 -0.0982 0.0267, 0.0192 -0.0982 0.0258, 0.0185 -0.0982 0.0265, 0.0189 -0.0982 0.0255, 0.0183 -0.0982 0.0264, 0.0187 -0.0982 0.0253, 0.018 -0.0982 0.0263, 0.017 -0.0982 0.0262, 0.0166 -0.0982 0.0248, 0.0167 -0.0982 0.0263, 0.0162 -0.0982 0.0249, 0.0164 -0.0982 0.0263, 0.0158 -0.0982 0.0249, 0.0155 -0.0982 0.025, 0.0184 -0.0982 0.0251, 0.018 -0.0982 0.025, 0.0176 -0.0982 0.0262, 0.0177 -0.0982 0.0249, 0.0173 -0.0982 0.0262, 0.0173 -0.0982 0.0248, 0.0168 -0.0982 0.0248, 0.019 -0.0982 0.0269, 0.0191 -0.0982 0.027, 0.0198 -0.0982 0.0265, 0.0193 -0.0982 0.0272, 0.0195 -0.0982 0.0275, 0.0265 -0.0986 0.0262, 0.0265 -0.0982 0.0262, 0.0261 -0.0982 0.0262, 0.0261 -0.0986 0.0262, 0.0256 -0.0982 0.0263, 0.0256 -0.0986 0.0263, 0.0252 -0.0982 0.0264, 0.0252 -0.0986 0.0264, 0.0248 -0.0982 0.0265, 0.0248 -0.0986 0.0265, 0.0244 -0.0982 0.0267, 0.0244 -0.0986 0.0267, 0.024 -0.0982 0.0269, 0.024 -0.0986 0.0269, 0.0237 -0.0982 0.0271, 0.0237 -0.0986 0.0271, 0.0237 -0.0986 0.0254, 0.0237 -0.0982 0.0254, 0.0242 -0.0982 0.0252, 0.0242 -0.0986 0.0252, 0.0246 -0.0982 0.025, 0.0246 -0.0986 0.025, 0.0251 -0.0982 0.0249, 0.0251 -0.0986 0.0249, 0.0256 -0.0982 0.0249, 0.0256 -0.0986 0.0249, 0.0261 -0.0982 0.0248, 0.0261 -0.0986 0.0248, 0.0263 -0.0982 0.0248, 0.0263 -0.0986 0.0248, 0.0269 -0.0982 0.0248, 0.0269 -0.0986 0.0248, 0.0274 -0.0982 0.0249, 0.0274 -0.0986 0.0249, 0.0279 -0.0982 0.025, 0.0279 -0.0986 0.025, 0.0283 -0.0982 0.0251, 0.0283 -0.0986 0.0251, 0.0287 -0.0982 0.0253, 0.0287 -0.0986 0.0253, 0.029 -0.0982 0.0255, 0.029 -0.0986 0.0255, 0.0291 -0.0982 0.0256, 0.0291 -0.0986 0.0256, 0.0294 -0.0982 0.0258, 0.0294 -0.0986 0.0258, 0.0296 -0.0982 0.026, 0.0296 -0.0986 0.026, 0.0298 -0.0982 0.0263, 0.0298 -0.0986 0.0263, 0.03 -0.0982 0.0266, 0.03 -0.0986 0.0266, 0.0301 -0.0982 0.0268, 0.0301 -0.0986 0.0268, 0.0301 -0.0982 0.0272, 0.0301 -0.0986 0.0272, 0.0302 -0.0982 0.0275, 0.0302 -0.0986 0.0275, 0.0302 -0.0982 0.0276, 0.0302 -0.0986 0.0276, 0.0302 -0.0982 0.028, 0.0302 -0.0986 0.028, 0.0301 -0.0982 0.0283, 0.0301 -0.0986 0.0283, 0.03 -0.0982 0.0286, 0.03 -0.0986 0.0286, 0.0299 -0.0982 0.0289, 0.0299 -0.0986 0.0289, 0.0297 -0.0982 0.0291, 0.0297 -0.0986 0.0291, 0.0296 -0.0982 0.0292, 0.0296 -0.0986 0.0292, 0.0294 -0.0982 0.0294, 0.0294 -0.0986 0.0294, 0.0291 -0.0982 0.0296, 0.0291 -0.0986 0.0296, 0.0288 -0.0982 0.0299, 0.0288 -0.0986 0.0299, 0.0283 -0.0982 0.0301, 0.0283 -0.0986 0.0301, 0.0277 -0.0982 0.0303, 0.0277 -0.0986 0.0303, 0.0275 -0.0982 0.0304, 0.0275 -0.0986 0.0304, 0.0267 -0.0982 0.0308, 0.0267 -0.0986 0.0308, 0.0263 -0.0982 0.031, 0.0263 -0.0986 0.031, 0.026 -0.0982 0.0312, 0.026 -0.0986 0.0312, 0.0258 -0.0982 0.0313, 0.0258 -0.0986 0.0313, 0.0257 -0.0982 0.0314, 0.0257 -0.0986 0.0314, 0.0256 -0.0982 0.0316, 0.0256 -0.0986 0.0316, 0.0255 -0.0982 0.0318, 0.0255 -0.0986 0.0318, 0.0255 -0.0982 0.032, 0.0255 -0.0986 0.032, 0.0255 -0.0982 0.0321, 0.0255 -0.0986 0.0321, 0.0255 -0.0982 0.0324, 0.0255 -0.0986 0.0324, 0.0256 -0.0982 0.0326, 0.0256 -0.0986 0.0326, 0.0257 -0.0982 0.0328, 0.0257 -0.0986 0.0328, 0.0258 -0.0982 0.0329, 0.0258 -0.0986 0.0329, 0.026 -0.0982 0.0331, 0.026 -0.0986 0.0331, 0.0262 -0.0982 0.0332, 0.0262 -0.0986 0.0332, 0.0265 -0.0982 0.0333, 0.0265 -0.0986 0.0333, 0.0268 -0.0982 0.0334, 0.0268 -0.0986 0.0334, 0.0271 -0.0982 0.0334, 0.0271 -0.0986 0.0334, 0.0273 -0.0982 0.0334, 0.0273 -0.0986 0.0334, 0.0278 -0.0982 0.0334, 0.0278 -0.0986 0.0334, 0.0282 -0.0982 0.0333, 0.0282 -0.0986 0.0333, 0.0286 -0.0982 0.0332, 0.0286 -0.0986 0.0332, 0.029 -0.0982 0.0331, 0.029 -0.0986 0.0331, 0.0294 -0.0982 0.0329, 0.0294 -0.0986 0.0329, 0.0297 -0.0982 0.0327, 0.0297 -0.0986 0.0327, 0.0297 -0.0986 0.0344, 0.0297 -0.0982 0.0344, 0.0293 -0.0982 0.0345, 0.0293 -0.0986 0.0345, 0.0288 -0.0982 0.0346, 0.0288 -0.0986 0.0346, 0.0283 -0.0982 0.0347, 0.0283 -0.0986 0.0347, 0.0278 -0.0982 0.0348, 0.0278 -0.0986 0.0348, 0.0275 -0.0982 0.0348, 0.0275 -0.0986 0.0348, 0.027 -0.0982 0.0348, 0.027 -0.0986 0.0348, 0.0265 -0.0982 0.0347, 0.0265 -0.0986 0.0347, 0.026 -0.0982 0.0346, 0.026 -0.0986 0.0346, 0.0256 -0.0982 0.0345, 0.0256 -0.0986 0.0345, 0.0253 -0.0982 0.0343, 0.0253 -0.0986 0.0343, 0.0249 -0.0982 0.0341, 0.0249 -0.0986 0.0341, 0.0248 -0.0982 0.034, 0.0248 -0.0986 0.034, 0.0245 -0.0982 0.0338, 0.0245 -0.0986 0.0338, 0.0243 -0.0982 0.0336, 0.0243 -0.0986 0.0336, 0.0241 -0.0982 0.0333, 0.0241 -0.0986 0.0333, 0.024 -0.0982 0.033, 0.024 -0.0986 0.033, 0.0239 -0.0982 0.0327, 0.0239 -0.0986 0.0327, 0.0238 -0.0982 0.0324, 0.0238 -0.0986 0.0324, 0.0238 -0.0982 0.0321, 0.0238 -0.0986 0.0321, 0.0238 -0.0982 0.032, 0.0238 -0.0986 0.032, 0.0238 -0.0982 0.0316, 0.0238 -0.0986 0.0316, 0.0238 -0.0982 0.0313, 0.0238 -0.0986 0.0313, 0.0239 -0.0982 0.031, 0.0239 -0.0986 0.031, 0.0241 -0.0982 0.0307, 0.0241 -0.0986 0.0307, 0.0242 -0.0982 0.0305, 0.0242 -0.0986 0.0305, 0.0244 -0.0982 0.0303, 0.0244 -0.0986 0.0303, 0.0246 -0.0982 0.0301, 0.0246 -0.0986 0.0301, 0.025 -0.0982 0.0299, 0.025 -0.0986 0.0299, 0.0254 -0.0982 0.0296, 0.0254 -0.0986 0.0296, 0.0259 -0.0982 0.0294, 0.0259 -0.0986 0.0294, 0.0263 -0.0982 0.0292, 0.0263 -0.0986 0.0292, 0.027 -0.0982 0.0289, 0.027 -0.0986 0.0289, 0.0275 -0.0982 0.0287, 0.0275 -0.0986 0.0287, 0.0279 -0.0982 0.0285, 0.0279 -0.0986 0.0285, 0.028 -0.0982 0.0284, 0.028 -0.0986 0.0284, 0.0282 -0.0982 0.0282, 0.0282 -0.0986 0.0282, 0.0283 -0.0982 0.028, 0.0283 -0.0986 0.028, 0.0284 -0.0982 0.0278, 0.0284 -0.0986 0.0278, 0.0285 -0.0982 0.0276, 0.0285 -0.0986 0.0276, 0.0285 -0.0982 0.0275, 0.0285 -0.0986 0.0275, 0.0284 -0.0982 0.0272, 0.0284 -0.0986 0.0272, 0.0284 -0.0982 0.027, 0.0284 -0.0986 0.027, 0.0283 -0.0982 0.0268, 0.0283 -0.0986 0.0268, 0.0282 -0.0982 0.0266, 0.0282 -0.0986 0.0266, 0.028 -0.0982 0.0265, 0.028 -0.0986 0.0265, 0.0279 -0.0982 0.0265, 0.0279 -0.0986 0.0265, 0.0277 -0.0982 0.0264, 0.0277 -0.0986 0.0264, 0.0274 -0.0982 0.0263, 0.0274 -0.0986 0.0263, 0.0271 -0.0982 0.0262, 0.0271 -0.0986 0.0262, 0.0267 -0.0982 0.0262, 0.0267 -0.0986 0.0262, 0.0385 -0.0986 0.0346, 0.0402 -0.0986 0.0346, 0.0385 -0.0982 0.0346, 0.0402 -0.0982 0.0346, 0.0359 -0.0986 0.0274, 0.0359 -0.0982 0.0274, 0.0357 -0.0982 0.0269, 0.0357 -0.0986 0.0269, 0.0357 -0.0982 0.0266, 0.0357 -0.0986 0.0266, 0.0356 -0.0986 0.0266, 0.0356 -0.0982 0.0266, 0.0354 -0.0986 0.0274, 0.0354 -0.0982 0.0274, 0.0329 -0.0986 0.0346, 0.0329 -0.0982 0.0346, 0.0311 -0.0986 0.0346, 0.0311 -0.0982 0.0346, 0.0348 -0.0986 0.0251, 0.0348 -0.0982 0.0251, 0.0341 -0.0986 0.0233, 0.0341 -0.0982 0.0233, 0.0339 -0.0982 0.0229, 0.0339 -0.0986 0.0229, 0.0337 -0.0982 0.0226, 0.0337 -0.0986 0.0226, 0.0334 -0.0982 0.0224, 0.0334 -0.0986 0.0224, 0.0332 -0.0982 0.0222, 0.0332 -0.0986 0.0222, 0.0329 -0.0982 0.0221, 0.0329 -0.0986 0.0221, 0.0326 -0.0982 0.022, 0.0326 -0.0986 0.022, 0.0323 -0.0982 0.022, 0.0323 -0.0986 0.022, 0.032 -0.0982 0.022, 0.032 -0.0986 0.022, 0.0316 -0.0982 0.0221, 0.0316 -0.0986 0.0221, 0.0314 -0.0982 0.0222, 0.0314 -0.0986 0.0222, 0.0314 -0.0986 0.0207, 0.0314 -0.0982 0.0207, 0.0318 -0.0982 0.0206, 0.0318 -0.0986 0.0206, 0.0323 -0.0982 0.0206, 0.0323 -0.0986 0.0206, 0.0325 -0.0982 0.0205, 0.0325 -0.0986 0.0205, 0.0329 -0.0982 0.0206, 0.0329 -0.0986 0.0206, 0.0333 -0.0982 0.0207, 0.0333 -0.0986 0.0207, 0.0336 -0.0982 0.0208, 0.0336 -0.0986 0.0208, 0.034 -0.0982 0.021, 0.034 -0.0986 0.021, 0.0343 -0.0982 0.0212, 0.0343 -0.0986 0.0212, 0.0347 -0.0982 0.0215, 0.0347 -0.0986 0.0215, 0.035 -0.0982 0.0219, 0.035 -0.0986 0.0219, 0.0353 -0.0982 0.0224, 0.0353 -0.0986 0.0224, 0.0356 -0.0982 0.0229, 0.0356 -0.0986 0.0229, 0.0358 -0.0982 0.0235, 0.0358 -0.0986 0.0235, 0.0359 -0.0982 0.0236, 0.0359 -0.0986 0.0236, 0.0492 -0.0986 0.0266, 0.0492 -0.0986 0.025, 0.0492 -0.0982 0.0266, 0.0492 -0.0982 0.025, 0.0437 -0.0986 0.0266, 0.0437 -0.0982 0.0266, 0.0437 -0.0986 0.031, 0.0437 -0.0982 0.031, 0.0485 -0.0986 0.031, 0.0485 -0.0982 0.031, 0.0485 -0.0986 0.0326, 0.0485 -0.0982 0.0326, 0.0437 -0.0986 0.0326, 0.0437 -0.0982 0.0326, 0.0437 -0.0986 0.0368, 0.0437 -0.0982 0.0368, 0.0489 -0.0986 0.0368, 0.0489 -0.0982 0.0368, 0.0489 -0.0986 0.0384, 0.0489 -0.0982 0.0384, 0.042 -0.0986 0.0384, 0.042 -0.0982 0.0384, 0.042 -0.0986 0.025, 0.042 -0.0982 0.025, 0.0578 -0.0986 0.027, 0.0588 -0.0986 0.0257, 0.0583 -0.0986 0.0272, 0.0593 -0.0986 0.026, 0.0588 -0.0986 0.0275, 0.0598 -0.0986 0.0263, 0.0592 -0.0986 0.0278, 0.0603 -0.0986 0.0267, 0.0593 -0.0986 0.028, 0.0606 -0.0986 0.0269, 0.0597 -0.0986 0.0283, 0.061 -0.0986 0.0273, 0.06 -0.0986 0.0287, 0.0614 -0.0986 0.0278, 0.0602 -0.0986 0.0292, 0.0617 -0.0986 0.0283, 0.0604 -0.0986 0.0296, 0.0606 -0.0986 0.0331, 0.0623 -0.0986 0.0338, 0.0605 -0.0986 0.0337, 0.0621 -0.0986 0.0344, 0.0603 -0.0986 0.0342, 0.0619 -0.0986 0.0349, 0.0601 -0.0986 0.0346, 0.0616 -0.0986 0.0354, 0.0598 -0.0986 0.035, 0.0613 -0.0986 0.0359, 0.0609 -0.0986 0.0363, 0.0595 -0.0986 0.0354, 0.0606 -0.0986 0.0366, 0.0593 -0.0986 0.0356, 0.0601 -0.0986 0.037, 0.0589 -0.0986 0.0359, 0.0595 -0.0986 0.0374, 0.0584 -0.0986 0.0362, 0.059 -0.0986 0.0377, 0.058 -0.0986 0.0364, 0.0584 -0.0986 0.0379, 0.0574 -0.0986 0.0366, 0.0578 -0.0986 0.0381, 0.0569 -0.0986 0.0367, 0.0572 -0.0986 0.0382, 0.0563 -0.0986 0.0368, 0.0565 -0.0986 0.0383, 0.0556 -0.0986 0.0368, 0.0558 -0.0986 0.0384, 0.0554 -0.0986 0.0368, 0.0555 -0.0986 0.0384, 0.0534 -0.0986 0.0368, 0.0517 -0.0986 0.0384, 0.0534 -0.0986 0.0266, 0.0517 -0.0986 0.025, 0.0554 -0.0986 0.0266, 0.0554 -0.0986 0.025, 0.0561 -0.0986 0.0266, 0.0561 -0.0986 0.0251, 0.0567 -0.0986 0.0267, 0.0569 -0.0986 0.0252, 0.0573 -0.0986 0.0268, 0.0575 -0.0986 0.0253, 0.0582 -0.0986 0.0255, 0.0619 -0.0986 0.0288, 0.0622 -0.0986 0.0294, 0.0606 -0.0986 0.0301, 0.0623 -0.0986 0.03, 0.0607 -0.0986 0.0307, 0.0625 -0.0986 0.0306, 0.0607 -0.0986 0.0313, 0.0625 -0.0986 0.0312, 0.0608 -0.0986 0.0318, 0.0626 -0.0986 0.0319, 0.0607 -0.0986 0.0325, 0.0625 -0.0986 0.0326, 0.0625 -0.0986 0.0332, 0.0589 -0.0982 0.0359, 0.0601 -0.0982 0.037, 0.0593 -0.0982 0.0356, 0.0606 -0.0982 0.0366, 0.0595 -0.0982 0.0354, 0.0609 -0.0982 0.0363, 0.0598 -0.0982 0.035, 0.0613 -0.0982 0.0359, 0.0601 -0.0982 0.0346, 0.0616 -0.0982 0.0354, 0.0603 -0.0982 0.0342, 0.0619 -0.0982 0.0349, 0.0605 -0.0982 0.0337, 0.0583 -0.0982 0.0272, 0.0588 -0.0982 0.0257, 0.0578 -0.0982 0.027, 0.0582 -0.0982 0.0255, 0.0573 -0.0982 0.0268, 0.0575 -0.0982 0.0253, 0.0567 -0.0982 0.0267, 0.0569 -0.0982 0.0252, 0.0561 -0.0982 0.0266, 0.0561 -0.0982 0.0251, 0.0554 -0.0982 0.0266, 0.0554 -0.0982 0.025, 0.0534 -0.0982 0.0266, 0.0517 -0.0982 0.025, 0.0534 -0.0982 0.0368, 0.0517 -0.0982 0.0384, 0.0554 -0.0982 0.0368, 0.0555 -0.0982 0.0384, 0.0556 -0.0982 0.0368, 0.0558 -0.0982 0.0384, 0.0563 -0.0982 0.0368, 0.0565 -0.0982 0.0383, 0.0569 -0.0982 0.0367, 0.0572 -0.0982 0.0382, 0.0574 -0.0982 0.0366, 0.0578 -0.0982 0.0381, 0.058 -0.0982 0.0364, 0.0584 -0.0982 0.0379, 0.0584 -0.0982 0.0362, 0.059 -0.0982 0.0377, 0.0595 -0.0982 0.0374, 0.0606 -0.0982 0.0301, 0.0622 -0.0982 0.0294, 0.0604 -0.0982 0.0296, 0.0619 -0.0982 0.0288, 0.0602 -0.0982 0.0292, 0.0617 -0.0982 0.0283, 0.06 -0.0982 0.0287, 0.0614 -0.0982 0.0278, 0.0597 -0.0982 0.0283, 0.061 -0.0982 0.0273, 0.0593 -0.0982 0.028, 0.0606 -0.0982 0.0269, 0.0592 -0.0982 0.0278, 0.0603 -0.0982 0.0267, 0.0588 -0.0982 0.0275, 0.0598 -0.0982 0.0263, 0.0593 -0.0982 0.026, 0.0621 -0.0982 0.0344, 0.0623 -0.0982 0.0338, 0.0606 -0.0982 0.0331, 0.0625 -0.0982 0.0332, 0.0607 -0.0982 0.0325, 0.0625 -0.0982 0.0326, 0.0608 -0.0982 0.0318, 0.0626 -0.0982 0.0319, 0.0607 -0.0982 0.0313, 0.0625 -0.0982 0.0312, 0.0607 -0.0982 0.0307, 0.0625 -0.0982 0.0306, 0.0623 -0.0982 0.03, 0.067 -0.0986 0.0302, 0.0665 -0.0986 0.0287, 0.0715 -0.0986 0.0302, 0.0721 -0.0986 0.0287, 0.069 -0.0986 0.0357, 0.0684 -0.0986 0.0384, 0.0633 -0.0986 0.025, 0.0652 -0.0986 0.025, 0.0692 -0.0986 0.0361, 0.0693 -0.0986 0.0367, 0.0702 -0.0986 0.0384, 0.0693 -0.0986 0.0367, 0.0694 -0.0986 0.0361, 0.0695 -0.0986 0.0357, 0.0753 -0.0986 0.025, 0.0734 -0.0986 0.025, 0.0715 -0.0982 0.0302, 0.0695 -0.0982 0.0357, 0.0702 -0.0982 0.0384, 0.0694 -0.0982 0.0361, 0.0693 -0.0982 0.0367, 0.0684 -0.0982 0.0384, 0.0693 -0.0982 0.0367, 0.0692 -0.0982 0.0361, 0.069 -0.0982 0.0357, 0.067 -0.0982 0.0302, 0.0633 -0.0982 0.025, 0.0753 -0.0982 0.025, 0.0734 -0.0982 0.025, 0.0721 -0.0982 0.0287, 0.0652 -0.0982 0.025, 0.0665 -0.0982 0.0287, -0.0525 -0.0986 0.0214, -0.0514 -0.0986 0.0205, -0.0547 -0.0986 0.0315, -0.0466 -0.0986 0.0487, -0.0459 -0.0986 0.0483, -0.0489 -0.0986 0.0553, -0.0404 -0.0986 0.0554, -0.0388 -0.0986 0.0563, -0.0417 -0.0986 0.0612, -0.0215 -0.0986 0.0505, -0.0207 -0.0986 0.0488, -0.0153 -0.0986 0.0507, -0.0202 -0.0986 0.0471, -0.0199 -0.0986 0.0456, -0.0453 -0.0986 0.0318, -0.0444 -0.0986 0.0315, -0.0424 -0.0986 0.0372, -0.0163 -0.0986 0.0313, -0.0176 -0.0986 0.0309, -0.0162 -0.0986 0.0253, -0.0548 -0.0986 0.0252, -0.0543 -0.0986 0.0238, -0.0535 -0.0986 0.0225, -0.0231 -0.0986 0.0362, -0.026 -0.0986 0.0412, -0.0363 -0.0986 0.0292, -0.0387 -0.0986 0.0346, -0.0363 -0.0986 0.0282, -0.0415 -0.0986 0.0198, -0.0364 -0.0986 0.027, -0.0402 -0.0986 0.0206, -0.0391 -0.0986 0.0215, -0.0468 -0.0986 0.0245, -0.0471 -0.0986 0.0188, -0.0459 -0.0986 0.0244, -0.0458 -0.0986 0.0187, -0.045 -0.0986 0.0245, -0.0484 -0.0986 0.0254, -0.0476 -0.0986 0.0249, -0.0501 -0.0986 0.0197, -0.0487 -0.0986 0.0192, -0.0425 -0.0986 0.0296, -0.0423 -0.0986 0.0287, -0.0422 -0.0986 0.0278, -0.0424 -0.0986 0.0269, -0.0429 -0.0986 0.0261, -0.0537 -0.0986 0.0494, -0.0549 -0.0986 0.055, -0.0568 -0.0986 0.0543, -0.018 -0.0986 0.025, -0.0186 -0.0986 0.0308, -0.0236 -0.0986 0.025, -0.0229 -0.0986 0.0308, -0.0241 -0.0986 0.0251, -0.0397 -0.0986 0.062, -0.037 -0.0986 0.0569, -0.0376 -0.0986 0.0626, -0.0561 -0.0986 0.0323, -0.0577 -0.0986 0.0262, -0.0559 -0.0986 0.0255, -0.0551 -0.0986 0.0488, -0.0585 -0.0986 0.0535, -0.0565 -0.0986 0.048, -0.0602 -0.0986 0.0524, -0.0577 -0.0986 0.047, -0.0381 -0.0986 0.0227, -0.0373 -0.0986 0.024, -0.0367 -0.0986 0.0255, -0.0496 -0.0986 0.0277, -0.0494 -0.0986 0.0269, -0.049 -0.0986 0.0261, -0.041 -0.0986 0.0365, -0.0436 -0.0986 0.031, -0.0398 -0.0986 0.0356, -0.0121 -0.0986 0.0403, -0.0071 -0.0986 0.0434, -0.0126 -0.0986 0.0416, -0.0079 -0.0986 0.045, -0.0133 -0.0986 0.0427, -0.009 -0.0986 0.0465, -0.0143 -0.0986 0.0437, -0.0103 -0.0986 0.0478, -0.0154 -0.0986 0.0445, -0.0584 -0.0986 0.0344, -0.0624 -0.0986 0.0297, -0.0573 -0.0986 0.0333, -0.061 -0.0986 0.0283, -0.0594 -0.0986 0.0272, -0.053 -0.0986 0.0553, -0.0522 -0.0986 0.0497, -0.051 -0.0986 0.0554, -0.051 -0.0986 0.0498, -0.05 -0.0986 0.0554, -0.0495 -0.0986 0.0496, -0.048 -0.0986 0.0493, -0.0496 -0.0986 0.0287, -0.0493 -0.0986 0.0296, -0.0543 -0.0986 0.0325, -0.0489 -0.0986 0.0304, -0.0459 -0.0986 0.0318, -0.0473 -0.0986 0.0377, -0.0468 -0.0986 0.0317, -0.0488 -0.0986 0.0373, -0.0476 -0.0986 0.0314, -0.0439 -0.0986 0.0376, -0.0453 -0.0986 0.0378, -0.0458 -0.0986 0.0378, -0.0435 -0.0986 0.0254, -0.0442 -0.0986 0.0249, -0.0429 -0.0986 0.0192, -0.0443 -0.0986 0.0189, -0.0145 -0.0986 0.0258, -0.0129 -0.0986 0.0265, -0.0151 -0.0986 0.0319, -0.0113 -0.0986 0.0275, -0.014 -0.0986 0.0328, -0.0099 -0.0986 0.0287, -0.0136 -0.0986 0.0332, -0.0094 -0.0986 0.0293, -0.0128 -0.0986 0.0343, -0.0437 -0.0986 0.0601, -0.0447 -0.0986 0.0594, -0.0419 -0.0986 0.0543, -0.0462 -0.0986 0.0582, -0.0432 -0.0986 0.053, -0.0476 -0.0986 0.0568, -0.0443 -0.0986 0.0516, -0.0452 -0.0986 0.05, -0.0161 -0.0986 0.0526, -0.0172 -0.0986 0.0544, -0.0225 -0.0986 0.0521, -0.0184 -0.0986 0.0562, -0.0237 -0.0986 0.0535, -0.0603 -0.0986 0.0386, -0.0659 -0.0986 0.0362, -0.0599 -0.0986 0.0371, -0.0653 -0.0986 0.0344, -0.0592 -0.0986 0.0356, -0.0645 -0.0986 0.0326, -0.0634 -0.0986 0.0309, -0.043 -0.0986 0.0303, -0.0119 -0.0986 0.0368, -0.0059 -0.0986 0.0374, -0.0118 -0.0986 0.0382, -0.0059 -0.0986 0.0383, -0.0118 -0.0986 0.039, -0.006 -0.0986 0.04, -0.0064 -0.0986 0.0418, -0.0083 -0.0986 0.0307, -0.0073 -0.0986 0.0322, -0.0122 -0.0986 0.0355, -0.0066 -0.0986 0.0339, -0.0061 -0.0986 0.0356, -0.0502 -0.0986 0.0367, -0.0513 -0.0986 0.036, -0.0484 -0.0986 0.0309, -0.0525 -0.0986 0.035, -0.0535 -0.0986 0.0338, -0.0233 -0.0986 0.0309, -0.0256 -0.0986 0.026, -0.0254 -0.0986 0.0257, -0.0333 -0.0986 0.0631, -0.0332 -0.0986 0.0574, -0.0326 -0.0986 0.0631, -0.0314 -0.0986 0.0573, -0.0594 -0.0986 0.0446, -0.0652 -0.0986 0.0461, -0.06 -0.0986 0.0432, -0.0658 -0.0986 0.0443, -0.0603 -0.0986 0.0418, -0.0663 -0.0986 0.0423, -0.0604 -0.0986 0.0403, -0.0664 -0.0986 0.0405, -0.0604 -0.0986 0.04, -0.0664 -0.0986 0.0401, -0.0663 -0.0986 0.0381, -0.0192 -0.0986 0.0456, -0.0178 -0.0986 0.0455, -0.0149 -0.0986 0.0506, -0.0166 -0.0986 0.0451, -0.0133 -0.0986 0.0499, -0.0117 -0.0986 0.049, -0.0264 -0.0986 0.0279, -0.0263 -0.0986 0.0272, -0.026 -0.0986 0.0266, -0.023 -0.0986 0.0308, -0.0247 -0.0986 0.0253, -0.0355 -0.0986 0.063, -0.0352 -0.0986 0.0573, -0.0335 -0.0986 0.0574, -0.0241 -0.0986 0.0308, -0.0248 -0.0986 0.0305, -0.0264 -0.0986 0.0282, -0.0254 -0.0986 0.0301, -0.0258 -0.0986 0.0296, -0.0262 -0.0986 0.0289, -0.0616 -0.0986 0.0512, -0.062 -0.0986 0.0509, -0.0586 -0.0986 0.0459, -0.0632 -0.0986 0.0494, -0.0643 -0.0986 0.0478, -0.0234 -0.0986 0.0309, -0.02 -0.0986 0.0578, -0.0204 -0.0986 0.0582, -0.0249 -0.0986 0.0545, -0.0222 -0.0986 0.0596, -0.0264 -0.0986 0.0555, -0.0241 -0.0986 0.0608, -0.028 -0.0986 0.0564, -0.0262 -0.0986 0.0617, -0.0297 -0.0986 0.057, -0.0283 -0.0986 0.0625, -0.0305 -0.0986 0.0629, -0.026 -0.0982 0.0412, -0.0231 -0.0982 0.0362, -0.0387 -0.0982 0.0346, -0.0363 -0.0982 0.0292, -0.0415 -0.0982 0.0198, -0.0363 -0.0982 0.0282, -0.0364 -0.0982 0.027, -0.0402 -0.0982 0.0206, -0.0391 -0.0982 0.0215, -0.0468 -0.0982 0.0317, -0.0476 -0.0982 0.0314, -0.0547 -0.0982 0.0315, -0.0484 -0.0982 0.0309, -0.0388 -0.0982 0.0563, -0.0404 -0.0982 0.0554, -0.0437 -0.0982 0.0601, -0.0525 -0.0982 0.0214, -0.0535 -0.0982 0.0225, -0.0493 -0.0982 0.0296, -0.0543 -0.0982 0.0238, -0.0548 -0.0982 0.0252, -0.0429 -0.0982 0.0261, -0.0424 -0.0982 0.0269, -0.0422 -0.0982 0.0278, -0.0423 -0.0982 0.0287, -0.0599 -0.0982 0.0371, -0.0592 -0.0982 0.0356, -0.0645 -0.0982 0.0326, -0.0367 -0.0982 0.0255, -0.0373 -0.0982 0.024, -0.0381 -0.0982 0.0227, -0.0459 -0.0982 0.0244, -0.045 -0.0982 0.0245, -0.0443 -0.0982 0.0189, -0.0551 -0.0982 0.0488, -0.0568 -0.0982 0.0543, -0.0537 -0.0982 0.0494, -0.0549 -0.0982 0.055, -0.0522 -0.0982 0.0497, -0.053 -0.0982 0.0553, -0.051 -0.0982 0.0498, -0.0634 -0.0982 0.0309, -0.0584 -0.0982 0.0344, -0.0624 -0.0982 0.0297, -0.0573 -0.0982 0.0333, -0.061 -0.0982 0.0283, -0.0594 -0.0982 0.0272, -0.0561 -0.0982 0.0323, -0.0577 -0.0982 0.0262, -0.0559 -0.0982 0.0255, -0.0489 -0.0982 0.0304, -0.0225 -0.0982 0.0521, -0.0172 -0.0982 0.0544, -0.0215 -0.0982 0.0505, -0.0161 -0.0982 0.0526, -0.0207 -0.0982 0.0488, -0.0153 -0.0982 0.0507, -0.0202 -0.0982 0.0471, -0.0447 -0.0982 0.0594, -0.0419 -0.0982 0.0543, -0.0462 -0.0982 0.0582, -0.0166 -0.0982 0.0451, -0.0178 -0.0982 0.0455, -0.0496 -0.0982 0.0287, -0.0496 -0.0982 0.0277, -0.0494 -0.0982 0.0269, -0.0476 -0.0982 0.0568, -0.0432 -0.0982 0.053, -0.0489 -0.0982 0.0553, -0.0443 -0.0982 0.0516, -0.0452 -0.0982 0.05, -0.0122 -0.0982 0.0355, -0.0073 -0.0982 0.0322, -0.0128 -0.0982 0.0343, -0.0083 -0.0982 0.0307, -0.0136 -0.0982 0.0332, -0.0094 -0.0982 0.0293, -0.014 -0.0982 0.0328, -0.0099 -0.0982 0.0287, -0.0151 -0.0982 0.0319, -0.0126 -0.0982 0.0416, -0.0071 -0.0982 0.0434, -0.0121 -0.0982 0.0403, -0.0064 -0.0982 0.0418, -0.0118 -0.0982 0.039, -0.006 -0.0982 0.04, -0.0118 -0.0982 0.0382, -0.0192 -0.0982 0.0456, -0.0199 -0.0982 0.0456, -0.0476 -0.0982 0.0249, -0.0514 -0.0982 0.0205, -0.0484 -0.0982 0.0254, -0.049 -0.0982 0.0261, -0.0459 -0.0982 0.0318, -0.0453 -0.0982 0.0378, -0.0453 -0.0982 0.0318, -0.0439 -0.0982 0.0376, -0.0444 -0.0982 0.0315, -0.051 -0.0982 0.0554, -0.05 -0.0982 0.0554, -0.0495 -0.0982 0.0496, -0.048 -0.0982 0.0493, -0.0429 -0.0982 0.0192, -0.0442 -0.0982 0.0249, -0.0435 -0.0982 0.0254, -0.0424 -0.0982 0.0372, -0.041 -0.0982 0.0365, -0.0436 -0.0982 0.031, -0.0398 -0.0982 0.0356, -0.043 -0.0982 0.0303, -0.0425 -0.0982 0.0296, -0.0502 -0.0982 0.0367, -0.0488 -0.0982 0.0373, -0.0466 -0.0982 0.0487, -0.0459 -0.0982 0.0483, -0.0254 -0.0982 0.0257, -0.0256 -0.0982 0.026, -0.0233 -0.0982 0.0309, -0.026 -0.0982 0.0266, -0.0059 -0.0982 0.0383, -0.0059 -0.0982 0.0374, -0.0119 -0.0982 0.0368, -0.0061 -0.0982 0.0356, -0.0066 -0.0982 0.0339, -0.0149 -0.0982 0.0506, -0.0133 -0.0982 0.0499, -0.0154 -0.0982 0.0445, -0.0117 -0.0982 0.049, -0.0143 -0.0982 0.0437, -0.0103 -0.0982 0.0478, -0.0133 -0.0982 0.0427, -0.009 -0.0982 0.0465, -0.0079 -0.0982 0.045, -0.0458 -0.0982 0.0187, -0.0471 -0.0982 0.0188, -0.0468 -0.0982 0.0245, -0.0487 -0.0982 0.0192, -0.0501 -0.0982 0.0197, -0.0535 -0.0982 0.0338, -0.0525 -0.0982 0.035, -0.0513 -0.0982 0.036, -0.0473 -0.0982 0.0377, -0.0458 -0.0982 0.0378, -0.06 -0.0982 0.0432, -0.0652 -0.0982 0.0461, -0.0594 -0.0982 0.0446, -0.0643 -0.0982 0.0478, -0.0586 -0.0982 0.0459, -0.0653 -0.0982 0.0344, -0.0659 -0.0982 0.0362, -0.0603 -0.0982 0.0386, -0.0663 -0.0982 0.0381, -0.0604 -0.0982 0.04, -0.0664 -0.0982 0.0401, -0.0604 -0.0982 0.0403, -0.0664 -0.0982 0.0405, -0.0603 -0.0982 0.0418, -0.0663 -0.0982 0.0423, -0.0658 -0.0982 0.0443, -0.0113 -0.0982 0.0275, -0.0129 -0.0982 0.0265, -0.0163 -0.0982 0.0313, -0.0145 -0.0982 0.0258, -0.0176 -0.0982 0.0309, -0.0162 -0.0982 0.0253, -0.0186 -0.0982 0.0308, -0.018 -0.0982 0.025, -0.0229 -0.0982 0.0308, -0.0236 -0.0982 0.025, -0.023 -0.0982 0.0308, -0.0241 -0.0982 0.0251, -0.0247 -0.0982 0.0253, -0.0263 -0.0982 0.0272, -0.0264 -0.0982 0.0279, -0.0264 -0.0982 0.0282, -0.0543 -0.0982 0.0325, -0.0632 -0.0982 0.0494, -0.062 -0.0982 0.0509, -0.0577 -0.0982 0.047, -0.0616 -0.0982 0.0512, -0.0565 -0.0982 0.048, -0.0602 -0.0982 0.0524, -0.0585 -0.0982 0.0535, -0.0262 -0.0982 0.0289, -0.0258 -0.0982 0.0296, -0.0254 -0.0982 0.0301, -0.0248 -0.0982 0.0305, -0.0249 -0.0982 0.0545, -0.0204 -0.0982 0.0582, -0.0237 -0.0982 0.0535, -0.02 -0.0982 0.0578, -0.0184 -0.0982 0.0562, -0.0417 -0.0982 0.0612, -0.0397 -0.0982 0.062, -0.037 -0.0982 0.0569, -0.0376 -0.0982 0.0626, -0.0352 -0.0982 0.0573, -0.0355 -0.0982 0.063, -0.0335 -0.0982 0.0574, -0.0333 -0.0982 0.0631, -0.0332 -0.0982 0.0574, -0.0326 -0.0982 0.0631, -0.0314 -0.0982 0.0573, -0.0305 -0.0982 0.0629, -0.0297 -0.0982 0.057, -0.0283 -0.0982 0.0625, -0.028 -0.0982 0.0564, -0.0262 -0.0982 0.0617, -0.0264 -0.0982 0.0555, -0.0241 -0.0982 0.0608, -0.0222 -0.0982 0.0596, -0.0241 -0.0982 0.0308, -0.0234 -0.0982 0.0309
            ]
        }
        coordIndex [
            0,1,2,-1,2,1,3,-1,4,0,5,-1,5,0,2,-1,6,4,7,-1,7,4,5,-1,8,6,9,-1,9,6,7,-1,10,8,11,-1,11,8,9,-1,1,10,3,-1,3,10,11,-1,6,8,4,-1,4,8,10,-1,4,10,0,-1,0,10,1,-1,2,3,5,-1,5,3,11,-1,5,11,7,-1,7,11,9,-1,12,13,14,-1,12,14,15,-1,15,14,16,-1,15,16,17,-1,17,16,18,-1,17,18,19,-1,19,18,20,-1,19,20,21,-1,21,20,22,-1,21,22,23,-1,23,22,24,-1,23,24,25,-1,26,25,27,-1,27,25,24,-1,26,27,28,-1,26,28,29,-1,29,28,30,-1,29,30,31,-1,31,30,32,-1,31,32,33,-1,33,32,34,-1,33,34,35,-1,35,34,36,-1,35,36,37,-1,37,36,38,-1,37,38,39,-1,39,38,40,-1,39,40,41,-1,41,40,42,-1,41,42,43,-1,43,42,44,-1,43,44,45,-1,45,44,46,-1,45,46,47,-1,47,46,48,-1,47,48,49,-1,49,48,50,-1,49,50,51,-1,51,50,52,-1,51,52,53,-1,53,52,54,-1,53,54,55,-1,55,54,56,-1,55,56,57,-1,57,56,58,-1,57,58,59,-1,59,58,60,-1,59,60,61,-1,61,60,62,-1,61,62,63,-1,63,62,64,-1,63,64,65,-1,65,64,66,-1,65,66,67,-1,67,66,68,-1,67,68,69,-1,69,68,70,-1,69,70,71,-1,71,70,72,-1,71,72,73,-1,73,72,74,-1,73,74,75,-1,75,74,76,-1,75,76,77,-1,77,76,78,-1,77,78,79,-1,79,78,80,-1,79,80,81,-1,81,80,82,-1,81,82,83,-1,83,82,84,-1,83,84,85,-1,85,84,86,-1,85,86,87,-1,87,86,88,-1,87,88,89,-1,89,88,90,-1,89,90,91,-1,91,90,92,-1,91,92,93,-1,93,92,94,-1,93,94,95,-1,95,94,96,-1,95,96,97,-1,97,96,98,-1,97,98,99,-1,99,98,100,-1,99,100,101,-1,101,100,102,-1,101,102,103,-1,103,102,104,-1,103,104,105,-1,105,104,106,-1,105,106,107,-1,107,106,108,-1,107,108,109,-1,109,108,110,-1,109,110,111,-1,111,110,112,-1,111,112,113,-1,113,112,114,-1,113,114,115,-1,116,115,117,-1,117,115,114,-1,116,117,118,-1,116,118,119,-1,119,118,120,-1,119,120,121,-1,121,120,122,-1,121,122,123,-1,123,122,124,-1,123,124,125,-1,125,124,126,-1,125,126,127,-1,127,126,128,-1,127,128,129,-1,129,128,130,-1,129,130,131,-1,131,130,132,-1,131,132,133,-1,133,132,134,-1,133,134,135,-1,135,134,136,-1,135,136,137,-1,137,136,138,-1,137,138,139,-1,139,138,140,-1,139,140,141,-1,141,140,142,-1,141,142,143,-1,143,142,144,-1,143,144,145,-1,145,144,146,-1,145,146,147,-1,147,146,148,-1,147,148,149,-1,149,148,150,-1,149,150,151,-1,151,150,152,-1,151,152,153,-1,153,152,154,-1,153,154,155,-1,155,154,156,-1,155,156,157,-1,157,156,158,-1,157,158,159,-1,159,158,160,-1,159,160,161,-1,161,160,162,-1,161,162,163,-1,163,162,164,-1,163,164,165,-1,165,164,166,-1,165,166,167,-1,167,166,168,-1,167,168,169,-1,169,168,170,-1,169,170,171,-1,171,170,172,-1,171,172,173,-1,173,172,174,-1,173,174,175,-1,175,174,176,-1,175,176,177,-1,177,176,178,-1,177,178,179,-1,179,178,180,-1,179,180,181,-1,181,180,182,-1,181,182,183,-1,183,182,184,-1,183,184,185,-1,185,184,186,-1,185,186,187,-1,187,186,188,-1,187,188,189,-1,189,188,190,-1,189,190,191,-1,191,190,192,-1,191,192,193,-1,193,192,194,-1,193,194,195,-1,195,194,196,-1,195,196,197,-1,197,196,13,-1,197,13,12,-1,113,115,116,-1,57,177,179,-1,57,179,55,-1,55,179,181,-1,55,181,53,-1,53,181,183,-1,53,183,51,-1,51,183,185,-1,51,185,49,-1,49,185,187,-1,49,187,47,-1,33,21,31,-1,31,21,23,-1,31,23,29,-1,29,23,25,-1,29,25,26,-1,187,189,47,-1,47,189,191,-1,47,191,45,-1,45,191,193,-1,45,193,43,-1,43,193,195,-1,43,195,41,-1,41,195,197,-1,41,197,39,-1,39,197,12,-1,39,12,37,-1,37,12,15,-1,37,15,35,-1,35,15,17,-1,35,17,33,-1,33,17,19,-1,33,19,21,-1,89,143,87,-1,87,143,145,-1,87,145,85,-1,85,145,147,-1,85,147,83,-1,83,147,149,-1,83,149,81,-1,81,149,151,-1,81,151,79,-1,79,151,153,-1,79,153,77,-1,77,153,155,-1,77,155,75,-1,113,116,111,-1,111,116,119,-1,111,119,109,-1,109,119,121,-1,109,121,107,-1,107,121,123,-1,107,123,105,-1,105,123,125,-1,105,125,103,-1,103,125,127,-1,103,127,101,-1,101,127,129,-1,101,129,99,-1,99,129,131,-1,99,131,97,-1,97,131,133,-1,97,133,95,-1,95,133,135,-1,95,135,93,-1,93,135,137,-1,93,137,91,-1,91,137,139,-1,91,139,89,-1,89,139,141,-1,89,141,143,-1,177,57,175,-1,175,57,59,-1,175,59,173,-1,173,59,61,-1,173,61,171,-1,171,61,63,-1,171,63,169,-1,169,63,65,-1,169,65,167,-1,167,65,165,-1,165,65,67,-1,165,67,163,-1,155,157,75,-1,75,157,159,-1,75,159,73,-1,73,159,161,-1,73,161,71,-1,71,161,163,-1,71,163,69,-1,69,163,67,-1,28,27,24,-1,28,24,30,-1,44,190,46,-1,46,190,188,-1,46,188,48,-1,48,188,186,-1,48,186,50,-1,50,186,184,-1,50,184,52,-1,52,184,182,-1,52,182,54,-1,114,112,117,-1,117,112,110,-1,117,110,118,-1,118,110,108,-1,182,180,54,-1,54,180,178,-1,54,178,56,-1,56,178,176,-1,56,176,58,-1,58,176,174,-1,58,174,60,-1,60,174,172,-1,60,172,62,-1,24,22,30,-1,30,22,20,-1,30,20,32,-1,32,20,18,-1,32,18,34,-1,34,18,16,-1,34,16,36,-1,36,16,14,-1,36,14,38,-1,38,14,13,-1,38,13,40,-1,40,13,196,-1,40,196,42,-1,42,196,194,-1,42,194,44,-1,44,194,192,-1,44,192,190,-1,82,146,84,-1,84,146,144,-1,84,144,86,-1,86,144,142,-1,86,142,88,-1,88,142,140,-1,88,140,90,-1,90,140,138,-1,90,138,92,-1,92,138,136,-1,92,136,94,-1,94,136,134,-1,94,134,96,-1,96,134,132,-1,96,132,98,-1,98,132,130,-1,98,130,100,-1,100,130,128,-1,100,128,102,-1,102,128,126,-1,102,126,104,-1,104,126,124,-1,104,124,106,-1,106,124,122,-1,106,122,108,-1,108,122,120,-1,108,120,118,-1,162,160,72,-1,72,160,158,-1,72,158,74,-1,74,158,156,-1,74,156,76,-1,76,156,154,-1,76,154,78,-1,78,154,152,-1,78,152,80,-1,80,152,150,-1,80,150,82,-1,82,150,148,-1,82,148,146,-1,172,170,62,-1,62,170,168,-1,62,168,64,-1,64,168,166,-1,64,166,66,-1,66,166,164,-1,66,164,68,-1,68,164,162,-1,68,162,70,-1,70,162,72,-1,198,199,200,-1,200,199,201,-1,202,198,203,-1,203,198,200,-1,204,202,205,-1,205,202,203,-1,206,204,207,-1,207,204,205,-1,208,206,209,-1,209,206,207,-1,210,208,211,-1,211,208,209,-1,212,210,213,-1,213,210,211,-1,214,212,215,-1,215,212,213,-1,216,214,217,-1,217,214,215,-1,218,216,219,-1,219,216,217,-1,220,218,221,-1,221,218,219,-1,199,220,201,-1,201,220,221,-1,220,199,198,-1,198,202,220,-1,220,202,204,-1,220,204,218,-1,214,216,212,-1,212,216,218,-1,212,218,210,-1,210,218,204,-1,210,204,208,-1,208,204,206,-1,219,217,215,-1,215,213,219,-1,219,213,211,-1,219,211,221,-1,200,201,203,-1,203,201,221,-1,203,221,205,-1,205,221,211,-1,205,211,207,-1,207,211,209,-1,222,223,224,-1,224,223,225,-1,224,225,226,-1,226,225,227,-1,226,227,228,-1,228,227,229,-1,228,229,230,-1,230,229,231,-1,230,231,232,-1,232,231,233,-1,232,233,234,-1,234,233,235,-1,234,235,236,-1,236,235,237,-1,236,237,238,-1,239,240,241,-1,241,240,242,-1,241,242,243,-1,243,242,244,-1,243,244,245,-1,245,244,246,-1,245,246,247,-1,246,248,247,-1,247,248,249,-1,247,249,250,-1,250,249,251,-1,250,251,252,-1,252,251,253,-1,252,253,254,-1,254,253,255,-1,254,255,256,-1,256,255,257,-1,256,257,258,-1,258,257,259,-1,258,259,260,-1,260,259,261,-1,260,261,262,-1,262,261,263,-1,262,263,264,-1,264,263,265,-1,264,265,266,-1,266,265,267,-1,266,267,268,-1,268,267,269,-1,268,269,270,-1,270,269,271,-1,270,271,272,-1,272,271,273,-1,272,273,274,-1,274,273,275,-1,274,275,276,-1,276,275,277,-1,276,277,278,-1,278,277,279,-1,278,279,280,-1,280,279,281,-1,280,281,222,-1,222,281,282,-1,222,282,223,-1,237,283,238,-1,238,283,284,-1,238,284,285,-1,285,284,286,-1,285,286,287,-1,287,286,288,-1,287,288,289,-1,289,288,290,-1,289,290,291,-1,291,290,292,-1,291,292,293,-1,293,292,294,-1,293,294,239,-1,239,294,295,-1,239,295,240,-1,296,297,298,-1,298,297,299,-1,298,299,300,-1,300,299,301,-1,300,301,302,-1,302,301,303,-1,302,303,304,-1,304,303,305,-1,304,305,306,-1,306,305,307,-1,306,307,308,-1,309,310,311,-1,311,310,312,-1,311,312,313,-1,313,312,314,-1,313,314,315,-1,315,314,316,-1,315,316,317,-1,317,316,318,-1,317,318,319,-1,319,318,320,-1,319,320,321,-1,321,320,322,-1,321,322,323,-1,323,322,324,-1,323,324,325,-1,325,324,326,-1,325,326,327,-1,327,326,328,-1,327,328,329,-1,329,328,330,-1,329,330,331,-1,331,330,332,-1,331,332,333,-1,333,332,334,-1,333,334,335,-1,335,334,336,-1,335,336,337,-1,337,336,338,-1,337,338,296,-1,296,338,339,-1,296,339,297,-1,340,341,342,-1,342,341,343,-1,342,343,344,-1,344,343,345,-1,344,345,346,-1,346,345,347,-1,346,347,348,-1,348,347,349,-1,348,349,350,-1,350,349,351,-1,350,351,352,-1,352,351,353,-1,352,353,354,-1,354,353,355,-1,354,355,309,-1,309,355,356,-1,309,356,310,-1,307,357,308,-1,308,357,358,-1,308,358,359,-1,359,358,360,-1,359,360,361,-1,361,360,362,-1,361,362,363,-1,363,362,364,-1,363,364,365,-1,365,364,366,-1,365,366,367,-1,367,366,368,-1,367,368,340,-1,340,368,369,-1,340,369,341,-1,275,273,320,-1,320,273,322,-1,275,320,318,-1,275,318,277,-1,277,318,316,-1,277,316,279,-1,279,316,314,-1,279,314,281,-1,281,314,312,-1,281,312,282,-1,282,312,310,-1,282,310,223,-1,223,310,356,-1,223,356,225,-1,225,356,355,-1,225,355,227,-1,227,355,353,-1,227,353,229,-1,229,353,351,-1,229,351,231,-1,231,351,349,-1,231,349,233,-1,233,349,347,-1,233,347,235,-1,235,347,345,-1,235,345,237,-1,237,345,343,-1,237,343,283,-1,283,343,341,-1,283,341,284,-1,284,341,369,-1,284,369,286,-1,286,369,368,-1,286,368,288,-1,288,368,366,-1,288,366,290,-1,290,366,364,-1,290,364,292,-1,292,364,362,-1,292,362,294,-1,294,362,360,-1,294,360,295,-1,295,360,358,-1,295,358,240,-1,240,358,357,-1,240,357,242,-1,242,357,307,-1,242,307,244,-1,244,307,305,-1,244,305,246,-1,246,305,303,-1,246,303,248,-1,248,303,301,-1,248,301,249,-1,249,301,299,-1,249,299,251,-1,251,299,297,-1,251,297,253,-1,253,297,339,-1,253,339,255,-1,255,339,338,-1,255,338,257,-1,257,338,336,-1,257,336,259,-1,259,336,334,-1,259,334,261,-1,261,334,332,-1,261,332,263,-1,263,332,330,-1,263,330,265,-1,265,330,328,-1,265,328,267,-1,267,328,326,-1,267,326,269,-1,271,269,324,-1,324,269,326,-1,273,271,322,-1,322,271,324,-1,268,270,325,-1,325,270,323,-1,270,272,323,-1,323,272,321,-1,272,274,321,-1,321,274,319,-1,230,350,352,-1,230,352,228,-1,228,352,354,-1,228,354,226,-1,226,354,309,-1,226,309,224,-1,224,309,311,-1,224,311,222,-1,222,311,313,-1,222,313,280,-1,280,313,315,-1,280,315,278,-1,278,315,317,-1,278,317,276,-1,276,317,319,-1,276,319,274,-1,291,363,365,-1,291,365,289,-1,289,365,367,-1,289,367,287,-1,287,367,340,-1,287,340,285,-1,285,340,342,-1,285,342,238,-1,238,342,344,-1,238,344,236,-1,236,344,346,-1,236,346,234,-1,234,346,348,-1,234,348,232,-1,232,348,350,-1,232,350,230,-1,252,298,300,-1,252,300,250,-1,250,300,302,-1,250,302,247,-1,247,302,304,-1,247,304,245,-1,245,304,306,-1,245,306,243,-1,243,306,308,-1,243,308,241,-1,241,308,359,-1,241,359,239,-1,239,359,361,-1,239,361,293,-1,293,361,363,-1,293,363,291,-1,268,325,327,-1,268,327,266,-1,266,327,329,-1,266,329,264,-1,264,329,331,-1,264,331,262,-1,262,331,333,-1,262,333,260,-1,260,333,335,-1,260,335,258,-1,258,335,337,-1,258,337,256,-1,256,337,296,-1,256,296,254,-1,254,296,298,-1,254,298,252,-1,370,371,372,-1,372,371,373,-1,374,375,370,-1,370,375,376,-1,370,376,371,-1,371,376,377,-1,374,378,375,-1,375,378,379,-1,375,379,380,-1,380,379,381,-1,380,381,382,-1,382,383,380,-1,380,383,372,-1,380,372,384,-1,384,372,373,-1,384,373,385,-1,386,387,388,-1,387,389,388,-1,388,389,390,-1,388,390,391,-1,391,390,392,-1,391,392,393,-1,393,394,391,-1,391,394,395,-1,391,395,396,-1,397,398,399,-1,400,396,401,-1,401,396,395,-1,401,395,399,-1,399,395,386,-1,399,386,397,-1,397,386,388,-1,380,384,388,-1,388,384,397,-1,375,380,391,-1,391,380,388,-1,376,375,396,-1,396,375,391,-1,377,376,400,-1,400,376,396,-1,371,377,401,-1,401,377,400,-1,373,371,399,-1,399,371,401,-1,385,373,398,-1,398,373,399,-1,384,385,397,-1,397,385,398,-1,370,372,395,-1,395,372,386,-1,372,383,386,-1,386,383,387,-1,381,390,389,-1,381,389,382,-1,382,389,387,-1,382,387,383,-1,381,379,390,-1,390,379,392,-1,374,394,393,-1,374,393,378,-1,378,393,392,-1,378,392,379,-1,374,370,394,-1,394,370,395,-1,402,403,404,-1,404,403,405,-1,406,402,407,-1,407,402,404,-1,408,406,409,-1,409,406,407,-1,410,408,411,-1,411,408,409,-1,412,410,413,-1,413,410,411,-1,414,412,415,-1,415,412,413,-1,416,414,417,-1,417,414,415,-1,418,416,419,-1,419,416,417,-1,420,418,421,-1,421,418,419,-1,422,420,423,-1,423,420,421,-1,424,422,425,-1,425,422,423,-1,403,424,405,-1,405,424,425,-1,424,403,402,-1,402,406,424,-1,424,406,408,-1,424,408,422,-1,418,420,416,-1,416,420,422,-1,416,422,414,-1,414,422,408,-1,414,408,412,-1,412,408,410,-1,423,421,419,-1,419,417,423,-1,423,417,415,-1,423,415,425,-1,404,405,407,-1,407,405,425,-1,407,425,409,-1,409,425,415,-1,409,415,411,-1,411,415,413,-1,426,427,428,-1,428,427,429,-1,430,431,432,-1,433,434,435,-1,435,434,436,-1,432,431,437,-1,437,431,438,-1,437,438,439,-1,439,438,440,-1,439,440,441,-1,434,442,436,-1,436,442,443,-1,436,443,444,-1,441,440,445,-1,445,440,446,-1,445,446,447,-1,443,448,444,-1,444,448,449,-1,444,449,450,-1,450,449,451,-1,450,451,452,-1,433,435,453,-1,453,435,454,-1,453,454,455,-1,455,454,456,-1,455,456,457,-1,458,459,460,-1,461,462,463,-1,463,462,464,-1,463,464,459,-1,459,464,465,-1,459,465,460,-1,428,466,467,-1,467,466,468,-1,467,468,469,-1,470,471,472,-1,472,471,473,-1,472,473,474,-1,474,473,475,-1,474,475,476,-1,477,478,429,-1,429,478,479,-1,429,479,428,-1,428,479,480,-1,428,480,466,-1,447,446,481,-1,481,446,482,-1,481,482,483,-1,483,482,484,-1,483,484,485,-1,485,484,486,-1,485,486,487,-1,488,489,490,-1,490,489,457,-1,490,457,491,-1,491,457,456,-1,475,492,476,-1,476,492,493,-1,476,493,494,-1,494,493,495,-1,494,495,496,-1,496,495,469,-1,496,469,497,-1,497,469,468,-1,487,486,498,-1,498,486,499,-1,498,499,500,-1,501,502,503,-1,503,502,504,-1,503,504,505,-1,505,504,506,-1,505,506,507,-1,460,508,458,-1,458,508,509,-1,458,509,501,-1,501,509,510,-1,501,510,502,-1,451,511,452,-1,452,511,512,-1,452,512,513,-1,513,512,514,-1,513,514,515,-1,500,489,498,-1,498,489,488,-1,498,488,429,-1,429,488,516,-1,429,516,477,-1,432,517,430,-1,430,517,518,-1,430,518,519,-1,519,518,520,-1,519,520,521,-1,521,520,522,-1,521,522,523,-1,523,522,524,-1,523,524,525,-1,525,524,526,-1,525,526,527,-1,527,526,528,-1,527,528,529,-1,529,528,530,-1,529,530,531,-1,531,530,532,-1,531,532,533,-1,533,532,534,-1,533,534,535,-1,535,534,536,-1,535,536,537,-1,506,538,507,-1,507,538,539,-1,507,539,540,-1,540,539,541,-1,540,541,542,-1,542,541,543,-1,542,543,470,-1,470,543,544,-1,470,544,471,-1,514,545,515,-1,515,545,546,-1,515,546,461,-1,461,546,547,-1,461,547,462,-1,548,549,550,-1,551,552,553,-1,554,555,556,-1,551,557,552,-1,552,557,558,-1,552,558,559,-1,559,558,560,-1,559,560,561,-1,561,560,562,-1,561,562,563,-1,564,565,566,-1,566,565,567,-1,566,567,568,-1,568,567,569,-1,568,569,553,-1,553,569,570,-1,553,570,551,-1,571,554,572,-1,572,554,556,-1,572,556,573,-1,573,556,574,-1,575,576,577,-1,578,579,580,-1,580,579,581,-1,580,581,582,-1,577,583,575,-1,575,583,584,-1,575,584,585,-1,585,584,586,-1,585,586,587,-1,587,586,588,-1,587,588,589,-1,589,588,590,-1,589,590,591,-1,591,590,592,-1,593,594,576,-1,576,594,595,-1,576,595,577,-1,596,597,598,-1,598,597,556,-1,598,556,599,-1,599,556,555,-1,581,600,582,-1,582,600,601,-1,582,601,602,-1,603,604,578,-1,578,604,605,-1,578,605,579,-1,606,607,603,-1,603,607,608,-1,603,608,604,-1,562,609,563,-1,563,609,610,-1,563,610,611,-1,611,610,612,-1,611,612,613,-1,613,612,597,-1,613,597,614,-1,614,597,615,-1,615,597,596,-1,615,596,592,-1,592,596,616,-1,592,616,591,-1,617,618,619,-1,619,618,620,-1,619,620,593,-1,593,620,621,-1,593,621,594,-1,601,622,602,-1,602,622,623,-1,602,623,624,-1,624,623,625,-1,624,625,617,-1,617,625,626,-1,617,626,618,-1,548,550,627,-1,627,550,628,-1,627,628,629,-1,629,628,630,-1,629,630,631,-1,631,630,632,-1,631,632,633,-1,633,632,634,-1,633,634,635,-1,635,634,636,-1,635,636,637,-1,637,636,638,-1,637,638,639,-1,639,638,640,-1,639,640,564,-1,564,640,641,-1,564,641,565,-1,642,643,644,-1,644,643,645,-1,644,645,646,-1,646,645,647,-1,646,647,648,-1,648,647,649,-1,648,649,650,-1,651,652,653,-1,653,652,654,-1,653,654,655,-1,655,654,656,-1,655,656,606,-1,606,656,657,-1,606,657,607,-1,649,658,650,-1,650,658,659,-1,650,659,660,-1,660,659,661,-1,660,661,662,-1,662,661,663,-1,662,663,651,-1,651,663,664,-1,651,664,652,-1,644,665,642,-1,642,665,666,-1,642,666,667,-1,667,666,668,-1,667,668,572,-1,572,668,669,-1,572,669,571,-1,522,640,638,-1,522,638,524,-1,524,638,636,-1,524,636,526,-1,526,636,634,-1,526,634,528,-1,528,634,632,-1,528,632,530,-1,530,632,630,-1,530,630,532,-1,532,630,628,-1,532,628,534,-1,534,628,550,-1,534,550,536,-1,537,536,549,-1,549,536,550,-1,537,549,548,-1,537,548,535,-1,535,548,627,-1,535,627,533,-1,533,627,629,-1,533,629,531,-1,531,629,631,-1,531,631,529,-1,529,631,633,-1,529,633,527,-1,527,633,635,-1,527,635,525,-1,525,635,637,-1,525,637,523,-1,523,637,639,-1,523,639,521,-1,521,639,564,-1,521,564,519,-1,519,564,566,-1,519,566,430,-1,430,566,568,-1,430,568,431,-1,431,568,553,-1,431,553,438,-1,438,553,552,-1,438,552,440,-1,440,552,559,-1,440,559,446,-1,446,559,561,-1,446,561,482,-1,482,561,563,-1,482,563,484,-1,484,563,611,-1,484,611,486,-1,486,611,613,-1,486,613,499,-1,499,613,614,-1,499,614,500,-1,500,614,615,-1,500,615,489,-1,457,489,592,-1,592,489,615,-1,457,592,590,-1,457,590,455,-1,455,590,588,-1,455,588,453,-1,453,588,586,-1,453,586,433,-1,433,586,584,-1,433,584,434,-1,434,584,583,-1,434,583,442,-1,442,583,577,-1,442,577,443,-1,443,577,595,-1,443,595,448,-1,448,595,594,-1,448,594,449,-1,449,594,621,-1,449,621,451,-1,451,621,620,-1,451,620,511,-1,511,620,618,-1,511,618,512,-1,512,618,626,-1,512,626,514,-1,514,626,625,-1,514,625,545,-1,545,625,623,-1,545,623,546,-1,546,623,622,-1,546,622,547,-1,547,622,601,-1,547,601,462,-1,462,601,600,-1,462,600,464,-1,464,600,581,-1,464,581,465,-1,465,581,579,-1,465,579,460,-1,460,579,605,-1,460,605,508,-1,508,605,604,-1,508,604,509,-1,509,604,608,-1,509,608,510,-1,510,608,607,-1,510,607,502,-1,502,607,657,-1,502,657,504,-1,504,657,656,-1,504,656,506,-1,506,656,654,-1,506,654,538,-1,538,654,652,-1,538,652,539,-1,539,652,664,-1,539,664,541,-1,541,664,663,-1,541,663,543,-1,543,663,661,-1,543,661,544,-1,544,661,659,-1,544,659,471,-1,471,659,658,-1,471,658,473,-1,473,658,649,-1,473,649,475,-1,475,649,647,-1,475,647,492,-1,492,647,645,-1,492,645,493,-1,493,645,643,-1,493,643,495,-1,495,643,642,-1,495,642,469,-1,469,642,667,-1,469,667,467,-1,428,467,572,-1,572,467,667,-1,426,428,573,-1,573,428,572,-1,427,426,574,-1,574,426,573,-1,429,427,556,-1,556,427,574,-1,429,556,597,-1,429,597,498,-1,498,597,612,-1,498,612,487,-1,487,612,610,-1,487,610,485,-1,485,610,609,-1,485,609,483,-1,483,609,562,-1,483,562,481,-1,481,562,560,-1,481,560,447,-1,447,560,558,-1,447,558,445,-1,445,558,557,-1,445,557,441,-1,441,557,551,-1,441,551,439,-1,439,551,570,-1,439,570,437,-1,437,570,569,-1,437,569,432,-1,432,569,567,-1,432,567,517,-1,517,567,565,-1,517,565,518,-1,518,565,641,-1,518,641,520,-1,520,641,640,-1,520,640,522,-1,436,575,585,-1,436,585,435,-1,435,585,587,-1,435,587,454,-1,454,587,589,-1,454,589,456,-1,456,589,591,-1,456,591,491,-1,491,591,616,-1,491,616,490,-1,515,624,617,-1,515,617,513,-1,513,617,619,-1,513,619,452,-1,452,619,593,-1,452,593,450,-1,450,593,576,-1,450,576,444,-1,444,576,575,-1,444,575,436,-1,501,603,578,-1,501,578,458,-1,458,578,580,-1,458,580,459,-1,459,580,582,-1,459,582,463,-1,463,582,602,-1,463,602,461,-1,461,602,624,-1,461,624,515,-1,542,662,651,-1,542,651,540,-1,540,651,653,-1,540,653,507,-1,507,653,655,-1,507,655,505,-1,505,655,606,-1,505,606,503,-1,503,606,603,-1,503,603,501,-1,497,666,665,-1,497,665,496,-1,496,665,644,-1,496,644,494,-1,494,644,646,-1,494,646,476,-1,476,646,648,-1,476,648,474,-1,474,648,650,-1,474,650,472,-1,472,650,660,-1,472,660,470,-1,470,660,662,-1,470,662,542,-1,516,598,599,-1,516,599,477,-1,477,599,555,-1,477,555,478,-1,478,555,554,-1,478,554,479,-1,479,554,571,-1,479,571,480,-1,480,571,669,-1,480,669,466,-1,466,669,668,-1,466,668,468,-1,468,668,666,-1,468,666,497,-1,516,488,598,-1,598,488,596,-1,488,490,596,-1,596,490,616,-1,670,671,672,-1,670,672,673,-1,673,672,674,-1,673,674,675,-1,675,674,676,-1,675,676,677,-1,677,676,678,-1,677,678,679,-1,679,678,680,-1,679,680,681,-1,681,680,682,-1,681,682,683,-1,683,682,684,-1,683,684,685,-1,686,685,687,-1,687,685,684,-1,686,687,688,-1,686,688,689,-1,689,688,690,-1,689,690,691,-1,691,690,692,-1,691,692,693,-1,693,692,694,-1,693,694,695,-1,695,694,696,-1,695,696,697,-1,697,696,698,-1,697,698,699,-1,699,698,700,-1,699,700,701,-1,701,700,702,-1,701,702,703,-1,703,702,704,-1,703,704,705,-1,705,704,706,-1,705,706,707,-1,707,706,708,-1,707,708,709,-1,709,708,710,-1,709,710,711,-1,711,710,712,-1,711,712,713,-1,713,712,714,-1,713,714,715,-1,715,714,716,-1,715,716,717,-1,717,716,718,-1,717,718,719,-1,719,718,720,-1,719,720,721,-1,721,720,722,-1,721,722,723,-1,723,722,724,-1,723,724,725,-1,725,724,726,-1,725,726,727,-1,727,726,728,-1,727,728,729,-1,729,728,730,-1,729,730,731,-1,731,730,732,-1,731,732,733,-1,733,732,734,-1,733,734,735,-1,735,734,736,-1,735,736,737,-1,737,736,738,-1,737,738,739,-1,739,738,740,-1,739,740,741,-1,741,740,742,-1,741,742,743,-1,743,742,744,-1,743,744,745,-1,745,744,746,-1,745,746,747,-1,747,746,748,-1,747,748,749,-1,749,748,750,-1,749,750,751,-1,751,750,752,-1,751,752,753,-1,753,752,754,-1,753,754,755,-1,755,754,756,-1,755,756,757,-1,757,756,758,-1,757,758,759,-1,759,758,760,-1,759,760,761,-1,761,760,762,-1,761,762,763,-1,763,762,764,-1,763,764,765,-1,765,764,766,-1,765,766,767,-1,767,766,768,-1,767,768,769,-1,769,768,770,-1,769,770,771,-1,771,770,772,-1,771,772,773,-1,773,772,774,-1,773,774,775,-1,775,774,776,-1,775,776,777,-1,777,776,778,-1,777,778,779,-1,779,778,780,-1,779,780,781,-1,781,780,782,-1,781,782,783,-1,783,782,784,-1,783,784,785,-1,785,784,786,-1,785,786,787,-1,787,786,788,-1,787,788,789,-1,789,788,790,-1,789,790,791,-1,791,790,792,-1,791,792,793,-1,793,792,794,-1,793,794,795,-1,795,794,796,-1,795,796,797,-1,797,796,798,-1,797,798,799,-1,799,798,800,-1,799,800,801,-1,801,800,802,-1,801,802,803,-1,804,803,805,-1,805,803,802,-1,804,805,806,-1,804,806,807,-1,807,806,808,-1,807,808,809,-1,809,808,810,-1,809,810,811,-1,811,810,812,-1,811,812,813,-1,813,812,814,-1,813,814,815,-1,815,814,816,-1,815,816,817,-1,817,816,818,-1,817,818,819,-1,819,818,820,-1,819,820,821,-1,821,820,822,-1,821,822,823,-1,823,822,824,-1,823,824,825,-1,825,824,826,-1,825,826,827,-1,827,826,828,-1,827,828,829,-1,829,828,830,-1,829,830,831,-1,831,830,832,-1,831,832,833,-1,833,832,834,-1,833,834,835,-1,835,834,836,-1,835,836,837,-1,837,836,838,-1,837,838,839,-1,839,838,840,-1,839,840,841,-1,841,840,842,-1,841,842,843,-1,843,842,844,-1,843,844,845,-1,845,844,846,-1,845,846,847,-1,847,846,848,-1,847,848,849,-1,849,848,850,-1,849,850,851,-1,851,850,852,-1,851,852,853,-1,853,852,854,-1,853,854,855,-1,855,854,856,-1,855,856,857,-1,857,856,858,-1,857,858,859,-1,859,858,860,-1,859,860,861,-1,861,860,862,-1,861,862,863,-1,863,862,864,-1,863,864,865,-1,865,864,866,-1,865,866,867,-1,867,866,868,-1,867,868,869,-1,869,868,870,-1,869,870,871,-1,871,870,872,-1,871,872,873,-1,873,872,874,-1,873,874,875,-1,875,874,876,-1,875,876,877,-1,877,876,878,-1,877,878,879,-1,879,878,880,-1,879,880,881,-1,881,880,882,-1,881,882,883,-1,883,882,884,-1,883,884,885,-1,885,884,886,-1,885,886,887,-1,887,886,888,-1,887,888,889,-1,889,888,890,-1,889,890,891,-1,891,890,892,-1,891,892,893,-1,893,892,894,-1,893,894,895,-1,895,894,896,-1,895,896,897,-1,897,896,898,-1,897,898,899,-1,899,898,900,-1,899,900,901,-1,901,900,902,-1,901,902,903,-1,903,902,904,-1,903,904,905,-1,905,904,671,-1,905,671,670,-1,683,685,686,-1,801,803,804,-1,893,715,891,-1,891,715,717,-1,891,717,889,-1,735,879,881,-1,837,773,775,-1,779,831,777,-1,777,831,833,-1,777,833,775,-1,775,833,835,-1,775,835,837,-1,735,737,879,-1,879,737,739,-1,879,739,877,-1,717,719,889,-1,889,719,721,-1,889,721,887,-1,851,765,767,-1,781,827,779,-1,779,827,829,-1,779,829,831,-1,677,691,693,-1,885,729,883,-1,883,729,731,-1,883,731,881,-1,881,731,733,-1,881,733,735,-1,721,723,887,-1,887,723,725,-1,887,725,885,-1,885,725,727,-1,885,727,729,-1,769,847,767,-1,767,847,849,-1,767,849,851,-1,837,839,773,-1,773,839,841,-1,773,841,771,-1,771,841,843,-1,771,843,769,-1,769,843,845,-1,769,845,847,-1,677,693,675,-1,675,693,695,-1,675,695,673,-1,673,695,697,-1,673,697,670,-1,670,697,699,-1,670,699,905,-1,905,699,701,-1,905,701,903,-1,903,701,703,-1,903,703,901,-1,901,703,705,-1,901,705,899,-1,899,705,707,-1,899,707,897,-1,897,707,709,-1,897,709,895,-1,895,709,711,-1,895,711,893,-1,893,711,713,-1,893,713,715,-1,691,677,689,-1,689,677,679,-1,689,679,686,-1,686,679,681,-1,686,681,683,-1,851,853,765,-1,765,853,855,-1,765,855,763,-1,763,855,857,-1,763,857,761,-1,761,857,859,-1,761,859,759,-1,759,859,861,-1,759,861,757,-1,757,861,863,-1,757,863,755,-1,739,741,877,-1,877,741,743,-1,877,743,875,-1,875,743,745,-1,875,745,873,-1,873,745,747,-1,873,747,871,-1,871,747,749,-1,871,749,869,-1,801,804,799,-1,799,804,807,-1,799,807,797,-1,797,807,809,-1,797,809,795,-1,795,809,811,-1,795,811,793,-1,793,811,813,-1,793,813,791,-1,791,813,815,-1,791,815,789,-1,789,815,817,-1,789,817,787,-1,787,817,819,-1,787,819,785,-1,785,819,821,-1,785,821,783,-1,783,821,823,-1,783,823,781,-1,781,823,825,-1,781,825,827,-1,749,751,869,-1,869,751,753,-1,869,753,867,-1,867,753,755,-1,867,755,865,-1,865,755,863,-1,892,890,714,-1,856,854,762,-1,762,854,764,-1,714,712,892,-1,892,712,710,-1,892,710,894,-1,894,710,708,-1,894,708,896,-1,738,878,876,-1,778,776,830,-1,772,836,774,-1,774,836,834,-1,774,834,776,-1,776,834,832,-1,776,832,830,-1,738,736,878,-1,878,736,734,-1,878,734,880,-1,880,734,732,-1,880,732,882,-1,854,852,764,-1,764,852,850,-1,764,850,766,-1,886,720,888,-1,888,720,718,-1,888,718,890,-1,890,718,716,-1,890,716,714,-1,874,742,876,-1,876,742,740,-1,876,740,738,-1,770,840,772,-1,772,840,838,-1,772,838,836,-1,674,692,676,-1,676,692,690,-1,676,690,678,-1,678,690,688,-1,678,688,680,-1,680,688,687,-1,680,687,682,-1,682,687,684,-1,896,708,898,-1,898,708,706,-1,898,706,900,-1,900,706,704,-1,900,704,902,-1,902,704,702,-1,902,702,904,-1,904,702,700,-1,904,700,671,-1,671,700,698,-1,671,698,672,-1,672,698,696,-1,672,696,674,-1,674,696,694,-1,674,694,692,-1,850,848,766,-1,766,848,846,-1,766,846,768,-1,768,846,844,-1,768,844,770,-1,770,844,842,-1,770,842,840,-1,884,724,886,-1,886,724,722,-1,886,722,720,-1,732,730,882,-1,882,730,728,-1,882,728,884,-1,884,728,726,-1,884,726,724,-1,802,800,805,-1,805,800,798,-1,805,798,806,-1,806,798,796,-1,830,828,778,-1,778,828,826,-1,778,826,780,-1,780,826,824,-1,780,824,782,-1,782,824,822,-1,782,822,784,-1,784,822,820,-1,784,820,786,-1,786,820,818,-1,786,818,788,-1,788,818,816,-1,788,816,790,-1,790,816,814,-1,790,814,792,-1,792,814,812,-1,792,812,794,-1,794,812,810,-1,794,810,796,-1,796,810,808,-1,796,808,806,-1,856,762,858,-1,858,762,760,-1,858,760,860,-1,860,760,758,-1,860,758,862,-1,862,758,756,-1,862,756,864,-1,864,756,754,-1,864,754,866,-1,866,754,752,-1,866,752,868,-1,868,752,750,-1,868,750,870,-1,870,750,748,-1,870,748,872,-1,872,748,746,-1,872,746,874,-1,874,746,744,-1,874,744,742,-1,906,907,908,-1,908,907,909,-1,910,906,911,-1,911,906,908,-1,910,911,912,-1,910,912,913,-1,913,912,914,-1,913,914,915,-1,916,915,917,-1,917,915,914,-1,918,916,919,-1,919,916,917,-1,920,918,921,-1,921,918,919,-1,922,920,923,-1,923,920,921,-1,924,922,925,-1,925,922,923,-1,926,924,927,-1,927,924,925,-1,926,927,928,-1,926,928,929,-1,929,928,930,-1,929,930,931,-1,931,930,932,-1,931,932,933,-1,933,932,934,-1,933,934,935,-1,935,934,936,-1,935,936,937,-1,937,936,938,-1,937,938,939,-1,939,938,940,-1,939,940,941,-1,941,940,942,-1,941,942,943,-1,943,942,944,-1,943,944,945,-1,945,944,946,-1,945,946,947,-1,948,947,949,-1,949,947,946,-1,948,949,950,-1,948,950,951,-1,951,950,952,-1,951,952,953,-1,953,952,954,-1,953,954,955,-1,955,954,956,-1,955,956,957,-1,957,956,958,-1,957,958,959,-1,959,958,960,-1,959,960,961,-1,961,960,962,-1,961,962,963,-1,963,962,964,-1,963,964,965,-1,965,964,966,-1,965,966,967,-1,967,966,968,-1,967,968,969,-1,969,968,970,-1,969,970,971,-1,971,970,972,-1,971,972,973,-1,973,972,974,-1,973,974,975,-1,975,974,976,-1,975,976,977,-1,907,977,909,-1,909,977,976,-1,913,915,977,-1,907,906,977,-1,977,906,910,-1,977,910,913,-1,920,922,918,-1,918,922,924,-1,918,924,916,-1,931,933,965,-1,965,933,963,-1,963,933,935,-1,963,935,961,-1,961,935,937,-1,961,937,959,-1,959,937,957,-1,957,937,939,-1,957,939,955,-1,955,939,941,-1,955,941,953,-1,965,967,931,-1,931,967,969,-1,931,969,929,-1,929,969,971,-1,929,971,926,-1,953,941,951,-1,951,941,943,-1,951,943,948,-1,948,943,945,-1,948,945,947,-1,971,973,926,-1,926,973,975,-1,926,975,924,-1,924,975,977,-1,924,977,916,-1,916,977,915,-1,938,936,958,-1,925,923,921,-1,908,909,911,-1,911,909,976,-1,958,936,960,-1,960,936,934,-1,960,934,962,-1,958,956,938,-1,938,956,954,-1,938,954,940,-1,940,954,952,-1,940,952,942,-1,942,952,950,-1,942,950,944,-1,944,950,949,-1,944,949,946,-1,962,934,964,-1,964,934,932,-1,964,932,966,-1,966,932,930,-1,966,930,968,-1,968,930,928,-1,968,928,970,-1,970,928,972,-1,972,928,927,-1,972,927,974,-1,917,914,976,-1,976,914,912,-1,976,912,911,-1,921,919,925,-1,925,919,917,-1,925,917,927,-1,927,917,976,-1,927,976,974,-1,978,979,980,-1,980,979,981,-1,982,978,983,-1,983,978,980,-1,984,982,985,-1,985,982,983,-1,986,984,987,-1,987,984,985,-1,988,986,989,-1,989,986,987,-1,990,988,991,-1,991,988,989,-1,992,990,993,-1,993,990,991,-1,994,992,995,-1,995,992,993,-1,996,994,997,-1,997,994,995,-1,998,996,999,-1,999,996,997,-1,1000,998,1001,-1,1001,998,999,-1,979,1000,981,-1,981,1000,1001,-1,1000,979,978,-1,978,982,1000,-1,1000,982,984,-1,1000,984,998,-1,994,996,992,-1,992,996,998,-1,992,998,990,-1,990,998,984,-1,990,984,988,-1,988,984,986,-1,999,997,995,-1,995,993,999,-1,999,993,991,-1,999,991,1001,-1,980,981,983,-1,983,981,1001,-1,983,1001,985,-1,985,1001,991,-1,985,991,987,-1,987,991,989,-1,1002,1003,1004,-1,1004,1003,1005,-1,1004,1005,1006,-1,1006,1005,1007,-1,1006,1007,1008,-1,1008,1007,1009,-1,1008,1009,1010,-1,1010,1009,1011,-1,1010,1011,1012,-1,1012,1011,1013,-1,1012,1013,1014,-1,1014,1013,1015,-1,1014,1015,1016,-1,1016,1015,1017,-1,1016,1017,1018,-1,1019,1020,1021,-1,1021,1020,1022,-1,1021,1022,1023,-1,1023,1022,1024,-1,1023,1024,1025,-1,1025,1024,1026,-1,1025,1026,1027,-1,1026,1028,1027,-1,1027,1028,1029,-1,1027,1029,1030,-1,1030,1029,1031,-1,1030,1031,1032,-1,1032,1031,1033,-1,1032,1033,1034,-1,1034,1033,1035,-1,1034,1035,1036,-1,1036,1035,1037,-1,1036,1037,1038,-1,1038,1037,1039,-1,1038,1039,1040,-1,1040,1039,1041,-1,1040,1041,1042,-1,1042,1041,1043,-1,1042,1043,1044,-1,1044,1043,1045,-1,1044,1045,1046,-1,1046,1045,1047,-1,1046,1047,1048,-1,1048,1047,1049,-1,1048,1049,1050,-1,1050,1049,1051,-1,1050,1051,1052,-1,1052,1051,1053,-1,1052,1053,1054,-1,1054,1053,1055,-1,1054,1055,1056,-1,1056,1055,1057,-1,1056,1057,1058,-1,1058,1057,1059,-1,1058,1059,1060,-1,1060,1059,1061,-1,1060,1061,1002,-1,1002,1061,1062,-1,1002,1062,1003,-1,1017,1063,1018,-1,1018,1063,1064,-1,1018,1064,1065,-1,1065,1064,1066,-1,1065,1066,1067,-1,1067,1066,1068,-1,1067,1068,1069,-1,1069,1068,1070,-1,1069,1070,1071,-1,1071,1070,1072,-1,1071,1072,1073,-1,1073,1072,1074,-1,1073,1074,1019,-1,1019,1074,1075,-1,1019,1075,1020,-1,1076,1077,1078,-1,1078,1077,1079,-1,1078,1079,1080,-1,1080,1079,1081,-1,1080,1081,1082,-1,1082,1081,1083,-1,1082,1083,1084,-1,1084,1083,1085,-1,1084,1085,1086,-1,1086,1085,1087,-1,1086,1087,1088,-1,1089,1090,1091,-1,1091,1090,1092,-1,1091,1092,1093,-1,1093,1092,1094,-1,1093,1094,1095,-1,1095,1094,1096,-1,1095,1096,1097,-1,1097,1096,1098,-1,1097,1098,1099,-1,1099,1098,1100,-1,1099,1100,1101,-1,1101,1100,1102,-1,1101,1102,1103,-1,1103,1102,1104,-1,1103,1104,1105,-1,1105,1104,1106,-1,1105,1106,1107,-1,1107,1106,1108,-1,1107,1108,1109,-1,1109,1108,1110,-1,1109,1110,1111,-1,1111,1110,1112,-1,1111,1112,1113,-1,1113,1112,1114,-1,1113,1114,1115,-1,1115,1114,1116,-1,1115,1116,1117,-1,1117,1116,1118,-1,1117,1118,1076,-1,1076,1118,1119,-1,1076,1119,1077,-1,1120,1121,1122,-1,1122,1121,1123,-1,1122,1123,1124,-1,1124,1123,1125,-1,1124,1125,1126,-1,1126,1125,1127,-1,1126,1127,1128,-1,1128,1127,1129,-1,1128,1129,1130,-1,1130,1129,1131,-1,1130,1131,1132,-1,1132,1131,1133,-1,1132,1133,1134,-1,1134,1133,1135,-1,1134,1135,1089,-1,1089,1135,1136,-1,1089,1136,1090,-1,1087,1137,1088,-1,1088,1137,1138,-1,1088,1138,1139,-1,1139,1138,1140,-1,1139,1140,1141,-1,1141,1140,1142,-1,1141,1142,1143,-1,1143,1142,1144,-1,1143,1144,1145,-1,1145,1144,1146,-1,1145,1146,1147,-1,1147,1146,1148,-1,1147,1148,1120,-1,1120,1148,1149,-1,1120,1149,1121,-1,1055,1053,1100,-1,1100,1053,1102,-1,1055,1100,1098,-1,1055,1098,1057,-1,1057,1098,1096,-1,1057,1096,1059,-1,1059,1096,1094,-1,1059,1094,1061,-1,1061,1094,1092,-1,1061,1092,1062,-1,1062,1092,1090,-1,1062,1090,1003,-1,1003,1090,1136,-1,1003,1136,1005,-1,1005,1136,1135,-1,1005,1135,1007,-1,1007,1135,1133,-1,1007,1133,1009,-1,1009,1133,1131,-1,1009,1131,1011,-1,1011,1131,1129,-1,1011,1129,1013,-1,1013,1129,1127,-1,1013,1127,1015,-1,1015,1127,1125,-1,1015,1125,1017,-1,1017,1125,1123,-1,1017,1123,1063,-1,1063,1123,1121,-1,1063,1121,1064,-1,1064,1121,1149,-1,1064,1149,1066,-1,1066,1149,1148,-1,1066,1148,1068,-1,1068,1148,1146,-1,1068,1146,1070,-1,1070,1146,1144,-1,1070,1144,1072,-1,1072,1144,1142,-1,1072,1142,1074,-1,1074,1142,1140,-1,1074,1140,1075,-1,1075,1140,1138,-1,1075,1138,1020,-1,1020,1138,1137,-1,1020,1137,1022,-1,1022,1137,1087,-1,1022,1087,1024,-1,1024,1087,1085,-1,1024,1085,1026,-1,1026,1085,1083,-1,1026,1083,1028,-1,1028,1083,1081,-1,1028,1081,1029,-1,1029,1081,1079,-1,1029,1079,1031,-1,1031,1079,1077,-1,1031,1077,1033,-1,1033,1077,1119,-1,1033,1119,1035,-1,1035,1119,1118,-1,1035,1118,1037,-1,1037,1118,1116,-1,1037,1116,1039,-1,1039,1116,1114,-1,1039,1114,1041,-1,1041,1114,1112,-1,1041,1112,1043,-1,1043,1112,1110,-1,1043,1110,1045,-1,1045,1110,1108,-1,1045,1108,1047,-1,1047,1108,1106,-1,1047,1106,1049,-1,1051,1049,1104,-1,1104,1049,1106,-1,1053,1051,1102,-1,1102,1051,1104,-1,1048,1050,1105,-1,1105,1050,1103,-1,1050,1052,1103,-1,1103,1052,1101,-1,1052,1054,1101,-1,1101,1054,1099,-1,1010,1130,1132,-1,1010,1132,1008,-1,1008,1132,1134,-1,1008,1134,1006,-1,1006,1134,1089,-1,1006,1089,1004,-1,1004,1089,1091,-1,1004,1091,1002,-1,1002,1091,1093,-1,1002,1093,1060,-1,1060,1093,1095,-1,1060,1095,1058,-1,1058,1095,1097,-1,1058,1097,1056,-1,1056,1097,1099,-1,1056,1099,1054,-1,1071,1143,1145,-1,1071,1145,1069,-1,1069,1145,1147,-1,1069,1147,1067,-1,1067,1147,1120,-1,1067,1120,1065,-1,1065,1120,1122,-1,1065,1122,1018,-1,1018,1122,1124,-1,1018,1124,1016,-1,1016,1124,1126,-1,1016,1126,1014,-1,1014,1126,1128,-1,1014,1128,1012,-1,1012,1128,1130,-1,1012,1130,1010,-1,1032,1078,1080,-1,1032,1080,1030,-1,1030,1080,1082,-1,1030,1082,1027,-1,1027,1082,1084,-1,1027,1084,1025,-1,1025,1084,1086,-1,1025,1086,1023,-1,1023,1086,1088,-1,1023,1088,1021,-1,1021,1088,1139,-1,1021,1139,1019,-1,1019,1139,1141,-1,1019,1141,1073,-1,1073,1141,1143,-1,1073,1143,1071,-1,1048,1105,1107,-1,1048,1107,1046,-1,1046,1107,1109,-1,1046,1109,1044,-1,1044,1109,1111,-1,1044,1111,1042,-1,1042,1111,1113,-1,1042,1113,1040,-1,1040,1113,1115,-1,1040,1115,1038,-1,1038,1115,1117,-1,1038,1117,1036,-1,1036,1117,1076,-1,1036,1076,1034,-1,1034,1076,1078,-1,1034,1078,1032,-1,1150,1151,1152,-1,1152,1151,1153,-1,1154,1155,1150,-1,1150,1155,1156,-1,1150,1156,1151,-1,1151,1156,1157,-1,1154,1158,1155,-1,1155,1158,1159,-1,1155,1159,1160,-1,1160,1159,1161,-1,1160,1161,1162,-1,1162,1163,1160,-1,1160,1163,1152,-1,1160,1152,1164,-1,1164,1152,1153,-1,1164,1153,1165,-1,1166,1167,1168,-1,1167,1169,1168,-1,1168,1169,1170,-1,1168,1170,1171,-1,1171,1170,1172,-1,1171,1172,1173,-1,1173,1174,1171,-1,1171,1174,1175,-1,1171,1175,1176,-1,1177,1178,1179,-1,1180,1176,1181,-1,1181,1176,1175,-1,1181,1175,1179,-1,1179,1175,1166,-1,1179,1166,1177,-1,1177,1166,1168,-1,1160,1164,1168,-1,1168,1164,1177,-1,1155,1160,1171,-1,1171,1160,1168,-1,1156,1155,1176,-1,1176,1155,1171,-1,1157,1156,1180,-1,1180,1156,1176,-1,1151,1157,1181,-1,1181,1157,1180,-1,1153,1151,1179,-1,1179,1151,1181,-1,1165,1153,1178,-1,1178,1153,1179,-1,1164,1165,1177,-1,1177,1165,1178,-1,1150,1152,1175,-1,1175,1152,1166,-1,1152,1163,1166,-1,1166,1163,1167,-1,1161,1170,1169,-1,1161,1169,1162,-1,1162,1169,1167,-1,1162,1167,1163,-1,1161,1159,1170,-1,1170,1159,1172,-1,1154,1174,1173,-1,1154,1173,1158,-1,1158,1173,1172,-1,1158,1172,1159,-1,1154,1150,1174,-1,1174,1150,1175,-1,1182,1183,1184,-1,1185,1186,1187,-1,1188,1189,1190,-1,1191,1192,1193,-1,1193,1192,1194,-1,1193,1194,1195,-1,1196,1197,1198,-1,1199,1200,1201,-1,1202,1203,1184,-1,1184,1203,1204,-1,1184,1204,1182,-1,1205,1206,1207,-1,1207,1206,1208,-1,1207,1208,1209,-1,1209,1208,1210,-1,1209,1210,1211,-1,1211,1210,1212,-1,1211,1212,1213,-1,1214,1215,1216,-1,1216,1215,1217,-1,1216,1217,1218,-1,1219,1183,1220,-1,1220,1183,1221,-1,1220,1221,1214,-1,1214,1221,1222,-1,1214,1222,1215,-1,1223,1224,1208,-1,1208,1224,1225,-1,1208,1225,1210,-1,1210,1225,1226,-1,1210,1226,1227,-1,1228,1229,1230,-1,1201,1200,1231,-1,1231,1200,1232,-1,1231,1232,1233,-1,1233,1232,1234,-1,1233,1234,1235,-1,1190,1189,1236,-1,1236,1189,1237,-1,1236,1237,1238,-1,1239,1240,1184,-1,1184,1240,1241,-1,1184,1241,1202,-1,1228,1230,1242,-1,1242,1230,1243,-1,1242,1243,1244,-1,1244,1243,1245,-1,1244,1245,1246,-1,1213,1247,1211,-1,1211,1247,1248,-1,1211,1248,1249,-1,1250,1184,1251,-1,1251,1184,1183,-1,1251,1183,1252,-1,1252,1183,1219,-1,1198,1197,1253,-1,1253,1197,1254,-1,1253,1254,1255,-1,1256,1257,1258,-1,1258,1257,1259,-1,1258,1259,1260,-1,1260,1259,1261,-1,1260,1261,1262,-1,1262,1261,1263,-1,1262,1263,1264,-1,1265,1266,1267,-1,1267,1266,1268,-1,1267,1268,1239,-1,1239,1268,1269,-1,1239,1269,1240,-1,1229,1228,1270,-1,1270,1228,1271,-1,1270,1271,1272,-1,1272,1271,1273,-1,1272,1273,1274,-1,1274,1273,1275,-1,1274,1275,1187,-1,1187,1275,1276,-1,1187,1276,1185,-1,1250,1277,1184,-1,1184,1277,1278,-1,1184,1278,1279,-1,1279,1278,1280,-1,1281,1282,1283,-1,1283,1282,1284,-1,1283,1284,1285,-1,1198,1286,1196,-1,1196,1286,1287,-1,1196,1287,1281,-1,1281,1287,1288,-1,1281,1288,1282,-1,1227,1289,1210,-1,1210,1289,1290,-1,1210,1290,1291,-1,1291,1290,1218,-1,1291,1218,1292,-1,1292,1218,1217,-1,1201,1293,1199,-1,1199,1293,1294,-1,1199,1294,1295,-1,1295,1294,1296,-1,1295,1296,1297,-1,1297,1296,1298,-1,1297,1298,1299,-1,1299,1298,1300,-1,1299,1300,1301,-1,1190,1302,1188,-1,1188,1302,1303,-1,1188,1303,1304,-1,1304,1303,1305,-1,1304,1305,1306,-1,1306,1305,1307,-1,1306,1307,1308,-1,1308,1307,1187,-1,1308,1187,1309,-1,1309,1187,1186,-1,1193,1310,1191,-1,1191,1310,1311,-1,1191,1311,1312,-1,1312,1311,1313,-1,1312,1313,1314,-1,1315,1316,1317,-1,1317,1316,1318,-1,1317,1318,1319,-1,1319,1318,1320,-1,1319,1320,1265,-1,1265,1320,1321,-1,1265,1321,1266,-1,1255,1254,1208,-1,1208,1254,1322,-1,1208,1322,1223,-1,1323,1324,1325,-1,1325,1324,1326,-1,1325,1326,1327,-1,1327,1326,1328,-1,1327,1328,1256,-1,1256,1328,1329,-1,1256,1329,1257,-1,1300,1330,1301,-1,1301,1330,1331,-1,1301,1331,1332,-1,1332,1331,1333,-1,1332,1333,1323,-1,1323,1333,1334,-1,1323,1334,1324,-1,1284,1335,1285,-1,1285,1335,1336,-1,1285,1336,1337,-1,1337,1336,1338,-1,1337,1338,1280,-1,1280,1338,1339,-1,1280,1339,1279,-1,1340,1341,1342,-1,1343,1344,1345,-1,1345,1344,1346,-1,1347,1348,1349,-1,1349,1348,1350,-1,1349,1350,1351,-1,1351,1350,1352,-1,1351,1352,1353,-1,1353,1352,1354,-1,1353,1354,1355,-1,1355,1354,1356,-1,1355,1356,1315,-1,1315,1356,1357,-1,1315,1357,1316,-1,1195,1358,1193,-1,1193,1358,1359,-1,1193,1359,1360,-1,1360,1359,1361,-1,1360,1361,1362,-1,1362,1361,1264,-1,1362,1264,1363,-1,1363,1264,1263,-1,1364,1365,1340,-1,1340,1365,1366,-1,1340,1366,1341,-1,1234,1367,1235,-1,1235,1367,1340,-1,1235,1340,1368,-1,1368,1340,1342,-1,1238,1237,1369,-1,1369,1237,1370,-1,1369,1370,1343,-1,1343,1370,1371,-1,1343,1371,1344,-1,1372,1373,1374,-1,1373,1375,1374,-1,1374,1375,1376,-1,1374,1376,1377,-1,1245,1378,1246,-1,1246,1378,1379,-1,1246,1379,1380,-1,1380,1379,1381,-1,1380,1381,1347,-1,1347,1381,1382,-1,1347,1382,1348,-1,1364,1340,1374,-1,1374,1340,1383,-1,1374,1383,1372,-1,1313,1384,1314,-1,1314,1384,1385,-1,1314,1385,1386,-1,1386,1385,1387,-1,1386,1387,1388,-1,1388,1387,1389,-1,1388,1389,1390,-1,1390,1389,1391,-1,1390,1391,1392,-1,1392,1391,1393,-1,1392,1393,1346,-1,1346,1393,1394,-1,1346,1394,1345,-1,1395,1396,1397,-1,1397,1396,1398,-1,1397,1398,1399,-1,1398,1400,1399,-1,1399,1400,1401,-1,1399,1401,1402,-1,1402,1401,1403,-1,1404,1405,1406,-1,1406,1405,1407,-1,1408,1409,1410,-1,1411,1412,1413,-1,1413,1412,1414,-1,1413,1414,1415,-1,1416,1417,1399,-1,1399,1417,1418,-1,1399,1418,1397,-1,1397,1418,1419,-1,1420,1421,1422,-1,1423,1424,1401,-1,1401,1424,1425,-1,1401,1425,1403,-1,1426,1427,1428,-1,1429,1430,1431,-1,1431,1430,1432,-1,1431,1432,1433,-1,1433,1432,1434,-1,1433,1434,1435,-1,1422,1421,1436,-1,1436,1421,1437,-1,1436,1437,1438,-1,1438,1437,1439,-1,1438,1439,1440,-1,1440,1439,1441,-1,1441,1439,1442,-1,1441,1442,1443,-1,1443,1442,1406,-1,1443,1406,1444,-1,1444,1406,1407,-1,1444,1407,1415,-1,1415,1407,1445,-1,1415,1445,1413,-1,1446,1447,1448,-1,1448,1447,1449,-1,1448,1449,1450,-1,1450,1449,1451,-1,1450,1451,1452,-1,1410,1409,1453,-1,1453,1409,1454,-1,1453,1454,1455,-1,1456,1457,1451,-1,1413,1458,1411,-1,1411,1458,1459,-1,1411,1459,1460,-1,1455,1454,1461,-1,1461,1454,1462,-1,1461,1462,1463,-1,1463,1462,1464,-1,1463,1464,1465,-1,1466,1467,1468,-1,1468,1467,1469,-1,1468,1469,1470,-1,1470,1469,1471,-1,1470,1471,1472,-1,1472,1471,1473,-1,1472,1473,1474,-1,1475,1476,1477,-1,1477,1476,1478,-1,1477,1478,1479,-1,1479,1478,1480,-1,1479,1480,1481,-1,1457,1482,1451,-1,1451,1482,1483,-1,1451,1483,1452,-1,1484,1485,1486,-1,1486,1485,1411,-1,1486,1411,1487,-1,1487,1411,1460,-1,1488,1489,1490,-1,1490,1489,1491,-1,1490,1491,1492,-1,1434,1493,1435,-1,1435,1493,1494,-1,1435,1494,1495,-1,1495,1494,1463,-1,1495,1463,1496,-1,1428,1427,1497,-1,1497,1427,1498,-1,1497,1498,1399,-1,1399,1498,1499,-1,1399,1499,1416,-1,1491,1500,1492,-1,1492,1500,1501,-1,1492,1501,1502,-1,1502,1501,1503,-1,1502,1503,1504,-1,1504,1503,1397,-1,1504,1397,1505,-1,1505,1397,1419,-1,1488,1506,1507,-1,1496,1463,1508,-1,1508,1463,1465,-1,1508,1465,1509,-1,1510,1511,1512,-1,1512,1511,1513,-1,1480,1514,1481,-1,1481,1514,1515,-1,1481,1515,1516,-1,1516,1515,1517,-1,1516,1517,1466,-1,1466,1517,1518,-1,1466,1518,1467,-1,1451,1519,1456,-1,1456,1519,1520,-1,1456,1520,1521,-1,1521,1520,1522,-1,1521,1522,1523,-1,1523,1522,1524,-1,1523,1524,1525,-1,1525,1524,1526,-1,1525,1526,1475,-1,1475,1526,1527,-1,1475,1527,1476,-1,1428,1528,1426,-1,1426,1528,1529,-1,1426,1529,1530,-1,1530,1529,1531,-1,1530,1531,1484,-1,1484,1531,1532,-1,1484,1532,1485,-1,1533,1534,1488,-1,1488,1534,1535,-1,1488,1535,1506,-1,1507,1536,1488,-1,1488,1536,1537,-1,1488,1537,1489,-1,1538,1539,1540,-1,1540,1539,1541,-1,1540,1541,1542,-1,1422,1543,1420,-1,1420,1543,1544,-1,1420,1544,1545,-1,1545,1544,1546,-1,1545,1546,1547,-1,1547,1546,1548,-1,1547,1548,1549,-1,1549,1548,1550,-1,1549,1550,1551,-1,1551,1550,1552,-1,1551,1552,1538,-1,1538,1552,1553,-1,1538,1553,1539,-1,1473,1554,1474,-1,1474,1554,1555,-1,1474,1555,1556,-1,1556,1555,1557,-1,1556,1557,1558,-1,1558,1557,1559,-1,1558,1559,1560,-1,1560,1559,1561,-1,1560,1561,1562,-1,1562,1561,1563,-1,1562,1563,1564,-1,1564,1563,1565,-1,1564,1565,1512,-1,1512,1565,1566,-1,1512,1566,1510,-1,1513,1567,1512,-1,1512,1567,1568,-1,1512,1568,1569,-1,1404,1406,1488,-1,1488,1406,1570,-1,1488,1570,1533,-1,1541,1571,1542,-1,1542,1571,1572,-1,1542,1572,1573,-1,1573,1572,1574,-1,1573,1574,1575,-1,1575,1574,1576,-1,1575,1576,1429,-1,1429,1576,1577,-1,1429,1577,1430,-1,1578,1579,1569,-1,1569,1579,1580,-1,1569,1580,1581,-1,1582,1583,1584,-1,1584,1583,1585,-1,1584,1585,1446,-1,1446,1585,1586,-1,1446,1586,1447,-1,1410,1587,1408,-1,1408,1587,1588,-1,1408,1588,1589,-1,1589,1588,1590,-1,1589,1590,1591,-1,1591,1590,1592,-1,1591,1592,1593,-1,1593,1592,1594,-1,1593,1594,1595,-1,1595,1594,1596,-1,1595,1596,1597,-1,1597,1596,1598,-1,1597,1598,1599,-1,1599,1598,1600,-1,1599,1600,1601,-1,1601,1600,1602,-1,1601,1602,1603,-1,1603,1602,1604,-1,1603,1604,1582,-1,1582,1604,1605,-1,1582,1605,1583,-1,1581,1606,1569,-1,1569,1606,1607,-1,1569,1607,1512,-1,1326,1514,1480,-1,1326,1480,1328,-1,1328,1480,1478,-1,1328,1478,1329,-1,1329,1478,1476,-1,1329,1476,1257,-1,1257,1476,1527,-1,1257,1527,1259,-1,1259,1527,1526,-1,1259,1526,1261,-1,1261,1526,1524,-1,1261,1524,1263,-1,1263,1524,1522,-1,1263,1522,1363,-1,1363,1522,1520,-1,1363,1520,1362,-1,1362,1520,1519,-1,1362,1519,1360,-1,1360,1519,1451,-1,1360,1451,1193,-1,1193,1451,1449,-1,1193,1449,1310,-1,1310,1449,1447,-1,1310,1447,1311,-1,1311,1447,1586,-1,1311,1586,1313,-1,1313,1586,1585,-1,1313,1585,1384,-1,1384,1585,1583,-1,1384,1583,1385,-1,1385,1583,1605,-1,1385,1605,1387,-1,1387,1605,1604,-1,1387,1604,1389,-1,1389,1604,1602,-1,1389,1602,1391,-1,1391,1602,1600,-1,1391,1600,1393,-1,1393,1600,1598,-1,1393,1598,1394,-1,1394,1598,1596,-1,1394,1596,1345,-1,1345,1596,1594,-1,1345,1594,1343,-1,1343,1594,1592,-1,1343,1592,1369,-1,1369,1592,1590,-1,1369,1590,1238,-1,1238,1590,1588,-1,1238,1588,1236,-1,1236,1588,1587,-1,1236,1587,1190,-1,1190,1587,1410,-1,1190,1410,1302,-1,1302,1410,1453,-1,1302,1453,1303,-1,1303,1453,1455,-1,1303,1455,1305,-1,1305,1455,1461,-1,1305,1461,1307,-1,1307,1461,1463,-1,1307,1463,1187,-1,1187,1463,1494,-1,1187,1494,1274,-1,1274,1494,1493,-1,1274,1493,1272,-1,1272,1493,1434,-1,1272,1434,1270,-1,1270,1434,1432,-1,1270,1432,1229,-1,1229,1432,1430,-1,1229,1430,1230,-1,1230,1430,1577,-1,1230,1577,1243,-1,1243,1577,1576,-1,1243,1576,1245,-1,1245,1576,1574,-1,1245,1574,1378,-1,1378,1574,1572,-1,1378,1572,1379,-1,1379,1572,1571,-1,1379,1571,1381,-1,1381,1571,1541,-1,1381,1541,1382,-1,1382,1541,1539,-1,1382,1539,1348,-1,1348,1539,1553,-1,1348,1553,1350,-1,1350,1553,1552,-1,1350,1552,1352,-1,1352,1552,1550,-1,1352,1550,1354,-1,1354,1550,1548,-1,1354,1548,1356,-1,1356,1548,1546,-1,1356,1546,1357,-1,1357,1546,1544,-1,1357,1544,1316,-1,1316,1544,1543,-1,1316,1543,1318,-1,1318,1543,1422,-1,1318,1422,1320,-1,1320,1422,1436,-1,1320,1436,1321,-1,1321,1436,1438,-1,1321,1438,1266,-1,1266,1438,1440,-1,1266,1440,1268,-1,1268,1440,1441,-1,1268,1441,1269,-1,1269,1441,1443,-1,1269,1443,1240,-1,1240,1443,1444,-1,1240,1444,1241,-1,1241,1444,1415,-1,1241,1415,1202,-1,1202,1415,1414,-1,1202,1414,1203,-1,1203,1414,1412,-1,1203,1412,1204,-1,1204,1412,1411,-1,1204,1411,1182,-1,1182,1411,1485,-1,1182,1485,1183,-1,1183,1485,1532,-1,1183,1532,1221,-1,1221,1532,1531,-1,1221,1531,1222,-1,1222,1531,1529,-1,1222,1529,1215,-1,1215,1529,1528,-1,1215,1528,1217,-1,1217,1528,1428,-1,1217,1428,1292,-1,1292,1428,1497,-1,1292,1497,1291,-1,1291,1497,1399,-1,1291,1399,1210,-1,1210,1399,1402,-1,1210,1402,1212,-1,1212,1402,1403,-1,1212,1403,1213,-1,1213,1403,1425,-1,1213,1425,1247,-1,1247,1425,1424,-1,1247,1424,1248,-1,1248,1424,1423,-1,1248,1423,1249,-1,1249,1423,1401,-1,1249,1401,1211,-1,1211,1401,1400,-1,1211,1400,1209,-1,1207,1209,1398,-1,1398,1209,1400,-1,1205,1207,1396,-1,1396,1207,1398,-1,1206,1205,1395,-1,1395,1205,1396,-1,1208,1206,1397,-1,1397,1206,1395,-1,1208,1397,1503,-1,1208,1503,1255,-1,1255,1503,1501,-1,1255,1501,1253,-1,1253,1501,1500,-1,1253,1500,1198,-1,1198,1500,1491,-1,1198,1491,1286,-1,1286,1491,1489,-1,1286,1489,1287,-1,1287,1489,1537,-1,1287,1537,1288,-1,1288,1537,1536,-1,1288,1536,1282,-1,1282,1536,1507,-1,1282,1507,1284,-1,1284,1507,1506,-1,1284,1506,1335,-1,1335,1506,1535,-1,1335,1535,1336,-1,1336,1535,1534,-1,1336,1534,1338,-1,1338,1534,1533,-1,1338,1533,1339,-1,1339,1533,1570,-1,1339,1570,1279,-1,1279,1570,1406,-1,1279,1406,1184,-1,1184,1406,1442,-1,1184,1442,1239,-1,1239,1442,1439,-1,1239,1439,1267,-1,1267,1439,1437,-1,1267,1437,1265,-1,1265,1437,1421,-1,1265,1421,1319,-1,1319,1421,1420,-1,1319,1420,1317,-1,1317,1420,1545,-1,1317,1545,1315,-1,1315,1545,1547,-1,1315,1547,1355,-1,1355,1547,1549,-1,1355,1549,1353,-1,1353,1549,1551,-1,1353,1551,1351,-1,1351,1551,1538,-1,1351,1538,1349,-1,1349,1538,1540,-1,1349,1540,1347,-1,1347,1540,1542,-1,1347,1542,1380,-1,1380,1542,1573,-1,1380,1573,1246,-1,1246,1573,1575,-1,1246,1575,1244,-1,1244,1575,1429,-1,1244,1429,1242,-1,1242,1429,1431,-1,1242,1431,1228,-1,1228,1431,1433,-1,1228,1433,1271,-1,1271,1433,1435,-1,1271,1435,1273,-1,1273,1435,1495,-1,1273,1495,1275,-1,1275,1495,1496,-1,1275,1496,1276,-1,1276,1496,1508,-1,1276,1508,1185,-1,1185,1508,1509,-1,1185,1509,1186,-1,1186,1509,1465,-1,1186,1465,1309,-1,1309,1465,1464,-1,1309,1464,1308,-1,1308,1464,1462,-1,1308,1462,1306,-1,1306,1462,1454,-1,1306,1454,1304,-1,1304,1454,1409,-1,1304,1409,1188,-1,1188,1409,1408,-1,1188,1408,1189,-1,1189,1408,1589,-1,1189,1589,1237,-1,1237,1589,1591,-1,1237,1591,1370,-1,1370,1591,1593,-1,1370,1593,1371,-1,1371,1593,1595,-1,1371,1595,1344,-1,1344,1595,1597,-1,1344,1597,1346,-1,1346,1597,1599,-1,1346,1599,1392,-1,1392,1599,1601,-1,1392,1601,1390,-1,1390,1601,1603,-1,1390,1603,1388,-1,1388,1603,1582,-1,1388,1582,1386,-1,1386,1582,1584,-1,1386,1584,1314,-1,1314,1584,1446,-1,1314,1446,1312,-1,1312,1446,1448,-1,1312,1448,1191,-1,1191,1448,1450,-1,1191,1450,1192,-1,1192,1450,1452,-1,1192,1452,1194,-1,1194,1452,1483,-1,1194,1483,1195,-1,1358,1195,1482,-1,1482,1195,1483,-1,1358,1482,1457,-1,1358,1457,1359,-1,1359,1457,1456,-1,1359,1456,1361,-1,1361,1456,1521,-1,1361,1521,1264,-1,1264,1521,1523,-1,1264,1523,1262,-1,1262,1523,1525,-1,1262,1525,1260,-1,1260,1525,1475,-1,1260,1475,1258,-1,1258,1475,1477,-1,1258,1477,1256,-1,1256,1477,1479,-1,1256,1479,1327,-1,1327,1479,1481,-1,1327,1481,1325,-1,1325,1481,1516,-1,1325,1516,1323,-1,1323,1516,1466,-1,1323,1466,1332,-1,1332,1466,1468,-1,1332,1468,1301,-1,1301,1468,1470,-1,1301,1470,1299,-1,1299,1470,1472,-1,1299,1472,1297,-1,1297,1472,1474,-1,1297,1474,1295,-1,1295,1474,1556,-1,1295,1556,1199,-1,1199,1556,1558,-1,1199,1558,1200,-1,1200,1558,1560,-1,1200,1560,1232,-1,1234,1232,1562,-1,1562,1232,1560,-1,1234,1562,1564,-1,1234,1564,1367,-1,1367,1564,1512,-1,1367,1512,1340,-1,1340,1512,1607,-1,1340,1607,1383,-1,1383,1607,1606,-1,1383,1606,1372,-1,1372,1606,1581,-1,1372,1581,1373,-1,1373,1581,1580,-1,1373,1580,1375,-1,1375,1580,1579,-1,1375,1579,1376,-1,1376,1579,1578,-1,1376,1578,1377,-1,1377,1578,1569,-1,1377,1569,1374,-1,1374,1569,1568,-1,1374,1568,1364,-1,1364,1568,1567,-1,1364,1567,1365,-1,1365,1567,1513,-1,1365,1513,1366,-1,1366,1513,1511,-1,1366,1511,1341,-1,1341,1511,1510,-1,1341,1510,1342,-1,1342,1510,1566,-1,1342,1566,1368,-1,1368,1566,1565,-1,1368,1565,1235,-1,1235,1565,1563,-1,1235,1563,1233,-1,1231,1233,1561,-1,1561,1233,1563,-1,1231,1561,1559,-1,1231,1559,1201,-1,1201,1559,1557,-1,1201,1557,1293,-1,1293,1557,1555,-1,1293,1555,1294,-1,1294,1555,1554,-1,1294,1554,1296,-1,1296,1554,1473,-1,1296,1473,1298,-1,1298,1473,1471,-1,1298,1471,1300,-1,1300,1471,1469,-1,1300,1469,1330,-1,1330,1469,1467,-1,1330,1467,1331,-1,1331,1467,1518,-1,1331,1518,1333,-1,1333,1518,1517,-1,1333,1517,1334,-1,1334,1517,1515,-1,1334,1515,1324,-1,1324,1515,1514,-1,1324,1514,1326,-1,1281,1488,1490,-1,1281,1490,1196,-1,1196,1490,1492,-1,1196,1492,1197,-1,1197,1492,1502,-1,1197,1502,1254,-1,1254,1502,1504,-1,1254,1504,1322,-1,1322,1504,1505,-1,1322,1505,1223,-1,1223,1505,1419,-1,1223,1419,1224,-1,1224,1419,1418,-1,1224,1418,1225,-1,1225,1418,1417,-1,1225,1417,1226,-1,1226,1417,1416,-1,1226,1416,1227,-1,1227,1416,1499,-1,1227,1499,1289,-1,1289,1499,1498,-1,1289,1498,1290,-1,1290,1498,1427,-1,1290,1427,1218,-1,1218,1427,1426,-1,1218,1426,1216,-1,1216,1426,1530,-1,1216,1530,1214,-1,1214,1530,1484,-1,1214,1484,1220,-1,1220,1484,1486,-1,1220,1486,1219,-1,1219,1486,1487,-1,1219,1487,1252,-1,1252,1487,1460,-1,1252,1460,1251,-1,1251,1460,1459,-1,1251,1459,1250,-1,1250,1459,1458,-1,1250,1458,1277,-1,1277,1458,1413,-1,1277,1413,1278,-1,1278,1413,1445,-1,1278,1445,1280,-1,1280,1445,1407,-1,1280,1407,1337,-1,1337,1407,1405,-1,1337,1405,1285,-1,1285,1405,1404,-1,1285,1404,1283,-1,1283,1404,1488,-1,1283,1488,1281,-1,
        ]
    }
}